<svg xmlns="http://www.w3.org/2000/svg" width="256" height="256" viewBox="0 0 256 256"><path d="M127.5 83c1.508 0.194 2.846 0.963 3.823 2.139l0.334 0.433c1.347 1.71 1.347 1.71 3.285 2.571 1.541 0.117 3.06 0.016 4.597 -0.117 0.713 -0.027 1.34 0.051 2.043 0.166 0.881 0.106 1.323 0.077 2.034 -0.467a22.75 22.75 0 0 0 0.758 -0.741q0.412 -0.384 0.828 -0.763l0.405 -0.376c0.852 -0.753 1.823 -1.447 2.892 -1.846 0.68 0.059 0.68 0.059 1.25 0.25 1.027 2.054 0.081 5.169 -0.5 7.25l0.573 0.066c1.762 0.225 3.479 0.542 5.209 0.95 3.417 0.805 6.859 1.487 10.3 2.182A727 727 0 0 1 169.25 95.5l0.54 0.113c0.464 0.098 0.926 0.198 1.389 0.299l0.75 0.164C172.5 96.25 172.5 96.25 173 96.75c-0.065 1.137 -0.608 1.879 -1.243 2.798l-0.304 0.444c-0.321 0.468 -0.644 0.933 -0.969 1.399l-0.632 0.918 -0.314 0.457q-0.312 0.453 -0.623 0.907a120 120 0 0 1 -1.526 2.178l-0.561 0.797 -0.503 0.701c-0.379 0.628 -0.379 0.628 -0.304 1.306 0.258 0.673 0.519 0.987 1.05 1.469l0.52 0.48 0.564 0.505 0.578 0.53q0.592 0.543 1.187 1.083c1.014 0.923 2.01 1.865 3.008 2.805 0.712 0.667 1.429 1.321 2.174 1.952l0.397 0.341a93.75 93.75 0 0 0 1.055 0.883C177 119.25 177 119.25 176.973 119.872 176.75 120.5 176.75 120.5 176.274 120.836l-0.648 0.261 -0.755 0.312L174 121.75q-0.496 0.201 -0.991 0.403a257 257 0 0 1 -2.713 1.08q-0.852 0.335 -1.703 0.673l-1.085 0.427 -0.513 0.203C165.808 125 165.808 125 165.25 125v17.75c-2.328 1.087 -4.655 2.169 -7 3.219l-0.452 0.203c-3.009 1.348 -6.032 2.664 -9.056 3.978 -2.655 1.154 -5.306 2.318 -7.946 3.506a1637.5 1637.5 0 0 1 -7.57 3.387q-0.565 0.251 -1.128 0.502 -0.786 0.351 -1.573 0.699l-0.911 0.406c-2.304 0.932 -2.304 0.932 -3.229 0.686l-0.567 -0.321 -0.66 -0.36 -0.704 -0.405a635.75 635.75 0 0 0 -1.538 -0.842l-0.818 -0.451c-1.451 -0.783 -2.931 -1.509 -4.409 -2.239a226.5 226.5 0 0 1 -5.715 -2.92c-2.47 -1.308 -4.968 -2.557 -7.473 -3.799 -2.542 -1.261 -5.079 -2.529 -7.594 -3.844l-0.59 -0.307 -0.556 -0.293 -0.483 -0.254L94.75 143l-0.801 -0.431C93.25 142 93.25 142 93.06 141.244l-0.004 -0.895 -0.008 -0.495a81.75 81.75 0 0 1 0 -1.615q-0.004 -0.561 -0.01 -1.123c-0.009 -0.983 -0.009 -1.966 -0.007 -2.949 0 -1.004 -0.008 -2.007 -0.015 -3.011 -0.013 -1.968 -0.018 -3.937 -0.015 -5.905l-0.623 -0.298q-1.164 -0.558 -2.328 -1.118l-1 -0.48C81.957 119.957 81.957 119.957 80.75 118.75c0.029 -0.828 0.168 -1.167 0.753 -1.759l0.669 -0.507 0.755 -0.589 0.406 -0.315c0.73 -0.578 1.431 -1.19 2.136 -1.799l0.89 -0.765 0.446 -0.384c0.724 -0.62 1.452 -1.236 2.18 -1.851 1.092 -0.922 2.182 -1.849 3.265 -2.781 -0.42 -1.296 -1.198 -2.332 -1.969 -3.438l-0.434 -0.628a608.5 608.5 0 0 0 -3.732 -5.324l-0.325 -0.459a26.5 26.5 0 0 0 -0.751 -0.979C84.75 96.75 84.75 96.75 84.766 96.094c0.234 -0.594 0.234 -0.594 0.68 -0.868 0.563 -0.23 1.056 -0.347 1.657 -0.439l0.662 -0.104 0.717 -0.108 0.753 -0.118q0.805 -0.126 1.61 -0.249c1.435 -0.221 2.87 -0.448 4.305 -0.674l0.875 -0.138c2.435 -0.386 4.862 -0.805 7.289 -1.24 4.291 -0.766 8.591 -1.47 12.894 -2.165l1.572 -0.254q1.481 -0.24 2.962 -0.477l0.896 -0.145c1.535 -0.245 3.066 -0.458 4.613 -0.615l-0.035 -0.767q-0.014 -0.507 -0.028 -1.014l-0.025 -0.504c-0.025 -1.284 0.296 -1.971 1.088 -2.965z" fill="#4e383f"/><path d="M127.5 83c1.508 0.194 2.846 0.963 3.823 2.139l0.334 0.433c1.347 1.71 1.347 1.71 3.285 2.571 1.541 0.117 3.06 0.016 4.597 -0.117 0.713 -0.027 1.34 0.051 2.043 0.166 0.881 0.106 1.323 0.077 2.034 -0.467a22.75 22.75 0 0 0 0.758 -0.741q0.412 -0.384 0.828 -0.763l0.405 -0.376c0.852 -0.753 1.823 -1.447 2.892 -1.846 0.68 0.059 0.68 0.059 1.25 0.25 1.027 2.054 0.081 5.169 -0.5 7.25l0.573 0.066c1.762 0.225 3.479 0.542 5.209 0.95 3.417 0.805 6.859 1.487 10.3 2.182A727 727 0 0 1 169.25 95.5l0.54 0.113c0.464 0.098 0.926 0.198 1.389 0.299l0.75 0.164C172.5 96.25 172.5 96.25 173 96.75c-0.065 1.137 -0.608 1.879 -1.243 2.798l-0.304 0.444c-0.321 0.468 -0.644 0.933 -0.969 1.399l-0.632 0.918 -0.314 0.457q-0.312 0.453 -0.623 0.907a120 120 0 0 1 -1.526 2.178l-0.561 0.797 -0.503 0.701c-0.377 0.627 -0.377 0.627 -0.31 1.3 0.279 0.715 0.596 1.058 1.163 1.572l0.568 0.524 0.598 0.536 1.162 1.065 0.523 0.472L170.5 113.25l0.437 0.385C171.25 114 171.25 114 171.25 114.75l0.407 0.158c0.821 0.473 1.426 1.133 2.077 1.81 0.721 0.745 1.418 1.455 2.236 2.096L176.5 119.25v0.5c-7.808 3.229 -15.649 6.377 -23.5 9.5l-0.702 0.28a1795 1795 0 0 1 -3.555 1.41l-0.99 0.392A282.25 282.25 0 0 1 144.75 132.5l-0.468 0.183a135.5 135.5 0 0 1 -1.422 0.543l-0.845 0.323c-0.809 0.212 -1.229 0.214 -2.015 -0.049 -1.605 -1.291 -2.9 -2.951 -4.18 -4.554 -0.585 -0.714 -1.195 -1.393 -1.82 -2.071 -1.224 -1.332 -2.367 -2.716 -3.5 -4.125l-0.585 -0.702 -0.555 -0.673 -0.501 -0.602C128.5 120.25 128.5 120.25 128.5 119.5l-0.89 -0.172c-1.139 -0.255 -2.248 -0.583 -3.36 -0.938l-0.508 -0.155c-0.476 -0.156 -0.476 -0.156 -1.242 -0.485l-0.25 -0.75 -0.5 -0.25c0.085 -2.197 0.223 -4.172 1 -6.25h-0.5c-0.102 -3.202 -0.102 -3.202 0.5 -4.25 0.86 -0.484 0.86 -0.484 1.75 -0.75l0.75 0.25 0.25 -0.75c1.032 0.152 1.833 0.509 2.75 1v-0.5l-0.453 -0.109c-0.438 -0.113 -0.869 -0.248 -1.297 -0.391v-0.75l-1 -0.25v-1l-1.25 -0.25 0.5 -3 -0.5 0.25 -0.25 0.75c-0.701 0.221 -0.701 0.221 -1.665 0.405l-0.539 0.106q-0.59 0.116 -1.181 0.228c-1.1 0.209 -2.198 0.429 -3.297 0.648l-0.727 0.143c-2.889 0.573 -5.77 1.188 -8.65 1.805q-1.328 0.284 -2.657 0.567c-3.125 0.667 -6.239 1.369 -9.341 2.139l-0.741 0.182 -0.651 0.162C94 107.25 94 107.25 93.25 107.25c-0.336 -0.368 -0.336 -0.368 -0.679 -0.89l-0.391 -0.584 -0.415 -0.636a1128.25 1128.25 0 0 0 -0.875 -1.31l-0.448 -0.673c-0.667 -0.992 -1.359 -1.965 -2.052 -2.939C85.5 96.138 85.5 96.138 85.5 95.5c0.573 -0.573 0.767 -0.594 1.546 -0.713l0.662 -0.104 0.725 -0.108 0.755 -0.118q0.809 -0.126 1.619 -0.249c1.442 -0.22 2.883 -0.448 4.324 -0.674l0.88 -0.138c2.439 -0.384 4.871 -0.804 7.302 -1.24 4.291 -0.766 8.591 -1.47 12.894 -2.165l1.572 -0.254q1.481 -0.24 2.962 -0.477l0.896 -0.145c1.535 -0.245 3.066 -0.458 4.613 -0.615l-0.035 -0.767q-0.014 -0.507 -0.028 -1.014l-0.025 -0.504c-0.025 -1.284 0.296 -1.971 1.088 -2.965z" fill="#a07b69"/><path d="M126.75 120.5h0.25v38.25c-1.688 -0.563 -1.688 -0.563 -2.412 -0.932l-0.464 -0.234 -0.468 -0.24 -0.485 -0.246A340.5 340.5 0 0 1 122 156.5v-0.5l-0.432 -0.102c-0.564 -0.146 -1.11 -0.32 -1.662 -0.507l-0.552 -0.186L118.75 155l-0.663 -0.2c-0.994 -0.356 -1.901 -0.814 -2.835 -1.302l-0.585 -0.302q-0.621 -0.321 -1.242 -0.643c-1.091 -0.566 -2.183 -1.129 -3.276 -1.692l-0.67 -0.345c-2.188 -1.127 -4.386 -2.231 -6.589 -3.329l-0.528 -0.263A2111.75 2111.75 0 0 0 99.5 145.5v-0.5l-2.5 -1.25v-0.5l-0.64 -0.203c-0.886 -0.306 -1.748 -0.678 -2.61 -1.047v-16.25c1.605 0.535 2.958 1.071 4.414 1.87q0.627 0.337 1.255 0.672l0.658 0.352c1.843 0.974 3.715 1.895 5.58 2.825q1.087 0.543 2.173 1.087 1.676 0.839 3.357 1.666 0.524 0.258 1.046 0.518c0.387 0.192 0.775 0.38 1.165 0.567l0.591 0.287c0.617 0.188 0.918 0.15 1.51 -0.095 0.54 -0.644 0.54 -0.644 1.047 -1.453q0.299 -0.449 0.6 -0.897l0.305 -0.459c1.335 -1.972 2.847 -3.818 4.343 -5.668 1.532 -1.908 2.965 -3.889 4.402 -5.867C126.5 120.75 126.5 120.75 126.75 120.5" fill="#503b41"/><path d="M165.5 108.75c0.448 0.328 0.448 0.328 0.906 0.75l0.522 0.474L167.5 110.5l1.297 1.156q0.602 0.546 1.203 1.094l0.436 0.395c0.345 0.324 0.345 0.324 0.814 0.856v0.75l0.407 0.158c0.821 0.473 1.426 1.133 2.077 1.81 0.721 0.745 1.418 1.455 2.236 2.096L176.5 119.25v0.5c-7.808 3.229 -15.649 6.377 -23.5 9.5l-0.702 0.28a1795 1795 0 0 1 -3.555 1.41l-0.99 0.392A282.25 282.25 0 0 1 144.75 132.5l-0.468 0.183a135.5 135.5 0 0 1 -1.422 0.543l-0.845 0.323c-0.809 0.212 -1.229 0.214 -2.015 -0.049 -1.605 -1.291 -2.9 -2.951 -4.18 -4.554 -0.585 -0.714 -1.195 -1.393 -1.82 -2.071 -1.224 -1.332 -2.367 -2.716 -3.5 -4.125l-0.585 -0.702 -0.555 -0.673 -0.501 -0.602C128.5 120.25 128.5 120.25 128.5 119.5l0.608 -0.175c3.745 -1.077 7.486 -2.168 11.208 -3.324A441.5 441.5 0 0 1 145.264 114.5c3.781 -1.125 7.548 -2.292 11.314 -3.469l0.802 -0.251a3409.5 3409.5 0 0 0 2.977 -0.931l0.655 -0.205 0.626 -0.196a38.75 38.75 0 0 0 1.237 -0.424c0.198 -0.071 0.395 -0.142 0.599 -0.215l0.527 -0.198c0.591 -0.132 0.932 -0.063 1.499 0.139" fill="#a17b69"/><path d="M164.75 128.25q0.044 2.768 0.065 5.535c0.006 0.857 0.015 1.714 0.029 2.57 0.016 0.985 0.022 1.97 0.028 2.954l0.019 0.933 0.001 0.864 0.008 0.762C164.75 142.5 164.75 142.5 164.148 142.962 163.5 143.25 163.5 143.25 163 143.25v0.5c-4.938 2.321 -9.928 4.519 -14.928 6.703q-1.923 0.84 -3.843 1.688l-0.885 0.391q-0.789 0.349 -1.577 0.698l-0.687 0.303 -0.584 0.258C139.791 154.089 139.273 154.25 138.5 154.25c-0.87 0.076 -1.367 0.14 -2.048 0.703 -0.855 0.665 -1.727 1.061 -2.718 1.484l-0.536 0.239C132.314 157.06 131.728 157.25 130.75 157.25l-0.75 0.5c-0.912 0.349 -1.511 0.5 -2.5 0.5v-17.5l1.75 -0.25 0.75 -0.5c0.486 -0.059 0.486 -0.059 1.031 -0.078 1.162 -0.103 1.906 -0.51 2.892 -1.107 0.782 -0.426 1.579 -0.63 2.434 -0.864 0.671 -0.209 1.275 -0.476 1.909 -0.778 1.123 -0.529 2.265 -0.968 3.437 -1.376l0.562 -0.197c1.804 -0.629 3.618 -1.227 5.432 -1.823 2.548 -0.838 5.09 -1.685 7.607 -2.611l0.56 -0.206q1.314 -0.484 2.624 -0.979C163.109 128.25 163.109 128.25 164.75 128.25" fill="#7a504e"/><path d="m93.5 107.5 0.538 0.217c4.824 1.915 9.753 3.579 14.654 5.282a1972 1972 0 0 1 10.901 3.828l0.798 0.282q1.12 0.396 2.239 0.793l0.672 0.238c0.99 0.352 1.975 0.708 2.947 1.109 -0.408 2.365 -2.998 4.705 -4.482 6.545a189 189 0 0 0 -1.793 2.262c-0.45 0.575 -0.902 1.148 -1.355 1.721a177.75 177.75 0 0 0 -0.786 1.009 248.75 248.75 0 0 1 -1.303 1.665l-0.406 0.53 -0.389 0.49 -0.34 0.436c-0.546 0.468 -0.932 0.543 -1.647 0.59 -0.602 -0.203 -0.602 -0.203 -1.232 -0.535l-0.73 -0.375 -0.757 -0.403a168 168 0 0 0 -5.751 -2.864c-3.943 -1.873 -7.845 -3.832 -11.749 -5.785a2328.75 2328.75 0 0 0 -3.274 -1.633q-1.274 -0.635 -2.547 -1.272 -0.604 -0.302 -1.208 -0.603 -0.84 -0.418 -1.678 -0.839l-0.495 -0.245c-0.999 -0.502 -1.912 -1.061 -2.829 -1.697 0.017 -0.686 0.142 -1.127 0.598 -1.646 0.471 -0.436 0.955 -0.85 1.449 -1.26l0.5 -0.433c0.718 -0.61 1.367 -1.117 2.212 -1.539 0.985 -0.494 1.722 -1.169 2.537 -1.902q0.493 -0.436 0.988 -0.872l0.491 -0.433c1.051 -0.916 2.138 -1.79 3.224 -2.663" fill="#a07a69"/><path d="M126.75 90.75c0.423 0.762 0.624 1.457 0.781 2.313l0.127 0.676L127.75 94.25l0.465 -0.147c0.535 -0.102 0.535 -0.102 1.097 0.257L129.75 94.75l-0.859 0.344c-0.902 0.299 -0.902 0.299 -1.141 0.906l0.813 -0.266c0.938 -0.234 0.938 -0.234 1.406 -0.117 0.689 0.172 1.264 0.099 1.969 0.024l0.746 -0.077L133.25 95.5l-0.75 1 0.75 0.25 -0.25 1h-0.5l0.25 1.75c1.002 0.045 1.002 0.045 2 0l0.5 -0.5c0.006 -0.555 0.006 -0.555 -0.094 -1.156l-0.084 -0.619L135 96.75c0.75 0.25 0.75 0.25 1.172 1.016L136.5 98.5l-0.25 -2.25 0.75 -0.25c1.003 -1.513 1.544 -3.258 2 -5 0.705 0.858 0.964 1.611 1.24 2.671 0.238 0.641 0.238 0.641 0.916 1.139 0.637 0.74 0.676 0.817 0.635 1.724q-0.058 0.57 -0.135 1.137A21.25 21.25 0 0 0 141.5 99.75c1.06 0.707 2.005 0.637 3.25 0.5 0.759 -0.328 0.759 -0.328 1.25 -0.75v0.75l2 0.25 0.078 0.453c0.194 0.618 0.44 0.877 0.922 1.297l-0.25 0.25 0.5 0.25v0.5l0.75 0.25v0.5h-1.5l0.25 1 -1.5 0.25v0.75l-3.25 1 0.831 -0.228q0.545 -0.144 1.091 -0.288l0.546 -0.151c1.012 -0.264 1.752 -0.406 2.782 -0.084 0.25 1.188 0.25 1.188 0.25 1.75l0.266 0.484C150 109 150 109 149.75 109.75l-0.5 -0.25 0.375 0.813c0.442 0.958 0.465 1.667 0.125 2.688a18.5 18.5 0 0 1 -1.86 0.624l-0.59 0.174c-0.646 0.19 -1.293 0.376 -1.94 0.561q-0.672 0.197 -1.343 0.394 -1.408 0.413 -2.817 0.824c-2.129 0.621 -4.253 1.258 -6.378 1.896q-0.989 0.296 -1.978 0.591l-1.208 0.361 -0.559 0.166C130.143 118.868 130.143 118.868 129.25 119.25c-1.694 0.293 -3.18 -0.152 -4.766 -0.703l-0.578 -0.198c-0.478 -0.175 -0.944 -0.385 -1.407 -0.6l-0.25 -0.75 -0.5 -0.25c0.085 -2.197 0.223 -4.172 1 -6.25h-0.5c-0.102 -3.202 -0.102 -3.202 0.5 -4.25 0.86 -0.484 0.86 -0.484 1.75 -0.75l0.75 0.25 0.25 -0.75c1.032 0.152 1.833 0.509 2.75 1v-0.5l-0.453 -0.109c-0.438 -0.113 -0.869 -0.248 -1.297 -0.391v-0.75l-1 -0.25v-1l-1.25 -0.25 0.5 -3 -0.5 -0.25 0.422 -0.563c1.34 -2 2.118 -4.233 2.094 -6.625l-0.007 -0.887z" fill="#a9a5b9"/><path d="M85.891 95.234 86.5 95.25l-1 0.25c1.908 2.89 3.836 5.763 5.845 8.584l0.327 0.46a85.25 85.25 0 0 0 0.69 0.946C93.25 106.698 93.25 106.698 93.25 107.25q0.938 -0.218 1.875 -0.438l0.512 -0.119a168.75 168.75 0 0 0 3.211 -0.786c2.481 -0.63 4.976 -1.173 7.48 -1.704l1.359 -0.29c4.317 -0.919 8.637 -1.824 12.959 -2.726l0.592 -0.123c0.92 -0.192 1.841 -0.382 2.763 -0.564l0.25 -1 0.5 0.25 -0.25 3 1 0.25v0.5l0.5 0.25 -0.25 0.25 0.75 0.25v0.75l0.453 0.11c0.437 0.113 0.869 0.247 1.297 0.391v0.5l-0.672 -0.234A15.5 15.5 0 0 0 125.5 105.25l-0.25 0.5a25 25 0 0 1 -1.5 0.25l-1 0.25 -0.5 4.25h0.5l-0.092 0.415c-0.409 1.933 -0.662 3.876 -0.908 5.835l0.75 0.25v0.5c-2.009 -0.377 -3.858 -1.057 -5.766 -1.781l-0.945 -0.354Q114.644 114.934 113.5 114.5l0.25 -1 -0.5 0.75c-2.054 -0.42 -2.054 -0.42 -2.906 -0.765 -0.609 -0.269 -0.609 -0.269 -1.367 -0.328 -1.127 -0.18 -2.132 -0.512 -3.204 -0.894l-0.638 -0.224q-0.667 -0.234 -1.334 -0.471a475.25 475.25 0 0 0 -2.002 -0.705c-2.3 -0.808 -4.579 -1.653 -6.835 -2.575A25 25 0 0 0 93.5 107.75c-0.614 0.386 -0.614 0.386 -1.25 0.953l-0.736 0.625a132.75 132.75 0 0 0 -2.887 2.606c-0.608 0.548 -1.233 1.061 -1.877 1.565l-0.5 -0.25c1.603 -1.486 3.22 -2.906 4.946 -4.248 0.544 -0.493 0.753 -0.849 1.054 -1.502 -2.027 -2.989 -4.063 -5.97 -6.152 -8.916l-0.315 -0.444a24.75 24.75 0 0 0 -0.744 -0.963C84.75 96.75 84.75 96.75 84.813 96.078c0.267 -0.824 0.267 -0.824 1.078 -0.844" fill="#654b4d"/><path d="M149.5 91.5c0.518 0.071 1.034 0.165 1.547 0.266l0.52 0.101c0.644 0.126 1.288 0.255 1.933 0.383l1.724 0.341c5.776 1.146 11.54 2.33 17.276 3.659 -0.488 1.222 -1.042 2.257 -1.792 3.347l-0.302 0.442a351.75 351.75 0 0 1 -0.953 1.383l-0.625 0.911q-0.463 0.675 -0.926 1.349C166.92 105.112 165.958 106.554 165 108c-2.039 -0.106 -3.893 -0.591 -5.844 -1.172l-0.923 -0.27c-0.912 -0.267 -1.823 -0.537 -2.733 -0.808l-0.811 -0.241A682.75 682.75 0 0 1 150.5 104.25q0.117 -0.594 0.234 -1.188l0.132 -0.668a22 22 0 0 1 0.281 -1.197c0.13 -0.567 0.016 -0.891 -0.147 -1.447l-0.078 -0.672c-0.15 -0.722 -0.338 -1.244 -0.641 -1.906 -0.872 -1.904 -1.481 -3.321 -1.031 -5.422z" fill="#9d7766"/><path d="M148 166h4.25a929.5 929.5 0 0 1 1.502 2.68 72.75 72.75 0 0 1 2.209 4.298c0.245 0.559 0.245 0.559 0.789 0.772l0.173 -0.602c0.419 -1.151 0.981 -2.196 1.562 -3.273q0.332 -0.621 0.663 -1.242c0.098 -0.181 0.195 -0.363 0.296 -0.55 0.362 -0.689 0.709 -1.387 1.057 -2.083h4.5v14.5h-3.5l-0.25 -9c-1.059 2.045 -1.059 2.045 -2.117 4.091l-0.398 0.767 -0.408 0.789C158 177.75 158 177.75 157.75 178a23 23 0 0 1 -1.266 0.016l-0.697 -0.007L155.25 178a919 919 0 0 1 -1.047 -1.844l-0.293 -0.515c-0.77 -1.363 -1.457 -2.736 -2.16 -4.141l-0.25 9h-3.5z" fill="#050505"/><path d="M139 91c0.705 0.858 0.964 1.611 1.24 2.671 0.238 0.641 0.238 0.641 0.916 1.139 0.637 0.74 0.676 0.817 0.635 1.724q-0.058 0.57 -0.135 1.137A21.25 21.25 0 0 0 141.5 99.75c1.06 0.707 2.005 0.637 3.25 0.5 0.759 -0.328 0.759 -0.328 1.25 -0.75v0.75l2 0.25 0.078 0.453c0.194 0.618 0.44 0.877 0.922 1.297l-0.25 0.25 0.5 0.25v0.5l0.75 0.25v0.5h-1.5l0.25 1 -1.5 0.25v0.75c-0.57 0.285 -0.974 0.314 -1.607 0.366l-0.665 0.059q-0.693 0.059 -1.387 0.115l-0.667 0.06 -0.609 0.051c-0.57 0.07 -0.57 0.07 -1.05 0.355 -0.67 0.317 -1.186 0.3 -1.925 0.292l-0.81 -0.005 -0.842 -0.013 -0.854 -0.007q-1.042 -0.009 -2.084 -0.025v-0.5l-0.75 0.25c-0.583 0.01 -1.167 0.011 -1.75 0l0.25 -0.5 -0.567 -0.028 -0.746 -0.05 -0.738 -0.044c-0.773 -0.141 -1.146 -0.324 -1.699 -0.878v-0.75h-1.5l0.5 -0.25 -0.25 -0.5 -0.75 -0.25v-0.5l-0.75 -0.25c0.25 -0.75 0.25 -0.75 1 -1.25 0.672 -0.031 0.672 -0.031 1.25 0v-1l0.613 -0.037 0.809 -0.057 0.8 -0.052c0.755 -0.101 1.327 -0.321 2.028 -0.604l0.5 0.25c1.273 0.096 1.954 -0.024 3 -0.75l0.75 -0.25c0.053 -1.117 -0.102 -1.956 -0.5 -3l0.75 -0.25c1.003 -1.513 1.544 -3.258 2 -5" fill="#f6f5ee"/><path d="m148.25 106 1 0.25c0.216 1.028 0.25 1.952 0.25 3l-1.25 0.25 -0.5 -1.25 -0.5 0.75 -0.25 -0.25 -0.5 1.75 -0.5 -0.25v-0.5h-0.5l0.063 0.813C145.5 111.5 145.5 111.5 145 112.109L144.5 112.5l-0.25 -0.5 -0.109 0.688c-0.578 1.201 -1.439 1.367 -2.641 1.813q-0.454 0.217 -0.906 0.438c-0.943 0.349 -1.596 0.425 -2.594 0.313 -0.609 -0.375 -0.609 -0.375 -1 -0.75l0.25 0.5 0.25 0.75h-1c-0.572 -0.736 -0.955 -1.365 -1.25 -2.25l-0.5 0.5 -0.75 -0.25c-0.297 -0.64 -0.297 -0.64 -0.5 -1.25 0.329 1.497 1.153 2.259 2.25 3.25 -0.961 0.64 -1.938 0.93 -3.031 1.281l-0.619 0.21c-1.643 0.528 -3.216 0.895 -4.848 0.181L126.641 117c-0.757 -0.574 -0.757 -0.574 -1.641 -0.75l-0.25 -1.25h-0.25v-2.25h-0.75c0.133 -1.131 0.568 -1.847 1.25 -2.75l0.75 -0.5v1h0.5a21.25 21.25 0 0 0 0.5 -1.75h-1l-0.5 0.75h-0.5v0.5h-0.5v-1.5l0.75 -0.25 0.5 0.25v-0.5h2c0.281 0.938 0.281 0.938 0 1.5a30.25 30.25 0 0 0 -0.141 1.281l-0.064 0.69L127.25 112l1.5 0.25q0.142 -0.873 0.25 -1.75l-0.25 -0.25c-0.544 -1.662 -0.544 -1.662 -0.25 -2.25 0.819 -0.074 1.248 -0.001 2 0.359 1.325 0.625 2.811 0.578 4.25 0.64l0.193 0.721c0.226 0.78 0.226 0.78 0.739 1.09l0.474 0.158L137 111.25v-0.5h1.25v1h0.5v0.5h0.5v-0.75h0.5l0.25 -1 -0.5 0.25v-0.5h-0.5l-0.25 1v-1.75c1.956 -0.574 3.711 -0.858 5.75 -0.75l0.25 -1 1.5 0.25v-0.75l0.61 -0.094L147.5 107l0.25 -0.5h0.5z" fill="#f3f3ed"/><path d="M149.75 84.25c1.067 2.134 0.05 5.627 -0.365 7.874 -0.299 1.916 0.359 3.327 1.146 5.048 0.395 0.864 0.613 1.627 0.719 2.578l0.188 0.703c0.088 1.129 -0.286 2.004 -0.688 3.047l-0.25 0.75 0.891 0.188c2.309 0.517 4.585 1.157 6.855 1.823l0.943 0.275q0.941 0.275 1.88 0.555l0.885 0.258 0.792 0.234c0.804 0.179 1.435 0.279 2.253 0.168 0.469 -0.461 0.469 -0.461 0.799 -1.125l0.444 -0.762 0.242 -0.42c0.489 -0.817 1.036 -1.596 1.575 -2.38l0.698 -1.022q0.537 -0.787 1.076 -1.573 0.528 -0.772 1.054 -1.545l0.328 -0.476c0.44 -0.646 0.785 -1.2 1.034 -1.946l0.75 0.25c-0.137 1.145 -0.593 1.856 -1.243 2.798l-0.304 0.444c-0.321 0.468 -0.644 0.933 -0.969 1.399l-0.632 0.918q-0.469 0.682 -0.939 1.363C167.058 106.248 167.058 106.248 165.5 109l-0.406 -0.152c-0.807 -0.133 -1.323 0.075 -2.097 0.337l-0.921 0.305 -0.491 0.167c-0.873 0.296 -1.749 0.583 -2.624 0.871l-0.552 0.182c-1.929 0.634 -3.87 1.223 -5.814 1.806l-2.595 0.781c-1.706 0.514 -3.407 1.046 -5.108 1.579 -3.086 0.965 -6.185 1.882 -9.289 2.785l-1.027 0.299 -0.491 0.143a62.5 62.5 0 0 0 -2.656 0.843c-0.803 0.265 -1.345 0.386 -2.177 0.305 0.636 -0.636 1.154 -0.741 2.016 -1l0.471 -0.143q0.774 -0.234 1.548 -0.465l1.083 -0.327q1.43 -0.431 2.861 -0.859 1.153 -0.346 2.305 -0.694 1.391 -0.42 2.782 -0.838l0.523 -0.158A442.25 442.25 0 0 1 149.75 112.75l-0.125 -0.688C149.5 111.25 149.5 111.25 149.5 110.25l-0.25 -0.75h0.5c-0.326 -1.02 -0.326 -1.02 -0.75 -2h0.5l-0.5 -1.25c-1.087 0.121 -2.089 0.336 -3.14 0.641 -0.983 0.279 -1.829 0.443 -2.86 0.359 1.435 -0.744 2.647 -1.087 4.25 -1.25v-0.75l1.5 -0.25 -0.25 -1h1.5l-0.5 -1h1.25v-0.5l-1 -0.25 0.141 -0.453c0.165 -0.588 0.165 -0.588 -0.141 -1.297l0.75 0.25v0.5h0.5l-0.25 -1.5h-1.5l-0.219 -0.828c-0.236 -0.932 -0.236 -0.932 -0.781 -1.672 -0.031 -0.797 -0.031 -0.797 0 -1.5h0.5v-1.75l-0.5 -0.25 0.5 -0.75 -0.578 -0.188c-0.731 -0.34 -0.997 -0.641 -1.422 -1.313l0.25 -0.5 1.5 1.25c1.308 -1.308 0.909 -5.635 1 -7.5 -1.101 0.628 -1.101 0.628 -2 1.5l-0.087 0.474c-0.212 0.683 -0.522 0.888 -1.085 1.323 -1.113 0.923 -1.839 1.969 -2.578 3.203 -0.375 -0.344 -0.375 -0.344 -0.75 -0.75v-0.5l-0.75 0.25v-1.5l-2 -0.25v-0.25l0.432 0.097c1.202 0.147 1.857 0.05 2.869 -0.656 0.703 -0.598 1.377 -1.226 2.057 -1.849 1.224 -1.069 2.486 -2.147 4.141 -1.592" fill="#654b4c"/><path d="m86.669 165.927 0.701 0.003c0.736 0.004 1.472 0.013 2.208 0.023q0.75 0.006 1.5 0.011 1.836 0.013 3.671 0.036v3l-9 0.25 -0.25 1.75c0.444 0.444 1.097 0.293 1.698 0.302 0.297 0.007 0.594 0.015 0.9 0.022q0.941 0.019 1.883 0.033l0.905 0.023 0.828 0.015c1.059 0.141 1.912 0.505 2.697 1.238 0.958 1.253 1.137 1.843 1.167 3.429l0.028 0.988c-0.127 1.129 -0.349 1.605 -1.107 2.449 -1.449 0.999 -2.772 1.138 -4.492 1.097 -0.23 -0.001 -0.461 -0.003 -0.698 -0.004a220.5 220.5 0 0 1 -2.185 -0.031q-0.745 -0.007 -1.49 -0.014A451.5 451.5 0 0 1 82 180.5v-3l0.837 -0.011c1.024 -0.015 2.049 -0.034 3.074 -0.054q0.665 -0.013 1.331 -0.021c0.637 -0.009 1.274 -0.021 1.912 -0.035l0.602 -0.005c0.75 -0.02 1.353 -0.044 2.017 -0.412 0.345 -0.698 0.158 -1.226 -0.022 -1.961l-0.565 -0.011c-0.854 -0.019 -1.707 -0.043 -2.56 -0.067l-0.889 -0.017c-3.716 -0.115 -3.716 -0.115 -5.08 -1.514 -0.984 -1.552 -1.137 -2.803 -0.906 -4.641 0.927 -2.411 2.513 -2.865 4.919 -2.823" fill="#050504"/><path d="M98.75 166h3.5v5.5h7v-5.5h3.5v14.5h-3.5v-5.75h-7v5.75h-3.5z" fill="#040404"/><path d="M123.5 166h3.75v5.75h2c0.058 -0.132 0.115 -0.264 0.175 -0.401 0.43 -0.793 0.974 -1.485 1.528 -2.193l0.323 -0.418q0.323 -0.416 0.654 -0.826c0.326 -0.406 0.326 -0.406 0.598 -0.847 0.412 -0.603 0.765 -1.019 1.492 -1.183 0.61 -0.03 1.199 -0.014 1.808 0.024l0.633 0.021c0.513 0.018 1.026 0.044 1.538 0.073 -0.821 1.14 -1.676 2.213 -2.625 3.25 -0.693 0.764 -1.382 1.527 -2.031 2.328l-0.369 0.45c-0.316 0.663 -0.171 1.023 0.025 1.722 0.315 0.513 0.315 0.513 0.729 0.982l0.452 0.541 0.475 0.555 0.458 0.546c0.621 0.739 1.247 1.471 1.891 2.189l0.485 0.541 0.442 0.485C138.25 180 138.25 180 138.25 180.5c-3.667 0.593 -3.667 0.593 -5.012 -0.364 -1.215 -1.21 -2.181 -2.666 -3.033 -4.149 -0.32 -0.55 -0.32 -0.55 -0.955 -1.236l-2 -0.25v6h-3.75z" fill="#080808"/><path d="M149.5 84.75c0.056 2.433 0.107 4.872 -0.5 7.25l-0.5 0.5 -1.5 -1.25c0.47 0.893 0.792 1.387 1.75 1.75v1l0.141 0.656C149 95.25 149 95.25 148.75 95.75h-0.5c0.251 0.948 0.453 1.679 1 2.5 0.031 0.797 0.031 0.797 0 1.5l0.75 -0.25 0.75 0.25 0.25 1.5c-0.5 0 -0.5 0 -0.906 -0.375L149.75 100.5v0.5l0.5 0.25 -0.25 1 0.75 0.25v0.5l-1.5 0.25v-0.5l-1 -0.5 0.5 -0.25 -0.75 -0.5v-1l-0.703 0.047C146.5 100.5 146.5 100.5 146.031 100.125L145.75 99.75l-0.422 0.369c-0.673 0.443 -1.031 0.482 -1.828 0.474l-0.64 0.006c-0.737 -0.12 -1.083 -0.324 -1.609 -0.85 -0.078 -0.909 -0.064 -1.677 0.113 -2.569 0.233 -1.113 0.233 -1.113 -0.153 -2.133a30.75 30.75 0 0 0 -0.817 -0.838c-0.669 -0.783 -0.888 -1.728 -1.143 -2.71 -0.526 0.991 -0.866 2.026 -1.226 3.086 -0.338 0.816 -0.676 1.484 -1.478 1.899 -0.819 0.023 -1.343 -0.338 -2.047 -0.735l-1 -0.5 3 -0.25v-4h0.5l0.5 1.25h0.5l0.25 -4 2 -0.25v0.5l2 0.25 0.25 1.25 1 -0.25 0.25 1.25 0.258 -0.431c0.808 -1.287 1.629 -2.239 2.833 -3.168 0.478 -0.469 0.523 -0.759 0.659 -1.401 1.079 -1.25 1.079 -1.25 2 -1.25" fill="#a4785b"/><path d="M127.5 83c1.744 0.224 3.096 1.204 4.166 2.572 1.353 1.71 1.353 1.71 3.292 2.575 1.686 0.136 3.362 0.035 5.042 -0.147v0.25h-1.75l0.009 0.748 0.007 0.971 0.009 0.967C138.25 91.75 138.25 91.75 138 92.25h-0.5l-0.5 -1.25h-0.5l0.141 0.875c0.14 1.091 0.033 2.042 -0.141 3.125l-2 0.5 0.703 0.313c1.172 0.643 1.172 0.643 1.547 1.438 -0.078 0.938 -0.078 0.938 -0.25 1.75 -0.257 -0.513 -0.511 -1.025 -0.75 -1.547 -0.218 -0.496 -0.218 -0.496 -0.75 -0.703l0.25 0.422c0.292 0.675 0.344 1.099 0.25 1.828 -0.281 0.453 -0.281 0.453 -0.75 0.75 -0.917 0.137 -1.331 0.12 -2.094 -0.422 -0.474 -0.675 -0.496 -1.021 -0.406 -1.828h0.75v-0.75l-0.5 -0.25 0.25 -0.75 -0.63 0.064 -0.823 0.077 -0.817 0.079C129.75 96 129.75 96 129 95.75c-0.659 0.099 -0.659 0.099 -1.25 0.25l0.25 -0.75c0.766 -0.297 0.766 -0.297 1.5 -0.5 -0.847 -0.378 -0.847 -0.378 -1.75 -0.5 -0.471 -0.816 -0.623 -1.57 -0.75 -2.5l0.044 0.568c0.088 2.006 -0.288 3.221 -1.294 4.932q-0.278 0.568 -0.547 1.141C124.75 99.25 124.75 99.25 124.25 99.5c0.255 -0.675 0.529 -1.302 0.877 -1.935 1.442 -2.793 1.278 -5.491 1.123 -8.565h-1.75c0.75 -0.5 0.75 -0.5 1.75 -0.5l-0.035 -0.767q-0.014 -0.507 -0.028 -1.014l-0.025 -0.504c-0.025 -1.284 0.296 -1.971 1.088 -2.965z" fill="#5b514a"/><path d="M114 112.5c0.25 0.75 0.25 0.75 0.016 1.297L113.75 114.25c2.414 1.056 4.878 1.952 7.362 2.826 0.671 0.237 1.341 0.478 2.01 0.719q0.651 0.23 1.302 0.459l0.595 0.216c1.405 0.487 2.748 0.689 4.231 0.78l-0.75 0.25c0.617 1.503 1.649 2.573 2.75 3.75l-0.25 0.5 -0.453 -0.5c-0.516 -0.584 -0.516 -0.584 -1.297 -0.5 -0.401 -0.383 -0.401 -0.383 -0.797 -0.875l-0.402 -0.492L127.75 121c-0.323 0.646 -0.281 1.109 -0.282 1.833l-0.002 0.857 0.002 0.945 -0.002 0.992q-0.001 1.35 0 2.7c0.001 0.943 0 1.886 0 2.829q-0.001 2.38 0.001 4.758 0.002 2.743 -0.001 5.486 -0.002 2.358 -0.001 4.716 0.001 1.407 0 2.813 -0.001 1.327 0.001 2.652 0.001 0.713 -0.001 1.425c0.004 1.762 0.089 3.493 0.284 5.244 1.252 -0.391 2.402 -0.756 3.5 -1.5v0.5l0.405 -0.183q0.906 -0.409 1.814 -0.817l0.637 -0.289 0.611 -0.274 0.564 -0.254C135.75 155.25 135.75 155.25 136.25 155.25l0.25 -0.75c0.885 -0.456 1.77 -0.613 2.75 -0.75v0.5a227.75 227.75 0 0 1 -7.999 3.714q-0.469 0.208 -0.935 0.42c-0.441 0.2 -0.885 0.394 -1.329 0.588l-0.777 0.345c-0.884 0.228 -1.159 0.103 -1.959 -0.317l-0.831 -0.401a324 324 0 0 1 -0.932 -0.468l-0.499 -0.25q-0.784 -0.393 -1.566 -0.787l-1.067 -0.535Q120.052 155.905 118.75 155.25v-0.5q0.531 0.171 1.063 0.344l0.598 0.193c0.556 0.201 1.067 0.438 1.59 0.713v0.5l1.5 0.5 3.5 1.75 -0.25 -38 -4 5.25c-1.5 1.906 -1.5 1.906 -2.155 2.736 -1.129 1.449 -2.202 2.937 -3.238 4.453l-0.337 0.486q-0.326 0.472 -0.645 0.948c-0.733 1.056 -0.733 1.056 -1.306 1.341 -0.859 0.053 -1.5 -0.324 -2.247 -0.703l-0.506 -0.248a237.5 237.5 0 0 1 -1.66 -0.826q-0.581 -0.287 -1.163 -0.574a699.75 699.75 0 0 1 -3.099 -1.542 1368.25 1368.25 0 0 0 -1.946 -0.97 2171.5 2171.5 0 0 1 -7.181 -3.591c-1.172 -0.588 -2.345 -1.174 -3.517 -1.76v16.25l2.25 0.75 1 0.5v0.5l0.672 0.203c0.77 0.276 1.393 0.604 2.078 1.047l-0.5 0.25c-0.554 -0.216 -0.554 -0.216 -1.234 -0.559 -0.244 -0.122 -0.489 -0.245 -0.74 -0.372L96.5 143.922l-0.775 -0.388c-1.904 -0.964 -1.904 -0.964 -2.474 -1.534 -0.07 -0.696 -0.07 -0.696 -0.08 -1.594l-0.007 -0.495c-0.008 -0.541 -0.012 -1.082 -0.016 -1.623q-0.007 -0.562 -0.015 -1.124a820.5 820.5 0 0 1 -0.032 -2.962c-0.01 -1.007 -0.023 -2.014 -0.035 -3.021A2311.25 2311.25 0 0 1 93 125.25l-0.623 -0.298q-1.164 -0.558 -2.328 -1.118l-1 -0.48C81.957 119.957 81.957 119.957 80.75 118.75c0.094 -0.656 0.094 -0.656 0.25 -1.25h0.5v0.75l0.489 0.179c1.011 0.427 1.964 0.943 2.931 1.46 2.353 1.248 4.724 2.452 7.107 3.642l1.25 0.625q1.298 0.649 2.596 1.298 1.637 0.818 3.273 1.637c4.355 2.18 8.71 4.355 13.117 6.428a23.75 23.75 0 0 1 1.01 0.513c0.681 0.313 1.029 0.223 1.726 -0.031 0.528 -0.489 0.528 -0.489 1 -1.141l0.587 -0.753 0.319 -0.415c0.5 -0.642 1.018 -1.27 1.535 -1.899a176.25 176.25 0 0 0 3.953 -4.998c0.426 -0.558 0.855 -1.113 1.289 -1.664l0.343 -0.438q0.47 -0.6 0.942 -1.198c0.517 -0.723 0.909 -1.438 1.282 -2.243l-0.473 -0.119c-2.014 -0.526 -3.961 -1.205 -5.917 -1.912q-1.025 -0.368 -2.05 -0.735l-0.519 -0.186a218 218 0 0 0 -3.483 -1.21l-0.909 -0.309a343.5 343.5 0 0 0 -1.708 -0.574l-0.766 -0.26 -0.672 -0.225C109.25 113.5 109.25 113.5 109 113c1.096 0.137 2.029 0.427 3.042 0.845 0.496 0.196 0.496 0.196 1.208 0.155z" fill="#241d1d"/><path d="M147.25 108c0.75 0.25 0.75 0.25 1.047 0.766L148.5 109.25l0.75 -0.5 0.5 -0.25 0.25 1.25 -0.75 -0.25 0.375 0.813c0.442 0.958 0.465 1.667 0.125 2.688a18.5 18.5 0 0 1 -1.86 0.624l-0.59 0.174c-0.646 0.19 -1.293 0.376 -1.94 0.561q-0.672 0.197 -1.343 0.394 -1.408 0.413 -2.817 0.824c-2.129 0.621 -4.253 1.258 -6.378 1.896q-0.989 0.296 -1.978 0.591l-1.208 0.361 -0.559 0.166C130.143 118.868 130.143 118.868 129.25 119.25c-1.585 0.183 -2.862 -0.036 -4.321 -0.659C124.5 118.25 124.5 118.25 124.314 117.711c-0.081 -0.889 -0.091 -1.772 -0.08 -2.664l0.003 -0.525q0.005 -0.636 0.012 -1.272h-0.5v0.75h-0.5v-1.25c1.219 -0.25 1.219 -0.25 1.5 -0.25v2.25h0.25v1.5l0.75 -0.25v0.5l0.422 0.078c0.578 0.172 0.578 0.172 1.125 0.563 1.41 0.721 2.868 0.432 4.321 -0.024a100.25 100.25 0 0 0 1.397 -0.492l0.728 -0.253A178.5 178.5 0 0 0 135.5 115.75l-0.365 -0.347 -0.479 -0.465 -0.474 -0.457c-0.631 -0.703 -0.92 -1.221 -0.963 -2.168L133.25 111.75c0.444 0.666 0.719 1.257 1 2l1 -0.5q0.314 0.483 0.625 0.969l0.351 0.545C136.5 115.25 136.5 115.25 136.5 115.75h1l-1 -1.75h0.5l0.422 0.5c0.551 0.574 0.551 0.574 1.366 0.577 1.101 -0.088 1.926 -0.378 2.931 -0.812l0.512 -0.21c0.82 -0.305 0.82 -0.305 1.52 -0.805 0.058 -0.337 0.103 -0.676 0.141 -1.016L144 111.25l0.75 1c0.574 -0.861 0.635 -1.484 0.75 -2.5h0.5l0.25 0.5 0.5 -1.75 0.5 0.25z" fill="#ada7bb"/><path d="M126.75 90.75c0.423 0.762 0.624 1.457 0.781 2.313l0.127 0.676L127.75 94.25l0.465 -0.147c0.535 -0.102 0.535 -0.102 1.097 0.257L129.75 94.75l-0.859 0.344c-0.902 0.299 -0.902 0.299 -1.141 0.906l0.813 -0.266c0.938 -0.234 0.938 -0.234 1.406 -0.117 0.689 0.172 1.264 0.099 1.969 0.024l0.746 -0.077L133.25 95.5l-0.75 1 0.75 0.25 -0.25 1h-0.5l0.25 1.75c1.002 0.045 1.002 0.045 2 0l0.5 -0.5c0.006 -0.555 0.006 -0.555 -0.094 -1.156l-0.084 -0.619L135 96.75c0.75 0.25 0.75 0.25 1.172 1.016L136.5 98.5l0.5 -0.75v2.25l-0.25 -0.75 -0.578 0.484c-1.062 0.815 -1.864 0.811 -3.172 0.765l-0.563 -0.156L132 100.25l-0.75 0.5c-0.73 0.049 -0.73 0.049 -1.547 0.031l-0.823 -0.014L128.25 100.75v1l-0.688 0.188c-0.839 0.323 -1.232 0.642 -1.813 1.313l0.75 0.25 -0.5 0.25 -0.5 -0.25v-0.5l-1.25 -0.25 0.5 -3 -0.5 -0.25 0.422 -0.563c1.34 -2 2.118 -4.233 2.094 -6.625l-0.007 -0.887z" fill="#b87d51"/><path d="M116.5 165.75h3.5v14.75h-3.5z" fill="#070707"/><path d="M168.75 166h3.5v14.5h-3.5z" fill="#020202"/><path d="M140.75 166h3.5v14.5h-3.5z" fill="#030303"/><path d="m124 99.5 0.75 0.25 -0.25 3 1 0.25v0.5l0.5 0.25 -0.25 0.25 0.75 0.25v0.75l0.453 0.11c0.437 0.113 0.869 0.247 1.297 0.391v0.5l-0.672 -0.234A15.5 15.5 0 0 0 125.5 105.25l-0.25 0.5a25 25 0 0 1 -1.5 0.25l-1 0.25 -0.5 4.25h0.5l-0.092 0.415c-0.409 1.933 -0.662 3.876 -0.908 5.835l0.75 0.25v0.5q-0.524 -0.107 -1.047 -0.219l-0.589 -0.123c-0.649 -0.168 -1.247 -0.398 -1.864 -0.658 -0.027 -1.61 0.009 -3.156 0.25 -4.75h-0.5l0.25 -1.25h-1.25c0.127 -0.542 0.25 -1 0.5 -1.5l-0.5 -0.25 -0.25 -0.5h-0.75c2.055 -2.361 4.914 -3.604 8 -4l-0.359 -0.563c-0.576 -1.012 -0.576 -1.012 -0.641 -1.688 0.234 -0.563 0.234 -0.563 0.5 -1l-1 -0.25 0.75 -0.25z" fill="#544a45"/><path d="m140 88 0.25 0.5c0.474 0.116 0.474 0.116 1.016 0.156L142.25 88.75v1.75h0.5l0.078 0.594c0.116 0.739 0.116 0.739 0.922 1.156 0.414 0.096 0.831 0.182 1.25 0.25v0.5l0.75 -0.25v0.75l0.453 0.047c0.547 0.203 0.547 0.203 0.953 0.688 0.474 1.056 0.656 2.128 0.844 3.265 -1.603 -0.123 -1.603 -0.123 -2.328 -0.75L145.25 96.25c-0.803 -0.402 -1.631 -0.406 -2.5 -0.25 -0.751 0.583 -0.751 0.583 -1.25 1.25l0.094 -0.765c-0.113 -1.181 -0.423 -1.441 -1.21 -2.257 -0.646 -0.804 -0.879 -1.742 -1.134 -2.728 -0.526 0.991 -0.866 2.026 -1.226 3.086 -0.338 0.816 -0.676 1.484 -1.478 1.899 -0.819 0.023 -1.343 -0.338 -2.047 -0.735l-1 -0.5 3 -0.25v-4h0.5l0.5 1.25h0.5l0.25 -4z" fill="#e0975c"/><path d="M128.047 83.391c1.014 0.158 1.744 0.618 2.453 1.359 0.11 0.703 0.11 0.703 0 1.25l-1.5 -0.75 0.411 0.356 0.542 0.472 0.536 0.466c0.436 0.389 0.853 0.787 1.261 1.206v-1.25c0.804 0.352 1.331 0.776 1.938 1.406l0.465 0.478L134.5 88.75l-0.25 0.75c-0.609 0.275 -0.609 0.275 -1.359 0.516 -1.048 0.322 -1.048 0.322 -1.891 0.984l-0.688 0.203c-0.993 0.362 -1.533 0.842 -2.313 1.547 -1.044 -1.952 -1.046 -3.623 -1.047 -5.797l-0.009 -0.838 -0.001 -0.798 -0.003 -0.73c0.083 -0.801 0.319 -1.039 1.107 -1.197" fill="#cc918d"/><path d="M165 124.75c-0.826 0.826 -1.386 1.184 -2.489 1.599l-0.459 0.175q-0.493 0.188 -0.986 0.373a477.5 477.5 0 0 0 -2.658 1.014c-0.181 0.07 -0.363 0.14 -0.55 0.211 -1.753 0.676 -3.485 1.399 -5.218 2.127 -2.471 1.03 -4.951 2.038 -7.451 2.998q-0.527 0.203 -1.054 0.411c-0.488 0.193 -0.979 0.379 -1.47 0.565l-0.848 0.327c-0.955 0.233 -1.616 0.175 -2.568 -0.051 -0.584 -0.538 -0.584 -0.538 -1.094 -1.234 -0.75 -0.985 -1.508 -1.93 -2.344 -2.844 -0.795 -0.873 -1.566 -1.757 -2.313 -2.672l0.25 -0.5c0.75 0 0.75 0 1.418 0.641A80 80 0 0 1 135.938 128.75l0.405 0.449a217 217 0 0 1 2.157 2.441l0.406 0.461c0.291 0.338 0.569 0.688 0.844 1.039 0.507 0.447 0.507 0.447 1.308 0.29 0.89 -0.171 1.673 -0.404 2.521 -0.721l0.925 -0.345 0.997 -0.38 0.517 -0.196c3.651 -1.379 7.259 -2.861 10.863 -4.358A623 623 0 0 1 159.75 126.25l0.627 -0.258c0.621 -0.254 1.244 -0.504 1.867 -0.753l0.577 -0.237c1.343 -0.531 1.343 -0.531 2.179 -0.253" fill="#2a2526"/><path d="M117.5 108c0.406 0.406 0.406 0.406 0.75 1 -0.203 0.813 -0.203 0.813 -0.5 1.5h1.25l-0.25 1.25h0.5c0.284 1.055 0.2 1.882 0.016 2.953l-0.147 0.88L119 116.25c-1.931 -0.36 -3.682 -1.014 -5.5 -1.75l0.469 -1.063 0.264 -0.598A40.25 40.25 0 0 1 115 111.25l0.234 -0.484c0.614 -1.193 1.167 -1.964 2.265 -2.766" fill="#b87249"/><path d="M128.75 83.5c1.51 0.425 2.796 1.595 3.677 2.865 0.709 0.947 1.271 1.552 2.485 1.734 1.699 0.098 3.393 0.024 5.088 -0.099v0.25h-1.75l0.009 0.748 0.007 0.971 0.009 0.967C138.25 91.75 138.25 91.75 138 92.25h-0.5l-0.5 -1.25h-0.5l0.25 2h-0.75l-0.25 -0.5 -0.25 0.5h-0.5l0.25 1c-0.66 -0.6 -1.091 -1.252 -1.547 -2.015l-0.402 -0.665C133 90.75 133 90.75 133 90.25l-1 -0.25 2.25 -0.75c-0.47 -0.94 -0.756 -1.288 -1.531 -1.938l-0.549 -0.465L131.75 86.5l0.25 1.75 -0.5 -0.515c-0.874 -0.876 -1.813 -1.677 -2.75 -2.485l0.5 -0.25c0.531 0.234 0.531 0.234 1 0.5v-0.75a31.25 31.25 0 0 0 -1.5 -1z" fill="#49403a"/><path d="m124.25 105.5 0.75 0.5 -0.234 0.735c-0.311 1.075 -0.42 2.154 -0.516 3.265h0.5v-0.5c0.662 -0.591 1.154 -0.968 2 -1.25 0.172 0.703 0.172 0.703 0.25 1.5 -0.328 0.469 -0.328 0.469 -0.75 0.75h-0.5l-0.25 -0.75c-1.071 1.263 -2.046 2.564 -2.25 4.25h0.5v-0.75h0.5q0.063 0.898 0.125 1.797l0.036 0.51c0.061 0.899 0.103 1.792 0.089 2.693 -0.329 -0.064 -0.657 -0.133 -0.984 -0.203l-0.554 -0.115L122.5 117.75l-0.25 -0.75 -0.5 -0.25c0.085 -2.197 0.223 -4.172 1 -6.25h-0.5c-0.101 -3.157 -0.101 -3.157 0.5 -4.25 0.781 -0.469 0.781 -0.469 1.5 -0.75" fill="#cc8d5d"/><path d="m148 106 0.25 0.5h-0.5l-0.5 1 -1 -0.25v0.75h-1.5l-0.25 0.75 -0.54 0.037c-1.611 0.119 -1.611 0.119 -3.179 0.478 -0.729 0.219 -1.278 0.28 -2.031 0.234l0.25 0.75h1l0.5 0.25c-0.344 0.5 -0.344 0.5 -0.75 1h-0.5v0.75h-0.5v-0.5h-0.5v-1h-1.25v0.5l-0.5 -0.25c-0.114 -0.979 -0.08 -1.387 0.5 -2.203 0.969 -0.706 1.567 -0.737 2.75 -0.797l-0.859 -0.094L138 107.75l-0.25 -0.5 0.621 -0.037 0.817 -0.057 0.808 -0.052c0.731 -0.058 0.731 -0.058 1.238 -0.354 0.762 -0.369 1.488 -0.359 2.328 -0.406l0.957 -0.057L145.25 106.25l-0.25 0.5z" fill="#b5b1c2"/><path d="M124 122.75c0.25 0.75 0.25 0.75 0.092 1.323 -0.423 0.838 -0.97 1.533 -1.56 2.255q-0.371 0.463 -0.742 0.927l-0.391 0.489c-0.679 0.861 -1.336 1.737 -1.992 2.615l-0.369 0.492a112.75 112.75 0 0 0 -1.711 2.347c-1.333 1.854 -1.333 1.854 -2.363 2.267 -1.069 0.053 -1.812 -0.392 -2.749 -0.87l-0.583 -0.287c-0.613 -0.302 -1.224 -0.61 -1.834 -0.917a906.75 906.75 0 0 0 -1.248 -0.618c-1.018 -0.504 -2.034 -1.012 -3.049 -1.523v-0.75c2.185 0.649 4.112 1.671 6.117 2.742 0.257 0.133 0.513 0.266 0.777 0.403l0.698 0.37c0.765 0.274 1.143 0.243 1.907 -0.015 0.528 -0.489 0.528 -0.489 1 -1.141l0.587 -0.753 0.319 -0.415c0.501 -0.642 1.018 -1.27 1.535 -1.9a179.5 179.5 0 0 0 4.029 -5.098A98 98 0 0 1 124 122.75" fill="#2b2326"/><path d="m142.25 91 0.672 0.61c0.674 0.567 1.183 0.811 2.078 0.89v0.5l0.75 -0.25v0.75l0.453 0.047c0.547 0.203 0.547 0.203 0.953 0.688 0.474 1.056 0.656 2.128 0.844 3.265 -1.603 -0.123 -1.603 -0.123 -2.328 -0.75L145.25 96.25c-0.803 -0.402 -1.631 -0.406 -2.5 -0.25 -0.751 0.583 -0.751 0.583 -1.25 1.25l0.094 -0.765c-0.124 -1.301 -0.687 -1.846 -1.594 -2.735l0.25 -0.5 0.5 0.25v0.5h0.5l0.25 0.5c0.547 -0.821 0.588 -1.208 0.656 -2.172l0.057 -0.753z" fill="#dd9e67"/><path d="m129.813 96.234 0.817 0.007L131.25 96.25l0.25 0.5 -0.5 0.75 0.219 0.411 0.281 0.542 0.281 0.536C132 99.5 132 99.5 132 100.25c-0.882 0.588 -1.257 0.553 -2.297 0.531l-0.823 -0.014L128.25 100.75v1l-1.5 0.25v-0.75l0.5 -0.25 -0.5 -0.5v-0.25l-0.141 -0.656c-0.121 -0.933 -0.054 -1.675 0.141 -2.594 0.891 -0.891 1.848 -0.779 3.063 -0.765" fill="#da975e"/><path d="M85.891 95.234 86.5 95.25l-1 0.25c1.908 2.89 3.836 5.763 5.845 8.584l0.327 0.46a85.25 85.25 0 0 0 0.69 0.946C93.25 106.698 93.25 106.698 93.25 107.25h1c-0.25 0.5 -0.25 0.5 -0.802 0.702 -0.862 0.368 -1.441 0.921 -2.104 1.563q-0.394 0.371 -0.79 0.74l-0.403 0.376c-0.625 0.574 -1.266 1.121 -1.917 1.665 -0.219 0.184 -0.439 0.368 -0.665 0.558C87 113.25 87 113.25 86.25 113.25c1.603 -1.486 3.22 -2.906 4.946 -4.248 0.544 -0.493 0.753 -0.849 1.054 -1.502 -2.027 -2.989 -4.063 -5.97 -6.152 -8.916l-0.315 -0.444a24.75 24.75 0 0 0 -0.744 -0.963C84.75 96.75 84.75 96.75 84.813 96.078c0.267 -0.824 0.267 -0.824 1.078 -0.844" fill="#1c1816"/><path d="M147.25 108c0.75 0.25 0.75 0.25 1.047 0.766L148.5 109.25l0.75 -0.5 0.5 -0.25 0.25 1.25 -0.75 -0.25 0.75 1.75h-0.5v0.5l-0.457 0.146 -0.606 0.197 -0.598 0.193c-0.589 0.196 -0.589 0.196 -1.102 0.488C146.25 113 146.25 113 145.25 113l-0.25 0.75 -0.5 -0.25v0.5c-0.395 0.133 -0.791 0.263 -1.188 0.391l-0.668 0.22c-0.664 0.144 -1.012 0.113 -1.645 -0.11l0.538 -0.21 0.696 -0.275 0.695 -0.273c0.552 -0.193 0.552 -0.193 0.821 -0.493 0.058 -0.337 0.103 -0.676 0.141 -1.016L144 111.25l0.75 1c0.574 -0.861 0.635 -1.484 0.75 -2.5h0.5l0.25 0.5 0.5 -1.75 0.5 0.25z" fill="#d3d3db"/><path d="m172.25 96.5 0.75 0.25c-0.137 1.145 -0.593 1.856 -1.243 2.798l-0.304 0.444c-0.321 0.468 -0.644 0.933 -0.969 1.399l-0.632 0.918q-0.469 0.682 -0.939 1.363C167.058 106.248 167.058 106.248 165.5 109l-0.434 -0.144c-0.665 -0.124 -0.983 -0.027 -1.613 0.207l-0.592 0.211L162.25 109.5a102.25 102.25 0 0 1 -1.203 0.438l-0.536 0.199C160 110.25 160 110.25 159 110l4.5 -1.5c-1.337 -0.446 -2.668 -0.885 -4.016 -1.297l-0.853 -0.261L158 106.75v-0.25c1.629 0.13 3.1 0.552 4.658 1.04 0.851 0.212 1.471 0.307 2.342 0.21 0.469 -0.461 0.469 -0.461 0.799 -1.125l0.444 -0.762 0.242 -0.42c0.489 -0.817 1.036 -1.596 1.575 -2.38l0.698 -1.022q0.537 -0.787 1.076 -1.573 0.528 -0.772 1.054 -1.545l0.328 -0.476c0.44 -0.646 0.785 -1.2 1.034 -1.946" fill="#282423"/><path d="m127 95.5 0.25 0.75c0.504 0.183 0.504 0.183 1 0.25l-1.25 0.5a107.75 107.75 0 0 0 -0.141 1.078l-0.079 0.606c-0.067 0.608 -0.067 0.608 0.22 1.315h1.25l-1 0.5 0.75 0.5 -1.25 0.25v1c-0.5 0.563 -0.5 0.563 -1 1l0.75 0.25 -0.5 0.25 -0.5 -0.25v-0.5l-1.25 -0.25 0.5 -3 -0.5 -0.25 0.438 -0.609c0.57 -0.842 0.937 -1.733 1.306 -2.677C126.25 95.75 126.25 95.75 127 95.5" fill="#c5844f"/><path d="M149.5 84.75c0.092 4.177 0.092 4.177 -0.5 6.25h-0.25c-0.046 -3.167 -0.046 -3.167 0.25 -4.5h-0.5l0.141 0.422c0.128 0.678 0.025 1.164 -0.141 1.828h-1.75l0.75 0.5v0.5a22.25 22.25 0 0 0 0.5 1c-1.315 0.079 -2.111 -0.084 -3.25 -0.75 0.303 -1.251 1.085 -1.804 2.056 -2.563 0.502 -0.493 0.556 -0.763 0.694 -1.437 1.079 -1.25 1.079 -1.25 2 -1.25" fill="#b67c6d"/><path d="M148.5 86.5h0.5c0.015 0.906 0.024 1.813 0.031 2.719 0.004 0.258 0.009 0.516 0.013 0.782l0.005 0.747 0.008 0.69C149 92 149 92 148.5 92.5l-1.5 -1.25 0.75 1.5 -1.75 0.5v-1.25l-0.25 0.25h-0.5v-0.5l-0.719 0.141C143.75 92 143.75 92 143.25 91.75c0.308 -0.923 0.802 -1.338 1.5 -2l0.656 0.375c0.871 0.387 1.406 0.442 2.344 0.375l-0.75 -1 0.25 -0.25 -0.75 -0.5c0.822 -0.2 1.177 -0.274 2 0v-0.5l-0.5 -0.25h0.5z" fill="#94725d"/><path d="M171.25 114.25c1.087 0.578 1.89 1.339 2.735 2.219 0.961 0.995 1.939 1.911 3.015 2.781 -0.052 0.587 -0.052 0.587 -0.25 1.25 -0.501 0.344 -0.501 0.344 -1.168 0.613 -0.249 0.102 -0.498 0.206 -0.755 0.312L174 121.75l-0.854 0.356a197.5 197.5 0 0 1 -2.708 1.097l-0.466 0.191c-0.454 0.186 -0.91 0.367 -1.366 0.549l-0.808 0.325c-0.883 0.258 -1.633 0.274 -2.547 0.233 0.659 -0.8 1.423 -1.071 2.376 -1.444l0.483 -0.192c0.51 -0.201 1.02 -0.4 1.531 -0.599l1.01 -0.398q0.976 -0.385 1.954 -0.766c0.983 -0.386 1.96 -0.783 2.936 -1.186C176 119.75 176 119.75 176.5 119.75c-0.169 -0.169 -0.339 -0.338 -0.512 -0.512q-0.806 -0.806 -1.607 -1.617l-0.927 -0.933 -0.476 -0.482 -0.457 -0.459 -0.412 -0.416c-0.354 -0.356 -0.354 -0.356 -0.858 -0.58z" fill="#292626"/><path d="m134.5 88.75 0.75 0.25 0.5 2.75 0.25 -1h0.75v-0.5h0.5v-0.5h0.5l0.5 -0.75q0.01 0.672 0.016 1.344l0.009 0.756C138.25 91.75 138.25 91.75 138 92.25h-0.5l-0.5 -1.25h-0.5l0.25 2h-0.75l-0.25 -0.5 -0.25 0.5h-0.5l0.25 1c-0.66 -0.6 -1.091 -1.252 -1.547 -2.015l-0.402 -0.665C133 90.75 133 90.75 133 90.25l-1 -0.25 0.483 -0.146 0.626 -0.197 0.624 -0.193c0.561 -0.165 0.561 -0.165 0.766 -0.713" fill="#655a53"/><path d="M123.75 111c0.053 1.117 -0.102 1.956 -0.5 3h0.5v-0.75h0.5q0.063 0.898 0.125 1.797l0.036 0.51c0.061 0.899 0.103 1.792 0.089 2.693 -0.329 -0.064 -0.657 -0.133 -0.984 -0.203l-0.554 -0.115L122.5 117.75l-0.25 -0.75 -0.5 -0.25q0.053 -0.898 0.11 -1.797l0.03 -0.51c0.118 -1.862 0.118 -1.862 0.361 -2.693 1.034 -0.75 1.034 -0.75 1.5 -0.75" fill="#938185"/><path d="M132.75 95.75c2.199 -0.154 2.199 -0.154 3.266 0.391 0.628 0.79 0.716 1.359 0.734 2.359l-0.5 0.5 -0.146 -0.429 -0.197 -0.556 -0.193 -0.553c-0.176 -0.509 -0.176 -0.509 -0.713 -0.712l0.25 0.422c0.292 0.675 0.344 1.099 0.25 1.828 -0.281 0.453 -0.281 0.453 -0.75 0.75 -0.917 0.137 -1.331 0.12 -2.094 -0.422 -0.474 -0.675 -0.496 -1.021 -0.406 -1.828h0.75v-0.75l-0.5 -0.25z" fill="#212119"/><path d="m117 109 0.5 0.25v1.5h0.5v0.5l0.5 0.25 -0.75 1.5h0.75l0.25 1.75 -0.5 0.25v-1l-0.64 -0.078c-0.991 -0.198 -1.716 -0.449 -2.61 -0.922 -0.376 -0.641 -0.252 -0.987 -0.125 -1.719 0.499 -1.04 1.217 -1.597 2.125 -2.281" fill="#dd965d"/><path d="M127.5 83q0.628 0.107 1.25 0.25v0.25l-1.5 0.5c-0.022 0.948 -0.035 1.896 -0.047 2.844l-0.019 0.804c-0.016 1.749 0.205 3.212 0.816 4.853l1.5 -1c-0.172 0.594 -0.172 0.594 -0.5 1.25 -0.656 0.328 -0.656 0.328 -1.25 0.5l-0.75 -1.5 0.044 0.568c0.088 2.006 -0.288 3.221 -1.294 4.932q-0.278 0.568 -0.547 1.141C124.75 99.25 124.75 99.25 124.25 99.5c0.255 -0.675 0.529 -1.302 0.877 -1.935 1.442 -2.793 1.278 -5.491 1.123 -8.565h-1.75c0.75 -0.5 0.75 -0.5 1.75 -0.5l-0.035 -0.767q-0.014 -0.507 -0.028 -1.014l-0.025 -0.504c-0.025 -1.284 0.296 -1.971 1.088 -2.965z" fill="#4e3f36"/><path d="M142.75 95.75c1.514 -0.104 2.296 -0.028 3.5 1l0.25 0.75 -0.5 0.75 -0.5 -1.25c-0.006 0.303 -0.006 0.303 0.078 0.813 -0.114 0.998 -0.56 1.323 -1.328 1.938 -0.703 0.203 -0.703 0.203 -1.25 0.25 -0.515 -0.578 -0.515 -0.578 -1 -1.25l0.25 -0.75 0.5 -0.25 0.25 -0.75 -0.5 -0.25z" fill="#2c271e"/><path d="m139 153.75 0.25 0.5a227.75 227.75 0 0 1 -7.999 3.714q-0.469 0.208 -0.935 0.42c-0.441 0.2 -0.885 0.394 -1.329 0.588l-0.777 0.345c-0.884 0.228 -1.159 0.103 -1.959 -0.317l-0.831 -0.401a324 324 0 0 1 -0.932 -0.468l-0.499 -0.25q-0.784 -0.393 -1.566 -0.787l-1.067 -0.535Q120.052 155.905 118.75 155.25v-0.5q0.531 0.171 1.063 0.344l0.598 0.193c0.556 0.201 1.067 0.438 1.59 0.713v0.5l0.627 0.193c0.982 0.345 1.904 0.766 2.842 1.213l0.521 0.246A473.75 473.75 0 0 1 127.25 158.75l0.5 -0.5a16.25 16.25 0 0 1 1.078 -0.359c0.892 -0.282 1.642 -0.613 2.422 -1.141v0.5l0.405 -0.183q0.906 -0.409 1.814 -0.817l0.637 -0.289 0.611 -0.274 0.564 -0.254C135.75 155.25 135.75 155.25 136.25 155.25l0.25 -0.75c0.808 -0.404 1.613 -0.598 2.5 -0.75" fill="#342828"/><path d="M155.75 111.5c-4.862 1.546 -9.732 3.056 -14.627 4.497 -1.846 0.544 -3.688 1.096 -5.524 1.675l-0.512 0.162a371.75 371.75 0 0 0 -2.37 0.756l-0.834 0.265 -0.722 0.233c-0.664 0.164 -1.23 0.194 -1.911 0.163 0.636 -0.636 1.154 -0.741 2.016 -1l0.471 -0.143q0.774 -0.234 1.548 -0.465l1.083 -0.327q1.43 -0.431 2.861 -0.859 1.153 -0.346 2.305 -0.694a3480 3480 0 0 1 4.811 -1.448l0.956 -0.287c0.65 -0.19 1.299 -0.372 1.953 -0.546l0.959 -0.258 0.859 -0.223c0.75 -0.203 0.75 -0.203 1.176 -1.001v0.75l0.397 -0.142c0.596 -0.211 1.193 -0.417 1.79 -0.624l0.625 -0.223 0.606 -0.207 0.555 -0.195c0.595 -0.123 0.956 -0.05 1.526 0.141" fill="#3d302d"/><path d="M138.5 89.25c0.618 0.618 0.677 0.883 0.75 1.75a18.25 18.25 0 0 1 -0.547 1.859l-0.159 0.487c-0.401 1.171 -0.89 2.533 -2.013 3.17 -0.8 -0.024 -1.341 -0.378 -2.031 -0.766l-1 -0.5 3 -0.25v-4h0.5l0.5 1.25h0.5z" fill="#e2aa7c"/><path d="M134 127c1.092 0.86 1.975 1.741 2.844 2.828 1.813 2.524 1.813 2.524 4.406 3.922v0.5c-0.719 0.359 -1.204 0.343 -2 0.25 -0.559 -0.514 -0.559 -0.514 -1.078 -1.219 -0.755 -0.99 -1.519 -1.94 -2.36 -2.859 -0.795 -0.873 -1.566 -1.757 -2.313 -2.672 0.25 -0.5 0.25 -0.5 0.5 -0.75" fill="#45383d"/><path d="M105.5 130.5c2.185 0.649 4.112 1.671 6.117 2.742 0.257 0.133 0.513 0.266 0.777 0.403l0.698 0.37c0.769 0.275 1.139 0.242 1.907 -0.015 0.423 -0.325 0.841 -0.657 1.25 -1h0.5c-0.343 0.999 -0.814 1.7 -1.5 2.5 -1.304 -0.143 -2.296 -0.573 -3.451 -1.149l-0.548 -0.268a396.75 396.75 0 0 1 -1.719 -0.848l-1.172 -0.575A820.25 820.25 0 0 1 105.5 131.25z" fill="#382c31"/><path d="M81 117.5h0.5v0.75l0.563 0.188c0.688 0.313 0.688 0.313 1.108 0.768 0.765 0.72 1.597 1.116 2.536 1.572l0.568 0.282a412.25 412.25 0 0 0 1.788 0.878l1.215 0.601q1.485 0.734 2.973 1.462l-0.25 0.75c-6.012 -2.821 -6.012 -2.821 -8.859 -4.406l-0.564 -0.313c-0.677 -0.384 -1.274 -0.728 -1.827 -1.281 0.094 -0.656 0.094 -0.656 0.25 -1.25" fill="#2f2a31"/><path d="M127.047 107.234 128.25 107.25l0.5 2.75h0.75v0.5h-0.5l0.25 0.75c-0.234 0.547 -0.234 0.547 -0.5 1l-1.5 -0.25a84.25 84.25 0 0 1 -0.031 -1.188l-0.018 -0.668C127.25 109.5 127.25 109.5 127.75 108.5l-2.25 -0.5v0.5h-1.25c0.792 -1.17 1.422 -1.284 2.797 -1.266" fill="#d1cfd5"/><path d="M142.25 91c0.491 0.408 0.731 0.616 0.823 1.261L143 93.75h0.75v0.5a20.75 20.75 0 0 0 1 0.75l0.5 0.5 -0.503 0.066c-1.503 0.239 -2.296 0.48 -3.247 1.685l0.094 -0.765c-0.124 -1.301 -0.687 -1.846 -1.594 -2.735l0.25 -0.5 0.5 0.25v0.5h0.5l0.25 0.5c0.547 -0.821 0.588 -1.208 0.656 -2.172l0.057 -0.753z" fill="#e2a36b"/><path d="m142.25 96.25 0.25 0.5 0.75 0.25c-0.438 0.969 -0.438 0.969 -1 1.25 0.156 0.631 0.156 0.631 0.5 1.25 0.572 0.335 0.572 0.335 1.25 0.25 0.778 -0.588 1.206 -0.938 1.344 -1.922 -0.065 -0.583 -0.065 -0.583 -0.344 -1.078 0.484 0.156 0.484 0.156 1 0.5 0.25 0.688 0.25 0.688 0.25 1.5 -0.753 1.377 -0.753 1.377 -1.5 1.75 -0.56 0.051 -0.56 0.051 -1.219 0.063l-0.654 0.019c-0.759 -0.099 -1.09 -0.291 -1.627 -0.832 -0.153 -1.165 -0.156 -1.889 0.5 -2.875z" fill="#4b4232"/><path d="M125.5 105c1.038 0.152 1.878 0.406 2.75 1 0.219 0.922 0.219 0.922 0.25 1.75h1.5v0.75l-1.75 -0.5v-0.75a203.5 203.5 0 0 0 -1.578 0.219l-0.888 0.123c-0.821 0.114 -0.821 0.114 -1.534 0.658 0.436 -2.399 0.436 -2.399 1.25 -3.25" fill="#a7a3bd"/><path d="m93.5 125.25 1.5 0.5 -0.75 0.25 -0.5 -0.25v16.25l2.25 0.75 1 0.5v0.5l0.672 0.203c0.77 0.276 1.393 0.604 2.078 1.047l-0.5 0.25c-0.557 -0.22 -0.557 -0.22 -1.243 -0.568l-0.744 -0.375 -0.779 -0.401 -0.782 -0.395c-1.911 -0.97 -1.911 -0.97 -2.203 -1.262a34.25 34.25 0 0 1 -0.029 -1.589v-0.502c0 -0.55 0.002 -1.101 0.004 -1.652l0.001 -1.143q0.002 -1.506 0.006 -3.012 0.004 -1.536 0.005 -3.071 0.004 -3.015 0.012 -6.031" fill="#171214"/><path d="M149.25 95c1.15 1.323 1.808 3.022 2 4.75l0.188 0.703c0.088 1.129 -0.286 2.004 -0.688 3.047l-0.25 0.75 0.5 0.25 -1.5 0.25v-0.5h0.5l-0.5 -1.25h1.25v-0.5l-1 -0.25 0.141 -0.453c0.165 -0.588 0.165 -0.588 -0.141 -1.297l0.75 0.25v0.5h0.5l-0.25 -1.5h-1.5l-0.25 -0.75h1l-0.25 -0.75a119.75 119.75 0 0 1 -0.186 -1.498c-0.075 -0.591 -0.186 -1.17 -0.314 -1.752" fill="#3b302e"/><path d="m125.75 102.75 1.25 0.25 -0.25 0.75 1 0.25v0.5l1 0.25v0.75c0.851 0.508 1.581 0.592 2.563 0.656l0.817 0.057L132.75 106.25l-0.25 0.5 1.75 0.25v0.25h-3.5v-0.5l-2.25 -0.25 -0.25 -1 -0.453 -0.109c-0.438 -0.113 -0.869 -0.248 -1.297 -0.391v-0.75l-1 -0.25 0.75 -0.5 -0.5 -0.25z" fill="#9690a7"/><path d="M166.75 105.5c0.188 0.406 0.188 0.406 0.25 1 -0.453 0.75 -0.453 0.75 -1 1.5a21.5 21.5 0 0 0 -0.5 1l-0.434 -0.144c-0.665 -0.124 -0.983 -0.027 -1.613 0.207l-0.592 0.211L162.25 109.5a102.25 102.25 0 0 1 -1.203 0.438l-0.536 0.199C160 110.25 160 110.25 159 110l4.5 -1.5c-1.337 -0.446 -2.668 -0.885 -4.016 -1.297l-0.853 -0.261L158 106.75v-0.25c1.629 0.13 3.1 0.552 4.658 1.04 0.84 0.209 1.483 0.325 2.342 0.21 0.429 -0.417 0.429 -0.417 0.688 -0.984 0.528 -0.999 0.528 -0.999 1.063 -1.266" fill="#372925"/><path d="m148.25 106 1 0.25c0.216 1.028 0.25 1.952 0.25 3l-1.25 0.25 -0.5 -1.25 -0.5 0.75 -0.75 -0.25v-0.5h-2l0.25 -0.5 1.5 0.25v-0.75l0.61 -0.094L147.5 107l0.25 -0.5h0.5z" fill="#d8d8db"/><path d="M127.75 104h1v0.5h1v0.75h1v0.5l0.875 0.078c1.165 0.13 2.316 0.323 3.469 0.531l0.532 0.092c0.854 0.159 1.391 0.309 2.124 0.798h-3v-0.5l-0.75 0.25c-0.583 0.01 -1.167 0.011 -1.75 0l0.25 -0.5 -0.567 -0.028 -0.746 -0.05 -0.738 -0.044c-0.773 -0.141 -1.146 -0.324 -1.699 -0.878v-0.75h-1.5l0.5 -0.25z" fill="#c7c5d3"/><path d="M100.25 145.5c1.974 0.498 3.705 1.298 5.5 2.25v0.5h1v0.5l0.638 0.196c0.921 0.326 1.78 0.732 2.649 1.173l0.498 0.25q0.78 0.393 1.558 0.787l1.063 0.535q1.298 0.653 2.593 1.309c-0.596 0.213 -0.901 0.285 -1.506 0.07l-0.55 -0.303 -0.645 -0.347 -0.705 -0.39a535.25 535.25 0 0 0 -1.535 -0.824l-0.859 -0.46c-1.061 -0.561 -2.136 -1.094 -3.212 -1.627l-0.584 -0.289c-0.776 -0.384 -1.552 -0.767 -2.33 -1.149a486 486 0 0 1 -1.643 -0.81l-0.504 -0.245c-1.149 -0.571 -1.149 -0.571 -1.427 -1.128" fill="#1c181a"/><path d="M135 96.75c0.75 0.25 0.75 0.25 1.172 1.016L136.5 98.5l0.5 -0.75v2.25l-0.25 -0.75 -0.578 0.484c-1.046 0.802 -1.875 0.897 -3.172 0.765 -1.198 -0.768 -1.637 -1.391 -2 -2.75l-0.5 -0.5 1.25 -0.25 0.092 0.474 0.127 0.619 0.123 0.615c0.125 0.588 0.125 0.588 0.658 1.041 0.481 0.025 0.481 0.025 1 -0.063l0.531 -0.067c0.526 -0.093 0.526 -0.093 0.969 -0.621 0.006 -0.555 0.006 -0.555 -0.094 -1.156l-0.084 -0.619z" fill="#615d41"/><path d="M149.25 105.25h-0.5v0.5l1 0.25 0.037 0.457 0.057 0.606c0.018 0.197 0.035 0.395 0.052 0.598 0.074 0.594 0.074 0.594 0.361 1.09 0.292 0.603 0.293 1.022 0.274 1.688l-0.014 0.606L150.5 111.5l-0.25 -0.5h-0.5l-0.5 -1.5h0.5c-0.326 -1.02 -0.326 -1.02 -0.75 -2h0.5l-0.5 -1.25c-1.087 0.121 -2.089 0.336 -3.14 0.641 -0.983 0.279 -1.829 0.443 -2.86 0.359 1.435 -0.744 2.647 -1.087 4.25 -1.25v-0.75c0.763 -0.245 1.237 -0.245 2 0" fill="#484049"/><path d="M146.25 97.75c1.656 -0.063 1.656 -0.063 2.5 0.5 -0.269 0.729 -0.445 1.194 -1 1.75l0.75 0.25v1.5l-0.5 -0.25v-1l-0.719 0.016C146.5 100.5 146.5 100.5 146 100.25c-0.322 -0.723 -0.239 -1.036 -0.015 -1.813z" fill="#d69c6e"/><path d="M117.5 108c0.406 0.406 0.406 0.406 0.75 1 -0.203 0.813 -0.203 0.813 -0.5 1.5h1.25l-0.25 1.25h0.5c0.284 1.055 0.2 1.882 0.016 2.953l-0.147 0.88L119 116.25l-0.75 -0.25h0.5l-0.25 -3h-0.75l0.125 -0.453c0.153 -0.575 0.153 -0.575 0.125 -1.297v-0.5h-0.5v-1c-0.519 -0.306 -0.519 -0.306 -1.25 -0.25v-0.5a26.25 26.25 0 0 1 1.25 -1" fill="#7f6150"/><path d="m147.75 86.75 0.5 0.25 -1 1 0.5 0.25 -1 0.5 0.75 0.5v0.5a22.25 22.25 0 0 0 0.5 1c-1.315 0.079 -2.111 -0.084 -3.25 -0.75 0.34 -1.403 1.407 -2.152 2.5 -3z" fill="#cfcfcf"/><path d="m126.5 108.25 0.5 0.5c-0.031 0.625 -0.031 0.625 -0.25 1.25 -0.515 0.328 -0.515 0.328 -1 0.5l-0.25 -0.75 -0.438 0.563A19.25 19.25 0 0 1 123.5 112l-0.5 -0.5 -0.5 0.75c-0.142 -1.212 0.288 -1.794 1 -2.75l0.438 -0.594L124.25 108.5v1.5h0.5v-0.5c0.561 -0.487 1.084 -0.917 1.75 -1.25" fill="#d2c7c4"/><path d="M128.5 84.75c1.017 0.508 1.935 1.518 2.5 2.5 0.047 0.813 0.047 0.813 0 1.5h-0.75l0.25 0.5h-2l0.25 -1.5 0.75 -0.25 -0.5 -0.672c-0.497 -0.824 -0.609 -1.149 -0.5 -2.078" fill="#856b6f"/><path d="M103.5 111.5a34.75 34.75 0 0 1 4.375 1.188l0.577 0.196q0.597 0.203 1.192 0.408c0.61 0.209 1.222 0.416 1.833 0.622q0.582 0.199 1.163 0.399l0.555 0.186c1.276 0.444 1.276 0.444 1.554 1.001 -1.228 0.077 -2.161 -0.183 -3.281 -0.64a314 314 0 0 0 -1.052 -0.412c-0.186 -0.072 -0.373 -0.145 -0.565 -0.221 -0.645 -0.243 -1.296 -0.468 -1.949 -0.69l-0.683 -0.232a192.5 192.5 0 0 0 -1.329 -0.443l-0.615 -0.209 -0.545 -0.181c-0.534 -0.247 -0.828 -0.55 -1.231 -0.972" fill="#b8947b"/><path d="m125.25 103.25 0.75 0.5 -0.25 0.25 0.75 0.25v0.75l0.453 0.11c0.437 0.113 0.869 0.247 1.297 0.391v0.5l-0.672 -0.234A15.5 15.5 0 0 0 125.5 105.25l-0.25 0.5a25 25 0 0 1 -1.5 0.25c-0.558 0.092 -0.558 0.092 -1 0.25l-0.25 0.5v-0.5l-0.5 -0.25 0.25 -0.5 -0.5 -0.25 3.25 -0.75z" fill="#604f57"/><path d="M148.5 86.5h0.5c0.015 0.906 0.024 1.813 0.031 2.719 0.004 0.258 0.009 0.516 0.013 0.782l0.005 0.747 0.008 0.69C149 92 149 92 148.5 92.5c-0.515 -0.438 -0.515 -0.438 -1 -1a17.5 17.5 0 0 1 0.25 -1c-0.338 -0.562 -0.338 -0.562 -0.75 -1l0.25 -0.25 -0.75 -0.5c0.822 -0.2 1.177 -0.274 2 0v-0.5l-0.5 -0.25h0.5z" fill="#6d5254"/><path d="m147.25 108 0.75 0.25c0.05 0.929 0.038 1.193 -0.5 2l-0.25 0.766C147 111.75 147 111.75 146.5 112.25q-0.622 0.14 -1.25 0.25l-0.5 0.25 0.234 -0.515c0.299 -0.827 0.413 -1.613 0.515 -2.485h0.5l0.25 0.5 0.5 -1.75 0.5 0.25z" fill="#96929d"/><path d="M122.75 113.25h0.25l0.5 2.25 0.75 -0.25c0.159 1.01 0.281 1.977 0.25 3 -0.734 -0.188 -0.734 -0.188 -1.5 -0.5 -0.282 -0.624 -0.25 -1.059 -0.25 -1.75h-0.5c-0.049 -1.055 0.05 -1.792 0.5 -2.75" fill="#938fa4"/><path d="M144.011 87.427 145.5 87.5l-2 3h-0.5v-0.5l-0.75 0.25v-1.5l-2 -0.25v-0.25l0.52 0.026 0.682 0.021 0.677 0.026c0.882 -0.104 1.041 -0.776 1.881 -0.896" fill="#574b44"/><path d="M138.5 100.75h2l0.25 0.75 -0.391 0.297L140 102.25c0.058 0.664 0.058 0.664 0.25 1.25l1.75 0.25 -0.25 0.5c-1.406 0.063 -1.406 0.063 -2.25 -0.5l-0.422 0.391C138.5 104.5 138.5 104.5 137.813 104.422L137.25 104.25v-0.25l0.844 -0.172c0.946 -0.23 0.946 -0.23 1.266 -0.985L139.5 102.25l-1 -0.5z" fill="#4b413b"/><path d="M142.75 95.75c1.514 -0.104 2.296 -0.028 3.5 1l0.25 0.75 -0.5 0.75 -0.5 -1.25c0 0.277 0.033 0.553 0.063 0.828 -0.081 0.871 -0.41 1.121 -1.063 1.672v-2.5h-0.5v-0.75l-0.75 0.5h-0.75z" fill="#30261b"/><path d="M131.75 86.5c0.804 0.352 1.331 0.776 1.938 1.406l0.465 0.478L134.5 88.75l-0.25 0.75c-0.516 0.182 -0.516 0.182 -1.141 0.297l-0.626 0.12L132 90c-0.287 -2.353 -0.287 -2.353 -0.25 -3.5" fill="#cc8b5c"/><path d="M147.5 132c-0.914 0.914 -2.257 1.21 -3.453 1.656l-0.829 0.318 -0.801 0.301 -0.732 0.276c-0.683 0.198 -1.228 0.237 -1.935 0.199 0.938 -0.5 0.938 -0.5 1.5 -0.5v-0.75a196 196 0 0 1 2 -0.75l0.564 -0.217c1.287 -0.47 2.317 -0.608 3.687 -0.533" fill="#242022"/><path d="M129.484 89.578c0.734 0.244 1.223 0.629 1.766 1.172l-0.781 0.297c-0.985 0.417 -1.677 0.989 -2.469 1.703l-0.75 -1.75 1 0.25 0.094 -0.734L128.5 89.75c0.5 -0.25 0.5 -0.25 0.985 -0.172" fill="#978d91"/><path d="M135 97.25c0.5 0.5 0.5 0.5 0.578 1.109C135.5 99 135.5 99 135.219 99.453c-0.697 0.441 -1.161 0.412 -1.969 0.297 -0.594 -0.422 -0.594 -0.422 -1 -1 -0.063 -0.688 -0.063 -0.688 0 -1.25h1l-0.25 1.25 0.75 -0.5h0.75v-0.75z" fill="#2d2d21"/><path d="m124 99.5 0.75 0.25 -0.25 3 1 0.5c-0.143 0.723 -0.143 0.723 -0.5 1.5 -0.77 0.293 -0.77 0.293 -1.703 0.438 -1.084 0.178 -2.042 0.361 -3.047 0.813 0.828 -1.012 1.546 -1.203 2.813 -1.438l0.957 -0.183L124.75 104.25l-0.362 -0.593c-0.349 -0.592 -0.572 -0.979 -0.637 -1.657 0.234 -0.563 0.234 -0.563 0.5 -1l-1 -0.25 0.75 -0.25z" fill="#332725"/><path d="m150.75 99.75 0.25 1.5c-0.5 0 -0.5 0 -0.906 -0.375L149.75 100.5v0.5l0.5 0.25 -0.25 1 0.75 0.25v0.5l-1.5 0.25v-0.5l-1 -0.5h0.75l-0.156 -0.547c-0.11 -0.824 0.022 -1.226 0.406 -1.953 0.623 -0.311 0.853 -0.194 1.5 0" fill="#635b5b"/><path d="M130.75 87.25c1.438 1.328 1.438 1.328 1.5 2.25l-0.25 0.75c-0.924 0.237 -1.576 0.237 -2.5 0 0.094 -0.484 0.094 -0.484 0.25 -1l0.5 -0.25 -0.25 -0.5h0.75z" fill="#d5d6d7"/><path d="M128.75 83.5c1.205 0.365 2.256 0.975 3 2 0.216 0.921 0.262 1.806 0.25 2.75l-0.5 -0.515c-0.874 -0.876 -1.813 -1.677 -2.75 -2.485l0.5 -0.25c0.531 0.234 0.531 0.234 1 0.5v-0.75a31.25 31.25 0 0 0 -1.5 -1z" fill="#926a49"/><path d="m114 113.25 1 0.25v0.5h0.5l0.25 1c0.618 -0.086 0.618 -0.086 1.25 -0.25l0.25 -0.5 0.75 0.25 0.25 0.75 0.5 0.25v0.5c-1.897 -0.112 -3.504 -0.779 -5.25 -1.5z" fill="#a26341"/><path d="m140 88 0.25 0.5c0.474 0.116 0.474 0.116 1.016 0.156L142.25 88.75v1.5h-0.5v-0.5h-0.5l-0.25 0.5 -1.25 -0.25 -0.25 -1.5h-0.75v0.5h-0.5v-0.75z" fill="#ae6940"/><path d="m148 106 0.25 0.5h-0.5l-0.5 1 -1 -0.25v0.75l-0.688 -0.031c-0.782 0.03 -1.159 0.129 -1.813 0.531l-0.5 -1.25z" fill="#afaabd"/><path d="m128 99.75 0.719 0.141c1.192 0.176 2.344 0.015 3.531 -0.141 -0.57 0.702 -0.841 0.979 -1.754 1.097l-0.808 -0.035 -0.817 -0.028L128.25 100.75v1l-1.5 0.25v-0.75l0.5 -0.25 -0.5 -0.5 1.25 -0.5z" fill="#e2ac7b"/><path d="m124.25 99.5 1.75 0.25c0.427 1.244 0.002 2.107 -0.5 3.25l-1.25 -0.25 0.5 -3z" fill="#8c6248"/><path d="M148 96.75c1.16 1.309 1.321 2.281 1.25 4a21.75 21.75 0 0 1 -0.25 1.25l-0.5 -0.25v-1.5h-1.5l0.594 -0.578c0.674 -0.649 0.674 -0.649 1.156 -1.422l-2.5 -0.5 0.5 -0.5c0.656 0.094 0.656 0.094 1.25 0.25z" fill="#c98e64"/><path d="M128.141 88.484 129 88.5l-0.25 0.5 1 0.5 -1 0.5v1l-0.75 0.5v-0.5h-0.75q-0.072 -0.554 -0.141 -1.109l-0.079 -0.624L127 88.75c0.25 -0.25 0.25 -0.25 1.141 -0.266" fill="#bd8c8e"/><path d="M149 95c0.926 1.389 1.056 2.364 1 4h-0.75c-0.738 -1.153 -1.137 -1.841 -1 -3.25h0.5z" fill="#65544b"/><path d="M118.75 154.75q0.531 0.171 1.063 0.344l0.598 0.193c0.556 0.201 1.067 0.438 1.59 0.713v0.5l0.631 0.194c1.133 0.399 2.192 0.914 3.272 1.436 0.772 0.368 1.503 0.713 2.348 0.87 -0.544 0.285 -0.544 0.285 -1.25 0.5 -0.63 -0.199 -0.63 -0.199 -1.292 -0.564l-0.74 -0.398 -0.765 -0.429 -1.495 -0.814 -0.733 -0.404c-1.062 -0.575 -2.141 -1.112 -3.225 -1.643z" fill="#1e1b1c"/><path d="M84.75 95.75c1.162 1.058 1.975 2.264 2.828 3.578l0.416 0.633q0.504 0.768 1.005 1.538l-0.5 0.5 -0.264 -0.374 -1.19 -1.688 -0.414 -0.589 -0.403 -0.572 -0.369 -0.523c-0.357 -0.513 -0.357 -0.513 -0.781 -1.006C84.75 96.75 84.75 96.75 84.75 95.75" fill="#29272c"/><path d="m121.75 110.25 0.5 0.25 -0.25 1.5h-0.5v0.75h-0.5l-0.203 0.953c-0.196 0.795 -0.36 1.298 -1.047 1.797 -0.25 -0.25 -0.25 -0.25 -0.328 -1.094 0.078 -0.906 0.078 -0.906 0.563 -1.344L120.5 112.75l0.25 -0.75 0.5 -0.25a25.25 25.25 0 0 0 0.5 -1.5" fill="#4b413d"/><path d="m126.5 99.25 0.5 0.75c0.646 0.063 0.646 0.063 1.25 0l-1 0.5 0.75 0.5 -1.25 0.25v1c-0.5 0.563 -0.5 0.563 -1 1l0.75 0.25 -0.5 0.25 -0.5 -0.25c0.104 -1.549 0.401 -2.817 1 -4.25" fill="#c98e60"/><path d="M136.5 91h0.5c0.449 0.954 0.594 1.696 0.5 2.75l-0.5 0.5c-0.161 0.517 -0.161 0.517 -0.25 1h-0.5v0.5c-1 0.4 -1.762 0.073 -2.75 -0.25v-0.25l3 -0.25z" fill="#c48e64"/><path d="M122.25 106.75c0.274 0.853 0.235 1.552 0.141 2.438l-0.077 0.746L122.25 110.5h-0.5l-0.188 0.469c-0.364 0.619 -0.657 0.769 -1.313 1.031v-0.75h0.5l0.25 -1.25h0.5v-0.703c0 -1.641 0 -1.641 0.75 -2.547" fill="#60524a"/><path d="M149.25 89.25h0.25c0.039 1.929 -0.081 3.829 -0.25 5.75l-0.5 -0.25v-0.75l-0.5 -0.25 0.5 -0.75 -0.578 -0.188c-0.731 -0.34 -0.997 -0.641 -1.422 -1.313l0.25 -0.5 1.5 1.25c0.434 -0.434 0.414 -1.051 0.516 -1.641l0.134 -0.767z" fill="#3e2e28"/><path d="M134 127c1.339 1.054 2.353 2.211 3.411 3.543 0.751 0.902 1.573 1.707 2.426 2.513C140.25 133.5 140.25 133.5 140.25 134c-0.76 -0.335 -1.219 -0.676 -1.75 -1.313l-0.448 -0.531L137.5 131.5a385.5 385.5 0 0 0 -0.762 -0.875l-0.816 -0.938 -0.4 -0.456c-0.612 -0.709 -1.163 -1.353 -1.522 -2.231" fill="#1b1311"/><path d="m132.25 96 0.25 0.5 0.75 0.25 -0.25 1h-0.5l0.25 1.75 0.75 0.25 -0.75 0.25c-0.744 -0.767 -0.991 -1.115 -1.063 -2.203L131.75 97l-0.5 -0.25z" fill="#7e7b72"/><path d="M127.75 108.75c0.25 0.5 0.25 0.5 0.25 1.5l0.25 0.75 0.75 -0.5c0.25 0.75 0.25 0.75 0.016 1.297L128.75 112.25l-1.5 -0.25a87.75 87.75 0 0 1 -0.031 -1.203l-0.018 -0.677C127.25 109.5 127.25 109.5 127.75 108.75" fill="#bbb4bd"/><path d="M144.5 89.75c0.735 0.313 0.735 0.313 1.5 0.75 0.219 0.547 0.219 0.547 0.25 1h-1.25v-0.5h-0.5l-0.25 1 -1 -0.25c0.28 -0.839 0.687 -1.328 1.25 -2" fill="#745c4d"/><path d="M118.25 130.5c0 1.234 -0.479 2.198 -1.297 3.11L116.5 134l0.25 -1 -1 0.5c0.53 -1.254 1.373 -2.249 2.5 -3" fill="#30272c"/><path d="M122.25 110.5h0.5l-0.092 0.415c-0.409 1.933 -0.662 3.876 -0.908 5.835l0.75 0.25v0.5h-0.75c-0.098 -0.353 -0.191 -0.708 -0.281 -1.063l-0.158 -0.598c-0.071 -0.695 0.077 -1.005 0.44 -1.59h-0.5l0.155 -0.567 0.204 -0.746 0.202 -0.738c0.152 -0.565 0.299 -1.131 0.439 -1.699" fill="#5e5254"/><path d="M155.75 111.5q-1.52 0.492 -3.042 0.975 -0.517 0.165 -1.034 0.333a196.5 196.5 0 0 1 -1.49 0.475l-0.904 0.289c-0.738 0.169 -1.086 0.199 -1.779 -0.072l0.474 -0.138 0.619 -0.191 0.615 -0.185c0.624 -0.216 0.624 -0.216 1.041 -0.987v0.75l0.397 -0.142c0.596 -0.211 1.193 -0.417 1.79 -0.624l0.625 -0.223 0.606 -0.207 0.555 -0.195c0.595 -0.123 0.956 -0.05 1.526 0.141" fill="#312522"/><path d="m149.5 111.5 0.25 1a132 132 0 0 1 -1.547 0.516l-0.87 0.29c-0.827 0.193 -1.281 0.184 -2.083 -0.056l0.439 -0.218q0.529 -0.266 1.052 -0.541c0.915 -0.477 1.721 -0.862 2.759 -0.991" fill="#b9b5c8"/><path d="M125.5 108h2c0.281 0.938 0.281 0.938 0 1.5h-0.5l-0.5 -1c-0.82 0.188 -0.82 0.188 -1.25 1h-0.5v0.5h-0.5v-1.5l0.75 -0.25 0.5 0.25z" fill="#e4e4e3"/><path d="M100.25 145.5c1.974 0.498 3.705 1.298 5.5 2.25v0.5l1 0.25c-0.75 0.25 -0.75 0.25 -1.336 0.034l-0.681 -0.343 -0.741 -0.372 -0.772 -0.397 -0.778 -0.388c-1.907 -0.966 -1.907 -0.966 -2.191 -1.534" fill="#262123"/><path d="m128.25 106 4.5 0.25 -0.25 0.5 1.75 0.25v0.25h-3.5v-0.5l-0.483 -0.037 -0.626 -0.057c-0.206 -0.018 -0.412 -0.035 -0.624 -0.052L128.5 106.5z" fill="#716b79"/><path d="M89.5 102.5c0.877 0.813 1.524 1.703 2.188 2.688l0.311 0.456q0.377 0.552 0.751 1.107l-0.25 0.5c-1.193 -1.085 -2.207 -2.344 -3 -3.75z" fill="#2b282b"/><path d="m149 102.75 0.25 0.5 0.75 0.25v0.5h-1.5l0.25 1 -1.5 0.25v0.75l-1.75 0.25v-0.5h1.25l0.25 -0.75 0.625 -0.219L148.25 104.5c0.224 -0.637 0.224 -0.637 0.25 -1.25h0.5z" fill="#bbbac5"/><path d="M144 111.25c0.9 1.35 0.9 1.35 1.25 2l-0.25 0.5 -0.5 -0.25v0.5c-0.395 0.133 -0.791 0.263 -1.188 0.391l-0.668 0.22c-0.664 0.144 -1.012 0.113 -1.645 -0.11l0.538 -0.21 0.696 -0.275 0.695 -0.273c0.552 -0.193 0.552 -0.193 0.821 -0.493 0.058 -0.337 0.103 -0.676 0.141 -1.016z" fill="#c7c4d0"/><path d="m145.75 99.5 0.25 0.75 2 0.25 0.25 1.25 -1.75 -0.25v-0.5l-0.734 -0.094L145 100.75l-0.25 -0.5z" fill="#e9d5bd"/><path d="M164.75 133.75h0.25l0.25 9 -1.5 0.75 -0.75 -0.25 1.5 -0.75z" fill="#5b3a36"/><path d="M126.75 90.75c0.422 0.845 0.615 1.407 0.781 2.313l0.127 0.676L127.75 94.25l0.465 -0.147c0.535 -0.102 0.535 -0.102 1.097 0.257L129.75 94.75l-1.5 0.5v-0.5h-0.75l-0.25 -1h-0.5z" fill="#a8795b"/><path d="M148.5 84c0.61 0.094 0.61 0.094 1.25 0.25 0.364 0.729 0.283 1.376 0.281 2.188l0.002 0.918c-0.03 0.822 -0.128 1.588 -0.283 2.394 -0.668 -0.969 -0.505 -1.948 -0.406 -3.063l0.043 -0.565c0.035 -0.458 0.074 -0.915 0.113 -1.373h-0.75z" fill="#655c59"/><path d="M81 117.5h0.5v0.75l0.594 0.172C82.75 118.75 82.75 118.75 83.078 119.406L83.25 120c-1.1 -0.126 -1.678 -0.522 -2.5 -1.25z" fill="#1e1c1f"/><path d="M121.5 114.25c0.25 0.5 0.25 0.5 0.125 0.938 -0.164 0.738 -0.025 1.329 0.125 2.063l-2.25 -0.5a193.75 193.75 0 0 1 0.719 -1.109l0.404 -0.624C121 114.5 121 114.5 121.5 114.25" fill="#463d38"/><path d="m145 96.75 0.75 0.25c0.151 1.78 0.151 1.78 -0.515 2.75 -0.92 0.626 -1.392 0.679 -2.485 0.5 -0.609 -0.5 -0.609 -0.5 -1 -1l0.25 -0.75 1 1.25c0.775 -0.086 1.2 -0.212 1.828 -0.688 0.504 -0.673 0.53 -0.99 0.422 -1.813z" fill="#c5be8c"/><path d="M125.5 113.5c0.67 1.005 0.539 1.56 0.5 2.75l0.5 0.25 -1.5 -0.25 -0.25 -1.25h-0.25v-1.25l0.25 0.5h0.5z" fill="#e7e6e2"/><path d="m168.5 102.5 0.5 1 -1.75 2.5 -0.75 -0.25c0.367 -0.777 0.8 -1.476 1.281 -2.188l0.408 -0.606z" fill="#2c2725"/><path d="M126.5 91.75h0.25c0.392 2.257 0.173 3.554 -1 5.5a76.5 76.5 0 0 0 -0.547 1.141C124.75 99.25 124.75 99.25 124.25 99.5a31 31 0 0 1 0.868 -2.032c0.884 -1.911 1.374 -3.588 1.382 -5.718" fill="#35291e"/><path d="M119.5 128.5h0.75c0 0.998 -0.369 1.288 -1 2.047l-0.563 0.682L118.25 131.75v-0.75h-0.5c0.42 -0.992 1.021 -1.718 1.75 -2.5" fill="#282224"/><path d="M146.25 97.75c1.631 -0.092 1.631 -0.092 2.235 0.375L148.75 98.5l-0.844 0.172c-0.946 0.23 -0.946 0.23 -1.266 0.984L146.5 100.25h-0.5c-0.367 -0.954 -0.108 -1.573 0.25 -2.5" fill="#e6b47e"/><path d="m125.5 97.25 1 0.25 -0.5 1.75h0.5l-0.5 1v-0.5l-1.5 -0.25z" fill="#b77d4f"/><path d="M85.75 169h9v0.25l-0.764 0.011c-0.938 0.015 -1.875 0.034 -2.812 0.054q-0.608 0.013 -1.216 0.021c-0.584 0.009 -1.167 0.021 -1.75 0.035l-0.548 0.005c-1.035 0.03 -1.656 0.141 -2.409 0.873z" fill="#d6d5d5"/><path d="M165.75 109c4.202 3.563 4.202 3.563 5.5 5.25 -0.752 -0.335 -1.25 -0.7 -1.813 -1.297 -0.792 -0.818 -1.623 -1.569 -2.488 -2.309 -0.42 -0.369 -0.828 -0.727 -1.199 -1.145z" fill="#26221f"/><path d="M125.25 109.75c0.364 1.13 0.068 1.879 -0.25 3h-1.25c0.14 -1.191 0.647 -2.147 1.5 -3" fill="#e6e6e1"/><path d="m147.25 108 0.75 0.25c0.05 0.929 0.038 1.193 -0.5 2a44.25 44.25 0 0 0 -0.5 1l-0.25 -0.25 -0.5 0.5 0.5 -3 0.5 0.25z" fill="#807a85"/><path d="M124.5 104.75c-0.031 0.469 -0.031 0.469 -0.25 1 -0.75 0.281 -0.75 0.281 -1.5 0.5l-0.25 0.5v-0.5l-0.5 -0.25 0.25 -0.5 -0.5 -0.25c1.906 -0.5 1.906 -0.5 2.75 -0.5" fill="#906046"/><path d="M148.5 89.5h0.25c0.056 0.406 0.107 0.812 0.156 1.219l0.088 0.685L149 92l-0.5 0.5c-0.515 -0.406 -0.515 -0.406 -1 -1 0.063 -0.813 0.063 -0.813 0.25 -1.5h0.75z" fill="#805b54"/><path d="M170.5 100c0.171 0.426 0.171 0.426 0.25 1 -0.304 0.59 -0.304 0.59 -0.734 1.188l-0.429 0.606L169.25 103.25l-0.5 -0.25c0.133 -1.129 0.573 -1.847 1.25 -2.75z" fill="#352d2b"/><path d="m131 156.75 0.25 0.75c-0.569 0.651 -1.054 0.913 -1.875 1.172l-0.586 0.19C128.25 159 128.25 159 127.5 159l0.25 -0.75c0.481 -0.211 0.481 -0.211 1.078 -0.375 0.859 -0.259 1.498 -0.51 2.172 -1.125" fill="#553a3a"/><path d="M133.25 111.75c0.444 0.666 0.719 1.257 1 2l1 -0.5c0.806 1.318 0.806 1.318 1 1.75l-0.25 0.5 -0.328 -0.375c-0.421 -0.458 -0.421 -0.458 -1.172 -0.375 -0.953 -0.925 -1.147 -1.694 -1.25 -3" fill="#857d87"/><path d="m143.25 96.5 0.5 0.5c-0.069 0.46 -0.069 0.46 -0.234 0.985 -0.244 0.782 -0.287 0.95 -0.016 1.766 -0.469 -0.047 -0.469 -0.047 -1 -0.25 -0.313 -0.64 -0.313 -0.64 -0.5 -1.25l0.75 -0.5c0.301 -0.638 0.301 -0.638 0.5 -1.25" fill="#262118"/><path d="M147.25 95.75v1.25l0.75 -0.25v0.75c-1.623 -0.122 -1.623 -0.122 -2.234 -0.734C145.5 96.25 145.5 96.25 145.5 95.75c0.752 -0.234 0.967 -0.261 1.75 0" fill="#dca36c"/><path d="M166.75 105.5c0.188 0.406 0.188 0.406 0.25 1 -0.453 0.75 -0.453 0.75 -1 1.5a21.5 21.5 0 0 0 -0.5 1c-0.263 -1.097 -0.341 -1.581 0.203 -2.594C166.25 105.75 166.25 105.75 166.75 105.5" fill="#37312e"/><path d="M147.5 107c0.233 0.651 0.287 0.91 0.016 1.563L147.25 109l-0.75 -0.25v-0.5h-2l0.25 -0.5 1.5 0.25v-0.75z" fill="#cbcad0"/><path d="M136.5 107.25c0.929 -0.05 1.193 -0.038 2 0.5 0.514 0.06 0.514 0.06 1.047 0.031L140.5 107.75l-0.25 0.5c-0.545 0.095 -0.545 0.095 -1.219 0.141 -0.748 0.053 -1.315 0.12 -2.031 0.359v-0.5h-0.5z" fill="#898593"/><path d="m147.5 86 0.25 0.5h0.75c0.277 0.831 0.211 1.405 0 2.25 -0.732 -0.157 -1.34 -0.397 -2 -0.75l1.25 -1 -0.5 -0.25z" fill="#8d7570"/><path d="m144.25 96.5 1 0.25c0.188 0.813 0.188 0.813 0.25 1.75l-1 1z" fill="#60684e"/><path d="m129.75 94.5 0.5 0.25v0.5l1.5 0.25v0.25l-0.953 0.141 -0.536 0.079C129.75 96 129.75 96 129 95.75c-0.659 0.099 -0.659 0.099 -1.25 0.25 0.25 -0.75 0.25 -0.75 1.109 -1.188z" fill="#89624c"/><path d="M131.75 111.25c0.75 0.906 0.75 0.906 0.75 1.75h1c0.75 1.018 0.75 1.018 0.75 1.75 -0.965 -0.393 -1.59 -0.948 -2.25 -1.75 -0.203 -0.953 -0.203 -0.953 -0.25 -1.75" fill="#bcb7bd"/><path d="M124.141 112.484 124.75 112.5v2.25h0.25v1.5l-0.25 -1h-0.5v-2h-0.5v0.75h-0.5a25 25 0 0 1 0 -1.25c0.25 -0.25 0.25 -0.25 0.891 -0.266" fill="#c3bbbb"/><path d="M141.25 109.25c-0.25 0.75 -0.25 0.75 -1.016 1.172L139.5 110.75v-0.5h-0.5l-0.25 1v-1.75c0.852 -0.195 1.627 -0.275 2.5 -0.25" fill="#e6e5e6"/><path d="M150.75 103.25h2.25l0.25 0.5c-0.657 0.352 -1.26 0.631 -2 0.75l-0.75 -0.25z" fill="#ac8a7a"/><path d="m140 93.25 0.75 0.25v0.5h0.5l0.25 1h0.5l0.5 1.25 -1 1 0.094 -0.765c-0.113 -1.184 -0.457 -1.546 -1.266 -2.365C140 93.75 140 93.75 140 93.25" fill="#e2bb94"/><path d="M149.5 84.75v2.5l-0.25 -1 -1.5 0.25c0.195 -1.131 0.545 -1.75 1.75 -1.75" fill="#d29480"/><path d="M128.25 83.5c0.856 0.309 1.6 0.6 2.25 1.25 0.026 0.651 0.026 0.651 0 1.25a67 67 0 0 1 -0.984 -0.688l-0.554 -0.387c-0.514 -0.474 -0.619 -0.744 -0.712 -1.426" fill="#cb8f6b"/><path d="M147.25 111h0.5c-0.047 0.578 -0.047 0.578 -0.25 1.25 -0.863 0.691 -1.665 0.874 -2.75 1 0.297 -0.609 0.297 -0.609 0.75 -1.25 0.641 -0.156 0.641 -0.156 1.25 -0.25z" fill="#d6d5dc"/><path d="M117.5 108c0.406 0.406 0.406 0.406 0.75 1 -0.203 0.813 -0.203 0.813 -0.5 1.5h0.5l0.25 0.75h-0.5v-0.5h-0.5v-1c-0.519 -0.306 -0.519 -0.306 -1.25 -0.25v-0.5a26.25 26.25 0 0 1 1.25 -1" fill="#a47555"/><path d="m141.25 91.75 0.25 0.75h0.5c0.031 0.844 0.031 0.844 0 1.75l-0.5 0.5 -0.25 -0.75 -0.5 -0.25c0.219 -1.719 0.219 -1.719 0.5 -2" fill="#c9946a"/><path d="M117.25 116.25c1.558 0.398 3.041 0.819 4.5 1.5 -1.021 0.431 -1.843 0.018 -2.813 -0.359l-0.492 -0.184A129 129 0 0 1 117.25 116.75z" fill="#b8947d"/><path d="m149.5 108.5 0.5 0.5 -0.25 0.75 -0.5 -0.25v0.5l-1.25 -0.25v0.75h-0.5l-0.25 0.5c0.078 -0.844 0.078 -0.844 0.25 -1.75l0.75 -0.5 0.25 0.5c0.693 -0.426 0.693 -0.426 1 -0.75" fill="#c8c7cc"/><path d="m127 101.75 0.75 0.25c0.172 0.516 0.172 0.516 0.25 1h-0.75v0.5h0.5l-0.25 0.5 -0.75 -0.25v-0.5l-0.75 -0.25c0.25 -0.75 0.25 -0.75 1 -1.25" fill="#dfdadb"/><path d="M138.5 100.75h2l0.25 0.75 -0.5 0.5c-0.486 -0.06 -0.486 -0.06 -1.031 -0.219l-0.549 -0.154L138.25 101.5z" fill="#5c4f48"/><path d="M135 96.75c0.75 0.25 0.75 0.25 1.063 0.688 0.241 0.724 0.195 1.097 -0.063 1.813 -0.515 0.453 -0.515 0.453 -1 0.75l-0.5 -0.25 0.38 -0.302c0.427 -0.424 0.427 -0.424 0.389 -1.014l-0.097 -0.606 -0.091 -0.613z" fill="#b6bc84"/><path d="M92.25 124.25c1.207 0.362 2.447 0.794 3.5 1.5l0.25 0.75 -1 -0.25v-0.5l-1.5 -0.5 -0.25 1 -0.078 -0.469c-0.141 -0.623 -0.141 -0.623 -0.922 -1.031z" fill="#363337"/><path d="M122 113.5h0.5l-0.25 2.5h0.5l0.25 1.75h-0.5l-0.25 -0.75 -0.5 -0.25z" fill="#7b7382"/><path d="M120.25 106.25c-1.959 1.744 -1.959 1.744 -3 2.25l-0.5 -0.25c2.377 -2.562 2.377 -2.562 3.5 -2" fill="#3c3432"/><path d="M135.5 96c0.641 0.516 0.641 0.516 1.25 1.25 -0.047 0.953 -0.047 0.953 -0.25 1.75l-1 -2h-0.75v-0.5z" fill="#343024"/><path d="M148.25 94h0.5c0.281 1.188 0.281 1.188 0 1.75h-0.5v1h-0.5l-0.5 -1.5 1 -0.25z" fill="#866955"/><path d="M138.75 88.5h0.75l0.25 1.5 0.75 0.25h-0.5l-0.25 0.5 -0.5 -1h-0.5l-0.5 0.5v-1.25h0.5z" fill="#da8e56"/><path d="m139 153.75 0.25 0.5 -3.25 1.5c0.5 -1.25 0.5 -1.25 1.078 -1.563A19.25 19.25 0 0 1 139 153.75" fill="#462f2f"/><path d="m137.75 132.25 0.385 0.328c1.114 0.919 1.114 0.919 2.49 1.266L141.25 133.75v0.5c-0.746 0.373 -1.171 0.378 -2 0.25 -0.596 -0.515 -1.077 -1.087 -1.5 -1.75z" fill="#322c30"/><path d="M126 121c0 0.951 -0.284 1.194 -0.875 1.922l-0.492 0.612L124.25 124c-0.25 -0.5 -0.25 -0.5 -0.109 -1.219 0.443 -0.964 0.949 -1.267 1.859 -1.781" fill="#211b1c"/><path d="m118.5 113 0.25 1.75 -0.5 0.25v-1l-0.719 -0.094C116.75 113.75 116.75 113.75 116.25 113.25c0.857 -0.405 1.345 -0.585 2.25 -0.25" fill="#d08e5d"/><path d="m125.75 102.75 1.25 0.25 -0.25 0.75 1 0.25v0.5l-1.25 0.25v-0.5l-1 -0.25 0.75 -0.5 -0.5 -0.25z" fill="#afa7b9"/><path d="m143 92 2 0.5v0.5l-1.25 0.25v0.5h-0.75z" fill="#cb8d60"/><path d="M148.5 104h1.5l-0.5 0.25v1.25h0.5l0.25 0.75 -0.5 0.5v-0.75l-1 -0.25z" fill="#615260"/><path d="M148 96.75c0.868 0.98 1.25 1.688 1.25 3h-0.5v-1.5l-2.5 -0.5 0.5 -0.5c0.656 0.094 0.656 0.094 1.25 0.25z" fill="#a77e60"/><path d="M138 89h0.25q0.01 0.672 0.016 1.344l0.009 0.756C138.25 91.75 138.25 91.75 138 92.25h-0.5l-0.5 -1h0.5l-0.031 -0.703C137.5 89.75 137.5 89.75 138 89" fill="#756359"/><path d="M131.75 88.25h0.5l0.25 0.5h2l-0.25 0.75c-0.516 0.182 -0.516 0.182 -1.141 0.297l-0.626 0.12L132 90z" fill="#a4775c"/><path d="m151 104.25 0.25 0.5c0.472 0.171 0.472 0.171 1.016 0.281l0.555 0.127L153.25 105.25v0.5c-0.5 0.203 -0.5 0.203 -1.25 0.25 -0.713 -0.353 -1.355 -0.787 -2 -1.25z" fill="#7f6364"/><path d="M141 98.5h0.25l0.094 0.594c0.104 0.692 0.104 0.692 0.656 1.156l-0.469 0.094c-0.579 0.124 -0.579 0.124 -1.031 0.656 -0.906 -0.094 -0.906 -0.094 -1.75 -0.25v-0.5c0.752 -0.234 0.967 -0.261 1.75 0z" fill="#e8e5df"/><path d="m131.75 97 0.074 0.457c0.228 1.22 0.395 2.002 1.426 2.793 -0.772 -0.083 -1.001 -0.251 -1.547 -0.828 -0.411 -0.61 -0.558 -0.973 -0.703 -1.672l-0.5 -0.5c0.75 -0.25 0.75 -0.25 1.25 -0.25" fill="#383121"/><path d="m127.25 91 0.438 0.141c0.614 0.119 0.974 0.049 1.563 -0.141 -0.1 0.722 -0.198 0.956 -0.765 1.438L128 92.75z" fill="#ad7b7c"/><path d="M168.25 123.5v0.5c-1.03 0.499 -1.863 0.544 -3 0.5 0.834 -0.966 1.754 -1.462 3 -1" fill="#342b30"/><path d="M122 118c1.482 0.292 2.847 0.689 4.25 1.25l-0.25 0.5c-1.367 -0.437 -2.689 -0.914 -4 -1.5z" fill="#b99580"/><path d="M123.75 113.25h0.5v2h-0.5l-0.25 0.5c-0.266 -0.594 -0.266 -0.594 -0.5 -1.25l0.25 -0.5h0.5z" fill="#8a7f8b"/><path d="m117.25 114.25 0.75 0.25 0.25 0.75 0.5 0.25v0.5l-2 -0.25z" fill="#b06b44"/><path d="M116.75 113.75c0.719 0.078 0.719 0.078 1.5 0.25l0.5 0.75 -0.25 0.75 -1 -0.25h0.5l-0.25 -0.75 -0.5 -0.25 -0.5 1c-0.281 -0.938 -0.281 -0.938 0 -1.5" fill="#c37a4d"/><path d="M118.25 111.5c-0.269 0.729 -0.445 1.194 -1 1.75h-1c0.875 -1.75 0.875 -1.75 2 -1.75" fill="#e4a268"/><path d="m150.75 99.75 0.25 1.5h-0.5l-0.25 -0.5 -0.75 -0.25v0.5l-0.5 -0.25c0.094 -0.484 0.094 -0.484 0.25 -1 0.623 -0.311 0.853 -0.194 1.5 0" fill="#605551"/><path d="M84.75 95.75c0.733 0.713 1.411 1.413 2 2.25l-0.25 0.5h-0.5c-0.323 -0.347 -0.323 -0.347 -0.656 -0.813l-0.338 -0.457C84.75 96.75 84.75 96.75 84.75 95.75" fill="#383639"/><path d="M144.5 115.25c-0.855 0.855 -1.93 0.988 -3.109 1.031L140.75 116.25c0.576 -0.576 0.962 -0.69 1.734 -0.922l0.663 -0.206C143.75 115 143.75 115 144.5 115.25" fill="#b7957f"/><path d="M111.5 114.25q0.531 0.107 1.063 0.219l0.598 0.123c0.582 0.156 1.063 0.37 1.59 0.658v0.25c-1.308 0.096 -2.095 -0.195 -3.25 -0.75z" fill="#bb9980"/><path d="m126 105.75 0.5 0.25 -0.5 0.5 -0.063 0.484C125.75 107.5 125.75 107.5 124.984 107.938L124.25 108.25c0.047 -0.703 0.047 -0.703 0.25 -1.5 0.625 -0.453 0.625 -0.453 1.25 -0.75z" fill="#b4aabc"/><path d="m148 104.75 -0.484 0.219c-0.554 0.238 -0.554 0.238 -0.766 0.781h-1.25v0.5h-1.25l1 -0.25v-0.5l0.75 -0.25 0.25 -0.5c0.783 -0.261 0.998 -0.234 1.75 0" fill="#dfdee3"/><path d="M126.75 100.5h2.5l-1 0.25v1l-1.5 0.25v-0.75l0.5 -0.25z" fill="#e0bc9f"/><path d="M138.5 89.25c0.611 0.611 0.672 0.897 0.75 1.75 -0.234 0.828 -0.234 0.828 -0.5 1.5 -0.575 -0.863 -0.534 -1.059 -0.406 -2.047l0.084 -0.683z" fill="#e1b995"/><path d="M128.75 85c1.292 0.352 2.188 1.216 3 2.25 0.176 0.557 0.176 0.557 0.25 1l-0.5 -0.515c-0.748 -0.752 -1.549 -1.435 -2.357 -2.121L128.75 85.25z" fill="#54423e"/><path d="M148.75 114c-2.594 1.148 -2.594 1.148 -4 1 0.605 -0.605 1.039 -0.699 1.859 -0.922l0.733 -0.206C148 113.75 148 113.75 148.75 114" fill="#b7967f"/><path d="M139 110.25c1 0 1 0 1.5 0.25 -0.344 0.5 -0.344 0.5 -0.75 1h-0.5v0.75h-0.5v-0.5l-0.5 -0.25 0.5 -0.25c0.163 -0.506 0.163 -0.506 0.25 -1" fill="#cdcacd"/><path d="M142.25 88.75v1.5h-0.5v-0.5h-0.5l-0.25 0.5 -1.25 -0.25 0.453 -0.203c0.557 -0.267 0.557 -0.267 0.938 -0.703C141.5 88.75 141.5 88.75 142.25 88.75" fill="#bc7649"/><path d="M129.75 86c0.641 0.563 0.641 0.563 1.25 1.25 -0.047 0.578 -0.047 0.578 -0.25 1 -1.219 -1.156 -1.219 -1.156 -1.5 -2z" fill="#a3969d"/><path d="M122.75 113.25h0.25l0.25 3 -1 -0.5c-0.055 -0.964 0.099 -1.623 0.5 -2.5" fill="#a49ca8"/><path d="M135.75 92.25c0.75 0.906 0.75 0.906 0.75 1.75l-0.75 0.25c-0.375 -0.344 -0.375 -0.344 -0.75 -0.75v-0.5h0.5z" fill="#514c49"/><path d="M126.75 88.25h0.25l0.25 2.5h-0.5l-0.25 1.25c-0.3 -0.882 -0.199 -1.532 -0.015 -2.438l0.147 -0.746z" fill="#554233"/><path d="M116.25 133h0.5c-0.31 0.86 -0.639 1.563 -1.25 2.25h-0.5c0.143 -0.968 0.598 -1.538 1.25 -2.25" fill="#4e3d45"/><path d="m124.25 99.5 1.75 0.25c-0.343 0.79 -0.497 0.998 -1.25 1.5v-1.5z" fill="#81583e"/><path d="m136.5 94.25 0.25 1h-0.5v0.5c-1 0.4 -1.762 0.073 -2.75 -0.25v-0.25l3 -0.25z" fill="#987f6d"/><path d="M146.75 89.5c0.484 0.203 0.484 0.203 1 0.5l0.25 0.75c-1.6 0.092 -1.6 0.092 -2.359 -0.375L145.25 90h1.25z" fill="#c5c4c0"/><path d="m127.75 89.5 0.25 0.75 0.75 0.25v0.75l-0.75 0.25v-0.5h-0.75c0.219 -1.219 0.219 -1.219 0.5 -1.5" fill="#c89290"/><path d="M118.75 154.75c2.399 0.723 2.399 0.723 3.25 1.5 -0.75 0.25 -0.75 0.25 -1.37 0.001l-0.677 -0.36 -0.683 -0.358L118.75 155.25z" fill="#2d282b"/><path d="m149.5 111.5 0.25 1 -1.75 0.25 0.25 -1z" fill="#afacbf"/><path d="m123 108.5 1 0.25c-0.343 0.739 -0.747 1.36 -1.25 2l-0.5 -0.5 0.234 -0.453c0.291 -0.57 0.291 -0.57 0.515 -1.297" fill="#b97b55"/><path d="M149.5 103h1.5l-0.5 1.25 0.5 0.25 -1.5 0.25v-0.5h0.5z" fill="#3c3435"/><path d="M148.75 93c-0.188 0.484 -0.188 0.484 -0.5 1 -0.531 0.188 -0.531 0.188 -1 0.25v-1.25c0.75 -0.25 0.75 -0.25 1.5 0" fill="#956d52"/><path d="M131.75 86.5c0.79 0.343 0.998 0.497 1.5 1.25a22 22 0 0 1 -1.25 0.25c-0.25 -0.25 -0.25 -0.25 -0.266 -0.89z" fill="#d49461"/><path d="m145.5 86 0.5 0.25 -0.5 0.75v0.5l-1.75 0.25c0.555 -0.727 0.983 -1.238 1.75 -1.75" fill="#423e3b"/><path d="M147.5 132c-0.509 0.509 -0.824 0.669 -1.484 0.922 -0.172 0.068 -0.345 0.136 -0.522 0.206C145 133.25 145 133.25 144.25 133c1.094 -1.094 1.778 -1.1 3.25 -1" fill="#121111"/><path d="m171 121.75 1 0.25v0.5l-2 0.75 -0.5 -0.5 1.5 -0.75z" fill="#343236"/><path d="M135 114.25c0.727 0.555 1.238 0.983 1.75 1.75l-1.75 0.25 0.5 -0.5 -0.25 -0.469C135 114.75 135 114.75 135 114.25" fill="#d6d3d5"/><path d="M123.5 109.5c0.25 0.75 0.25 0.75 0 1.5a69.5 69.5 0 0 0 -0.25 1l-0.25 -0.5 -0.5 0.75c-0.141 -1.204 0.293 -1.801 1 -2.75" fill="#ceaa98"/><path d="m161.5 107.75 2.75 0.5c-0.797 0.531 -1.316 0.625 -2.25 0.75v-0.75z" fill="#75585b"/><path d="m146.25 96.75 0.25 0.75 -0.5 0.75 -0.172 -0.594c-0.274 -0.711 -0.274 -0.711 -0.985 -0.984L144.25 96.5l-0.25 0.5v-0.75c0.975 -0.397 1.437 -0.115 2.25 0.5" fill="#3b3327"/><path d="M146.5 93.5h0.75v0.75l1 -0.25v1l-1 0.25c-0.301 -0.583 -0.541 -1.124 -0.75 -1.75" fill="#ba865c"/><path d="M137.25 89.75c0.266 0.469 0.266 0.469 0.5 1l-0.25 0.5 -1 -0.25 -0.5 1v-1.25h0.75v-0.5h0.5z" fill="#5e534e"/><path d="M145 90c0.484 0.188 0.484 0.188 1 0.5 0.188 0.531 0.188 0.531 0.25 1h-1.25c-0.25 -0.75 -0.25 -0.75 0 -1.5" fill="#766256"/><path d="M148.25 84.25h0.5c-0.142 0.906 -0.481 1.314 -1.141 1.938l-0.485 0.465L146.75 87l-0.25 -0.75 0.383 -0.31 0.492 -0.408 0.492 -0.404L148.25 84.75z" fill="#39302b"/><path d="M118.5 129.75h0.75c0 0.75 0 0.75 -0.625 1.422L118 131.75c0 -1.5 0 -1.5 0.5 -2" fill="#1c1719"/><path d="M98.75 109.75c1.152 0.18 2.168 0.578 3.25 1 -0.81 0.272 -1.256 0.235 -2.047 -0.078l-0.526 -0.2C99 110.25 99 110.25 98.75 109.75" fill="#b49077"/><path d="M136.5 109.5h0.75l0.5 1.25h-0.75v0.5l-0.5 -0.25z" fill="#bab7c6"/><path d="M127.75 108.75c0.484 0.968 0.186 1.979 0 3l-0.5 -0.25c-0.063 -1.906 -0.063 -1.906 0.5 -2.75" fill="#817888"/><path d="m167.5 104 0.5 1 -1 1 -0.5 -0.25a14.125 14.125 0 0 1 1 -1.75" fill="#26211f"/><path d="M128.5 84.75c0.532 0.266 0.842 0.573 1.25 1l-0.5 1.25c-0.524 -0.59 -0.743 -0.886 -0.797 -1.688z" fill="#956c71"/><path d="m148 84.25 0.5 0.5c-0.563 0.516 -0.563 0.516 -1.25 1l-1 -0.25z" fill="#4a4541"/><path d="M164.75 140.5h0.25l0.25 2.25c-0.703 0.391 -0.703 0.391 -1.5 0.75l-0.75 -0.25 0.735 -0.25c0.792 -0.402 0.792 -0.402 0.921 -0.995 0.058 -0.499 0.078 -1.002 0.095 -1.505" fill="#332423"/><path d="m126.25 119.25 0.5 1 -1.25 1.5c-0.25 -0.75 -0.25 -0.75 -0.056 -1.206z" fill="#4d4344"/><path d="m124 111.5 1 0.25 -0.25 1h-1z" fill="#e3ded6"/><path d="m148 106 0.25 0.5h-0.5l-0.5 1 -0.75 -0.25v-0.75z" fill="#b4b2c2"/><path d="M127.75 104h1v0.5h1l-0.25 0.75 -0.25 -0.25a17.5 17.5 0 0 0 -1.016 -0.141L127.25 104.75l0.5 -0.25z" fill="#d0cdd7"/><path d="M131.75 97.75h0.5l0.203 0.86L132.75 99.5l0.75 0.25 -0.75 0.25c-1 -1.125 -1 -1.125 -1 -2.25" fill="#aea983"/><path d="m131.5 96.5 -0.25 0.75 -1.75 0.25v-0.5c1.097 -0.801 1.097 -0.801 2 -0.5" fill="#dda770"/><path d="m141.25 95.25 0.5 0.25 -0.25 2.25 -0.5 -0.25c-0.031 -1.688 -0.031 -1.688 0.25 -2.25" fill="#ebe5db"/><path d="M133.25 95.5c-1.156 1 -1.156 1 -2 1l-0.5 -0.5c0.851 -0.523 1.513 -0.545 2.5 -0.5" fill="#b38c6c"/><path d="M133.25 95.75h2v0.75l-2 -0.25z" fill="#1d1a13"/><path d="M126.75 93.75h0.5l0.25 1h0.75l-0.25 0.75 -1.25 -0.25z" fill="#cf9159"/><path d="m147.5 89.25 -0.75 0.25 -0.25 0.75 -1.25 -0.25c0.73 -0.8 1.156 -1.115 2.25 -0.75" fill="#e1e3e4"/><path d="m130 89.75 -0.25 1h-1.25v-1c0.623 -0.311 0.853 -0.194 1.5 0" fill="#67545f"/><path d="M136 114.25a31.25 31.25 0 0 1 1.5 1v0.5h-1c-0.438 -0.625 -0.438 -0.625 -0.75 -1.25z" fill="#e5e4e0"/><path d="M155.75 111.75c-0.678 0.651 -0.973 0.749 -1.938 0.797L153 112.5c0.842 -0.842 1.614 -0.775 2.75 -0.75" fill="#b8937b"/><path d="m124 99.5 0.75 0.25v1.5l-0.5 0.25v-0.5l-1 -0.25 0.75 -0.25z" fill="#30271f"/><path d="m145.5 92.75 0.25 0.75 0.5 0.125 0.5 0.125 0.25 0.75h-0.5v-0.5l-1.25 -0.25 -0.25 -0.75z" fill="#d19260"/><path d="M158.703 127.063 159.25 127.25c-0.566 0.566 -0.993 0.76 -1.75 1l-0.75 -0.25c1.077 -1.016 1.077 -1.016 1.953 -0.938" fill="#1d1819"/><path d="M166.25 124.25v0.5l-1.75 0.75 -0.5 -0.5c0.652 -0.87 1.208 -0.82 2.25 -0.75" fill="#413940"/><path d="m121 115.5 0.5 0.25c0.156 0.766 0.156 0.766 0.25 1.5l-1.25 -0.25z" fill="#4c4342"/><path d="m149.75 110.25 0.25 1h-1.75v-0.75c0.5 -0.25 0.5 -0.25 1.5 -0.25" fill="#bdbcc7"/><path d="m126.5 108.25 0.5 0.5c-0.094 0.656 -0.094 0.656 -0.25 1.25h-0.75c0.219 -1.469 0.219 -1.469 0.5 -1.75" fill="#a2a0aa"/><path d="M124.5 106c0.25 0.75 0.25 0.75 0.016 1.297L124.25 107.75l-1 -0.25c0.344 -0.5 0.344 -0.5 0.75 -1h0.5z" fill="#d69d72"/><path d="m142.25 96.25 0.25 0.5 0.75 0.25 -0.5 1 -0.5 -0.25v-0.75l-0.5 -0.25z" fill="#7d7b74"/><path d="M146.75 95h0.5c0.345 0.569 0.514 0.875 0.438 1.547C147.5 97 147.5 97 147 97.25l0.25 -1.5h-0.5z" fill="#ce9767"/><path d="M146.75 91q0.502 0.356 1 0.719l0.563 0.404L148.75 92.5v0.5c-0.972 -0.315 -1.474 -0.613 -2 -1.5z" fill="#41322f"/><path d="m144.5 88 0.5 0.25 -1.5 2.25c-0.203 -0.406 -0.203 -0.406 -0.25 -1 0.367 -0.561 0.79 -1.006 1.25 -1.5" fill="#71675c"/><path d="M129.25 86.75c0.811 0.598 1.377 1.051 1.75 2l-1.75 -0.5 0.5 -0.5z" fill="#584450"/><path d="M127.25 174.5h2v0.5l-2 0.25z" fill="#e2e1e1"/><path d="m100.25 145.5 2.5 0.75v0.75l-2.5 -1.25z" fill="#2c2729"/><path d="M119 115.25h0.75l0.5 1 -1.25 0.25z" fill="#6a584c"/><path d="m116 108.75 0.5 0.25c-0.451 0.816 -0.709 1.222 -1.5 1.75 0.15 -0.588 0.318 -1.171 0.5 -1.75z" fill="#46332c"/><path d="M128.5 108c1.139 -0.092 1.139 -0.092 1.703 0.375L130.5 108.75c-0.578 0.156 -0.578 0.156 -1.25 0.25l-0.75 -0.5z" fill="#e6e4e2"/><path d="M122.25 106.75c0.242 0.78 0.247 1.38 0.141 2.188l-0.077 0.606L122.25 110h-0.25a78 78 0 0 1 -0.156 -1.203l-0.088 -0.677C121.75 107.5 121.75 107.5 122.25 106.75" fill="#8c6752"/><path d="m125.5 105 0.5 1c-0.344 0.375 -0.344 0.375 -0.75 0.75h-0.5c0.153 -0.741 0.314 -1.095 0.75 -1.75" fill="#aba2bb"/><path d="M148.25 100h1l-0.25 2 -0.5 -0.25a27.25 27.25 0 0 1 -0.25 -1.75" fill="#ad886c"/><path d="M170.5 100c0.172 0.453 0.172 0.453 0.25 1 -0.359 0.438 -0.359 0.438 -0.75 0.75l-0.25 -1.25z" fill="#3d3534"/><path d="M130 97.75h1.25v1l-1.25 -0.25z" fill="#e5ae78"/><path d="m127.25 92.25 0.5 1h0.75l-0.25 1h-0.5c-0.441 -0.772 -0.5 -1.058 -0.5 -2" fill="#7f604f"/><path d="M148.75 92.25h0.25l0.25 2.75 -0.5 -0.25v-0.75l-0.5 -0.25z" fill="#352521"/><path d="M130.75 89.688c0.75 0.063 0.75 0.063 1.25 0.563 -0.924 0.237 -1.576 0.237 -2.5 0 0.5 -0.5 0.5 -0.5 1.25 -0.563" fill="#c1c1c3"/><path d="M137.5 88.25h0.75l-0.25 1.75 -0.75 -0.5z" fill="#5b514c"/><path d="m125.5 113.5 0.25 0.5c-0.234 0.656 -0.234 0.656 -0.5 1.25l-0.75 -0.25v-1.25l0.25 0.5h0.5z" fill="#dad8d6"/><path d="m108 112.75 -0.25 0.5c-1.438 -0.188 -1.438 -0.188 -2 -0.75 0.8 -0.4 1.431 -0.008 2.25 0.25" fill="#af8d75"/><path d="M125.5 102h1.25l-1 1.25 0.75 0.25 -0.5 0.25 -0.5 -0.25z" fill="#aa897f"/><path d="M138.75 101h1.5v0.75h-1.25z" fill="#cb9690"/><path d="M128 99.75c0.76 0.071 1.097 0.315 1.75 0.75h-2.5z" fill="#e1a36d"/><path d="m144.25 96.5 1 0.25v1.5l-0.5 0.25z" fill="#7b8e73"/><path d="m127 95.5 0.25 0.75c0.504 0.183 0.504 0.183 1 0.25 -0.822 0.2 -1.177 0.274 -2 0v-0.75z" fill="#ce8b51"/><path d="m137.25 95.5 -0.25 0.75c-0.515 0.172 -0.515 0.172 -1 0.25l-0.5 -0.75c0.75 -0.25 0.75 -0.25 1.75 -0.25" fill="#dfbea0"/></svg>