<?xml version="1.0" encoding="UTF-8"?>
<svg xmlns="http://www.w3.org/2000/svg" xmlns:xlink="http://www.w3.org/1999/xlink" width="128px" height="128px" viewBox="0 0 128 128" version="1.1">
<g id="surface1">
<path style=" stroke:none;fill-rule:nonzero;fill:rgb(53.333336%,77.254903%,80.000001%);fill-opacity:1;" d="M 128 64 C 128 99.347656 99.347656 128 64 128 C 28.652344 128 0 99.347656 0 64 C 0 28.652344 28.652344 0 64 0 C 99.347656 0 128 28.652344 128 64 Z M 128 64 "/>
<path style=" stroke:none;fill-rule:nonzero;fill:rgb(50.196081%,72.549021%,74.901962%);fill-opacity:1;" d="M 114 56.484375 C 114 56.324219 113.363281 56.035156 112.777344 55.921875 L 67.097656 50.039062 C 65.414062 49.710938 62.644531 49.675781 60.964844 50.003906 L 15.226562 55.800781 C 14.65625 55.914062 14 56.058594 14 56.238281 L 14 59 L 40.09375 123.367188 C 47.480469 126.347656 55.546875 128 64 128 C 92.59375 128 116.800781 109.246094 125.007812 83.367188 Z M 114 56.484375 "/>
<path style=" stroke:none;fill-rule:nonzero;fill:rgb(17.647059%,25.882354%,30.19608%);fill-opacity:1;" d="M 32 55 L 32 83 C 33.097656 89 47.085938 93.898438 64 93.898438 C 80.914062 93.898438 94.75 89 95.847656 83 L 96 83 L 96 55 Z M 32 55 "/>
<path style=" stroke:none;fill-rule:nonzero;fill:rgb(14.509805%,21.568628%,25.098041%);fill-opacity:1;" d="M 93 55 L 93 83 C 91.9375 89 78.644531 93.527344 62.441406 93.8125 C 62.960938 93.820312 63.476562 93.863281 64 93.863281 C 80.914062 93.863281 94.902344 89 96 83 L 96 55 Z M 93 55 "/>
<path style=" stroke:none;fill-rule:nonzero;fill:rgb(11.764706%,17.254902%,20%);fill-opacity:1;" d="M 112 56 L 112 57.257812 L 66.917969 51.53125 C 65.238281 51.203125 62.804688 51.203125 61.121094 51.53125 L 17 57.105469 L 17 57 L 14 57 L 14 58.382812 C 14 58.574219 14.589844 58.773438 15.109375 58.949219 L 52.445312 70.167969 C 54.066406 70.722656 56.773438 70.84375 58.4375 70.433594 L 112.800781 58.683594 C 113.371094 58.539062 114 58.378906 114 58.210938 L 114 57 Z M 112 56 "/>
<path style=" stroke:none;fill-rule:nonzero;fill:rgb(17.647059%,25.882354%,30.19608%);fill-opacity:1;" d="M 114 56.207031 C 114 56.046875 113.363281 55.898438 112.777344 55.785156 L 67.097656 49.972656 C 65.414062 49.644531 62.644531 49.644531 60.964844 49.972656 L 15.226562 55.785156 C 14.65625 55.894531 14 56.058594 14 56.238281 L 14 57 C 14 57.191406 14.589844 57.214844 15.109375 57.390625 L 52.445312 68.609375 C 54.066406 69.164062 56.773438 69.285156 58.4375 68.878906 C 58.4375 68.878906 114 57.167969 114 57.003906 Z M 114 56.207031 "/>
<path style=" stroke:none;fill-rule:nonzero;fill:rgb(100%,83.137256%,39.215687%);fill-opacity:1;" d="M 78.5 95.3125 C 77.640625 95.3125 77 94.617188 77 93.757812 L 77 66.066406 L 59.496094 60.195312 C 58.679688 59.921875 58.300781 59.039062 58.570312 58.222656 C 58.84375 57.40625 59.757812 56.964844 60.570312 57.238281 L 79.097656 63.46875 C 79.734375 63.683594 81 64.328125 81 65 L 81 94 C 81 94.859375 79.359375 95.3125 78.5 95.3125 Z M 78.5 95.3125 "/>
<path style=" stroke:none;fill-rule:nonzero;fill:rgb(88.235295%,41.960785%,35.294119%);fill-opacity:1;" d="M 83 97 C 83 97 83 94.3125 83 93.757812 C 83 91.605469 81.148438 89.859375 79 89.859375 C 76.851562 89.859375 75 91.605469 75 93.757812 C 75 94.3125 75 97 75 97 Z M 83 97 "/>
<path style=" stroke:none;fill-rule:nonzero;fill:rgb(100%,83.137256%,39.215687%);fill-opacity:1;" d="M 75 97 L 83 97 L 83 106 L 75 106 Z M 75 97 "/>
<path style=" stroke:none;fill-rule:nonzero;fill:rgb(100%,89.019608%,60.000002%);fill-opacity:1;" d="M 76 97 L 77 97 L 77 106 L 76 106 Z M 76 97 "/>
<path style=" stroke:none;fill-rule:nonzero;fill:rgb(100%,89.019608%,60.000002%);fill-opacity:1;" d="M 78 97 L 79 97 L 79 106 L 78 106 Z M 78 97 "/>
<path style=" stroke:none;fill-rule:nonzero;fill:rgb(100%,89.019608%,60.000002%);fill-opacity:1;" d="M 80 97 L 81 97 L 81 106 L 80 106 Z M 80 97 "/>
</g>
</svg>
