<?xml version="1.0" encoding="UTF-8"?>
<svg version="1.1" xmlns="http://www.w3.org/2000/svg" width="141" height="179">
<path d="M0 0 C46.53 0 93.06 0 141 0 C141 59.07 141 118.14 141 179 C94.47 179 47.94 179 0 179 C0 119.93 0 60.86 0 0 Z " fill="#828189" transform="translate(0,0)"/>
<path d="M0 0 C46.53 0 93.06 0 141 0 C141 59.07 141 118.14 141 179 C94.47 179 47.94 179 0 179 C0 119.93 0 60.86 0 0 Z M2 2 C2 44.57 2 87.14 2 131 C5.3 129.35 8.6 127.7 12 126 C14.90955606 125.03440545 17.73473944 124.15218628 20.6875 123.375 C26.01589675 121.93725575 30.925587 120.21355374 36 118 C39.58949765 116.82942709 43.18548454 115.68812233 46.79296875 114.57421875 C50.66321925 112.67444902 51.99521604 110.76581006 54 107 C54 106.34 54 105.68 54 105 C55.10408203 105.52400391 55.10408203 105.52400391 56.23046875 106.05859375 C57.20628906 106.51363281 58.18210938 106.96867187 59.1875 107.4375 C60.15042969 107.88996094 61.11335938 108.34242187 62.10546875 108.80859375 C68.38968229 111.39521336 74.20615388 111.01554571 80.91796875 110.83984375 C84 111 84 111 86 113 C88.97 110.03 91.94 107.06 95 104 C96.07961452 106.15922904 97.14316631 108.32859446 98.10742188 110.54174805 C100.8689505 114.12867165 104.07043054 114.94412911 108.28125 116.33203125 C109.0911438 116.6135051 109.9010376 116.89497894 110.73547363 117.1849823 C112.44404553 117.77532603 114.15553131 118.3572945 115.86962891 118.93139648 C118.49619904 119.81122678 121.113655 120.71465622 123.73046875 121.62304688 C125.39275363 122.19409446 127.05549951 122.76380226 128.71875 123.33203125 C129.50318481 123.60070511 130.28761963 123.86937897 131.0958252 124.14619446 C134.17439144 125.1745396 136.73149075 126 140 126 C140 85.08 140 44.16 140 2 C94.46 2 48.92 2 2 2 Z " fill="#D3D1DB" transform="translate(0,0)"/>
<path d="M0 0 C46.53 0 93.06 0 141 0 C141 59.07 141 118.14 141 179 C94.47 179 47.94 179 0 179 C0 119.93 0 60.86 0 0 Z M2 2 C2 59.75 2 117.5 2 177 C24.11 177 46.22 177 69 177 C69.33 172.05 69.66 167.1 70 162 C70.66 161.34 71.32 160.68 72 160 C72 158.68 72 157.36 72 156 C72.99 155.67 73.98 155.34 75 155 C75.0309375 154.10539063 75.061875 153.21078125 75.09375 152.2890625 C76.30013582 147.91071396 78.79181511 146.57944113 82.5 144.375 C87.04676588 141.85237961 87.04676588 141.85237961 89.90625 137.7265625 C89.9371875 137.15679687 89.968125 136.58703125 90 136 C90.66 136 91.32 136 92 136 C92.33 135.34 92.66 134.68 93 134 C95.0625 133.375 95.0625 133.375 97 133 C96.62746094 132.46890625 96.25492187 131.9378125 95.87109375 131.390625 C95.39800781 130.68421875 94.92492187 129.9778125 94.4375 129.25 C93.96183594 128.55390625 93.48617187 127.8578125 92.99609375 127.140625 C92 125 92 125 92.21875 123.0234375 C93.40242505 119.95771912 94.77069983 117.00013774 96.16015625 114.0234375 C97.12778299 112.0572667 97.12778299 112.0572667 97 110 C97.66 110 98.32 110 99 110 C99.33 110.99 99.66 111.98 100 113 C102.69573889 114.19428342 105.30176835 115.19480332 108.0859375 116.13671875 C108.89866119 116.42102249 109.71138489 116.70532623 110.54873657 116.99824524 C112.27015413 117.59787734 113.99356346 118.19181693 115.71875 118.78051758 C118.36133269 119.68283327 120.99735774 120.60248885 123.6328125 121.52539062 C125.30433023 122.10519765 126.97619439 122.68400714 128.6484375 123.26171875 C129.83450089 123.6741407 129.83450089 123.6741407 131.04452515 124.09489441 C134.1411973 125.14734336 136.70563957 126 140 126 C140 85.08 140 44.16 140 2 C94.46 2 48.92 2 2 2 Z " fill="#DAD5DF" transform="translate(0,0)"/>
<path d="M0 0 C0.70922607 0.00088623 1.41845215 0.00177246 2.14916992 0.00268555 C7.13171035 0.11508226 10.72914871 0.93550975 15.0546875 3.3203125 C17.55093134 4.55471879 19.89989453 5.00836992 22.625 5.5625 C31.20883055 7.74462546 37.00406967 14.50893107 42.1875 21.375 C46.09133306 29.57304943 44.40319063 38.92767949 42.1875 47.375 C39.2175 48.035 36.2475 48.695 33.1875 49.375 C32.1975 46.405 32.1975 46.405 31.1875 43.375 C30.424375 43.230625 29.66125 43.08625 28.875 42.9375 C26.1875 42.375 26.1875 42.375 23.1875 41.375 C23.1875 40.385 23.1875 39.395 23.1875 38.375 C25.1675 37.88 25.1675 37.88 27.1875 37.375 C26.8575 36.385 26.5275 35.395 26.1875 34.375 C25.1975 34.705 24.2075 35.035 23.1875 35.375 C20.62115139 35.60218496 18.07071893 35.79108184 15.5 35.9375 C14.4471582 36.00227539 14.4471582 36.00227539 13.37304688 36.06835938 C11.64474794 36.1741736 9.9161489 36.27506581 8.1875 36.375 C8.1875 35.715 8.1875 35.055 8.1875 34.375 C10.1675 33.715 12.1475 33.055 14.1875 32.375 C13.6925 30.89 13.6925 30.89 13.1875 29.375 C6.2429929 29.71102454 -0.2109739 30.97380092 -5.8125 35.375 C-6.6597241 37.95901821 -6.6597241 37.95901821 -6.8125 40.375 C-7.71613281 40.43558594 -8.61976562 40.49617188 -9.55078125 40.55859375 C-10.73027344 40.64238281 -11.90976562 40.72617187 -13.125 40.8125 C-14.29675781 40.89371094 -15.46851563 40.97492187 -16.67578125 41.05859375 C-19.83840958 41.2617371 -19.83840958 41.2617371 -22.8125 42.375 C-22.8125 44.025 -22.8125 45.675 -22.8125 47.375 C-24.2975 47.87 -24.2975 47.87 -25.8125 48.375 C-26.1425 51.015 -26.4725 53.655 -26.8125 56.375 C-27.4725 56.045 -28.1325 55.715 -28.8125 55.375 C-28.8125 53.725 -28.8125 52.075 -28.8125 50.375 C-30.1325 51.035 -31.4525 51.695 -32.8125 52.375 C-34.16689668 49.66620665 -33.87751451 47.36566732 -33.8125 44.375 C-34.4725 44.375 -35.1325 44.375 -35.8125 44.375 C-38.34363227 37.52605385 -38.46099687 31.49624217 -35.71875 24.640625 C-30.86183782 15.08869771 -24.18539349 6.06670678 -13.8125 2.375 C-12.905 2.02179687 -11.9975 1.66859375 -11.0625 1.3046875 C-7.33464843 0.23830688 -3.84729072 -0.00869082 0 0 Z " fill="#1E1D1C" transform="translate(69.8125,21.625)"/>
<path d="M0 0 C0.12375 0.639375 0.2475 1.27875 0.375 1.9375 C0.58125 2.618125 0.7875 3.29875 1 4 C1.66 4.33 2.32 4.66 3 5 C0.36 5.33 -2.28 5.66 -5 6 C-5 6.66 -5 7.32 -5 8 C-4.34 7.67 -3.68 7.34 -3 7 C-0.87934236 6.76849964 1.24706856 6.58812885 3.375 6.4375 C4.51710937 6.35371094 5.65921875 6.26992188 6.8359375 6.18359375 C9.2207311 6.04521684 11.61119513 6 14 6 C14.495 7.98 14.495 7.98 15 10 C13.35 10 11.7 10 10 10 C10.495 10.99 10.495 10.99 11 12 C11.99 12.33 12.98 12.66 14 13 C15.34090759 13.65129797 16.67592331 14.31513275 18 15 C18.02909763 18.24998112 18.04683161 21.49992857 18.0625 24.75 C18.07087891 25.67039062 18.07925781 26.59078125 18.08789062 27.5390625 C18.09111328 28.42851563 18.09433594 29.31796875 18.09765625 30.234375 C18.10289307 31.05131836 18.10812988 31.86826172 18.11352539 32.70996094 C18.00299021 34.93968135 17.62055567 36.86133755 17 39 C16.34 39 15.68 39 15 39 C14.95875 39.845625 14.9175 40.69125 14.875 41.5625 C13.69137942 46.21243799 11.88508054 49.1227895 8 52 C3.92065102 53.16420622 -0.08752007 53.34177957 -4.3125 53.5 C-5.40240234 53.5721875 -6.49230469 53.644375 -7.61523438 53.71875 C-23.53950627 54.63801043 -23.53950627 54.63801043 -27.81347656 51.79272461 C-33.54423751 46.61170604 -34.92146069 37.31175268 -36 30 C-35.67 28.02 -35.34 26.04 -35 24 C-30.05 24 -25.1 24 -20 24 C-19.75 37.625 -19.75 37.625 -22 41 C-18.53777385 42.06723961 -15.35960734 42.10173486 -11.75 42.0625 C-10.13351563 42.04896484 -10.13351563 42.04896484 -8.484375 42.03515625 C-7.25460938 42.01775391 -7.25460938 42.01775391 -6 42 C-8.97 41.67 -11.94 41.34 -15 41 C-14.67 40.01 -14.34 39.02 -14 38 C-10.04 38 -6.08 38 -2 38 C-6.45043346 35.32973992 -8.20811552 34.74540425 -13 34 C-13.66 33.34 -14.32 32.68 -15 32 C-15 31.01 -15 30.02 -15 29 C-12.36 29 -9.72 29 -7 29 C-7.33 28.34 -7.66 27.68 -8 27 C-9.89533342 26.53476937 -9.89533342 26.53476937 -12.0625 26.375 C-13.361875 26.25125 -14.66125 26.1275 -16 26 C-15.67 22.37 -15.34 18.74 -15 15 C-13.68 15 -12.36 15 -11 15 C-10.67 16.65 -10.34 18.3 -10 20 C-9.34 20 -8.68 20 -8 20 C-8.185625 18.88625 -8.37125 17.7725 -8.5625 16.625 C-9 13 -9 13 -8 11 C-8.33 11 -8.66 11 -9 11 C-10.32 11 -11.64 11 -13 11 C-13.33 11.66 -13.66 12.32 -14 13 C-14.66 12.67 -15.32 12.34 -16 12 C-16.0928125 13.6396875 -16.0928125 13.6396875 -16.1875 15.3125 C-17 19 -17 19 -19.0625 20.9375 C-22.92836491 22.33579156 -25.90193009 22.20837644 -30 22 C-29.34 21.01 -28.68 20.02 -28 19 C-25.375 18.8125 -25.375 18.8125 -23 19 C-23.33 18.01 -23.66 17.02 -24 16 C-26.31 15.67 -28.62 15.34 -31 15 C-31 14.34 -31 13.68 -31 13 C-28.59454362 11.79727181 -27.05003047 11.89928528 -24.375 11.9375 C-23.14910156 11.95103516 -23.14910156 11.95103516 -21.8984375 11.96484375 C-20.95871094 11.98224609 -20.95871094 11.98224609 -20 12 C-20.12375 10.8553125 -20.12375 10.8553125 -20.25 9.6875 C-20 7 -20 7 -18.32421875 5.46875 C-15.79631755 3.87128638 -13.37323514 2.82997832 -10.5625 1.8125 C-9.17224609 1.29623047 -9.17224609 1.29623047 -7.75390625 0.76953125 C-5.02272364 0.00634973 -2.81820315 -0.14832648 0 0 Z " fill="#BFA18E" transform="translate(83,50)"/>
<path d="M0 0 C2 1 2 1 3.125 4.0625 C3.41375 5.031875 3.7025 6.00125 4 7 C3.34 7 2.68 7 2 7 C1.80664062 7.61488281 1.61328125 8.22976562 1.4140625 8.86328125 C1.15367188 9.67152344 0.89328125 10.47976562 0.625 11.3125 C0.36976562 12.11300781 0.11453125 12.91351563 -0.1484375 13.73828125 C-1 16 -1 16 -3 19 C-2.61039263 22.04264806 -1.3356267 24.54394832 0.0625 27.25 C0.60583984 28.30960938 0.60583984 28.30960938 1.16015625 29.390625 C1.43730469 29.92171875 1.71445313 30.4528125 2 31 C0.68 31 -0.64 31 -2 31 C-2.33 31.66 -2.66 32.32 -3 33 C-3.66 33 -4.32 33 -5 33 C-5.09667969 33.87785156 -5.09667969 33.87785156 -5.1953125 34.7734375 C-6.32703418 37.90490041 -8.12241654 38.81387987 -10.875 40.625 C-11.75929687 41.21539062 -12.64359375 41.80578125 -13.5546875 42.4140625 C-14.76511719 43.19910156 -14.76511719 43.19910156 -16 44 C-19.31460705 45.70892499 -19.31460705 45.70892499 -19.6875 49.125 C-19.8421875 50.548125 -19.8421875 50.548125 -20 52 C-20.99 51.67 -21.98 51.34 -23 51 C-22.773125 50.13375 -22.54625 49.2675 -22.3125 48.375 C-21.91316384 44.06216947 -22.61380513 42.61544678 -25 39 C-29.48060479 33.85308779 -29.48060479 33.85308779 -35 30 C-33.55746343 33.36591866 -31.66735273 35.51047079 -29 38 C-31.1875 38.5 -31.1875 38.5 -34 38 C-36.3981167 35.16114834 -39 31.81204169 -39 28 C-39.66 28 -40.32 28 -41 28 C-41.08507813 28.61359375 -41.17015625 29.2271875 -41.2578125 29.859375 C-42 32 -42 32 -43.7421875 33.265625 C-44.79792969 33.75289062 -44.79792969 33.75289062 -45.875 34.25 C-46.57367188 34.58515625 -47.27234375 34.9203125 -47.9921875 35.265625 C-50 36 -50 36 -53 36 C-53 35.34 -53 34.68 -53 34 C-51.32655461 32.84146088 -49.6486734 31.68677913 -47.921875 30.609375 C-44.65988127 27.87778676 -42.28208499 25.10482338 -41.70068359 20.76660156 C-41.64271648 18.24931665 -41.6995603 15.76530117 -41.8125 13.25 C-41.86468482 11.54699309 -41.91305091 9.84386354 -41.95703125 8.140625 C-41.98772705 7.39329102 -42.01842285 6.64595703 -42.05004883 5.87597656 C-42 4 -42 4 -41 2 C-37.86713913 2.68418801 -35.12938762 3.80169102 -32.1875 5.0625 C-26.08709911 7.36251601 -20.48647498 7.24403843 -14.08984375 6.9453125 C-11 7 -11 7 -9 9 C-6.03 6.03 -3.06 3.06 0 0 Z " fill="#C4A996" transform="translate(95,103)"/>
<path d="M0 0 C46.53 0 93.06 0 141 0 C141 59.07 141 118.14 141 179 C94.47 179 47.94 179 0 179 C0 119.93 0 60.86 0 0 Z M2 2 C2 59.75 2 117.5 2 177 C47.54 177 93.08 177 140 177 C140 119.25 140 61.5 140 2 C94.46 2 48.92 2 2 2 Z " fill="#FFFFFF" transform="translate(0,0)"/>
<path d="M0 0 C-1.98 0.33 -3.96 0.66 -6 1 C-6 3.97 -6 6.94 -6 10 C-6.66 10 -7.32 10 -8 10 C-8.66 8.35 -9.32 6.7 -10 5 C-10.66 5 -11.32 5 -12 5 C-12.66 8.63 -13.32 12.26 -14 16 C-11.36 16 -8.72 16 -6 16 C-5.505 17.485 -5.505 17.485 -5 19 C-7.64 19 -10.28 19 -13 19 C-13 19.99 -13 20.98 -13 22 C-12.278125 21.9175 -11.55625 21.835 -10.8125 21.75 C-7.12876284 22.0774433 -5.74864202 23.60374798 -3 26 C-1.68861096 26.70885894 -0.36222983 27.39456452 1 28 C-1.64458379 29.32229189 -3.67761301 29.09677194 -6.625 29.0625 C-7.62789062 29.05347656 -8.63078125 29.04445313 -9.6640625 29.03515625 C-10.43492188 29.02355469 -11.20578125 29.01195313 -12 29 C-12.33 29.66 -12.66 30.32 -13 31 C-9.7 31 -6.4 31 -3 31 C-3.495 31.99 -3.495 31.99 -4 33 C-5.91635217 33.05423638 -7.83314925 33.09289963 -9.75 33.125 C-10.81734375 33.14820313 -11.8846875 33.17140625 -12.984375 33.1953125 C-15.92470106 33.00487687 -17.52361878 32.52670104 -20 31 C-19.7834375 29.8553125 -19.7834375 29.8553125 -19.5625 28.6875 C-18.81753708 23.80385418 -18.42019873 18.92232793 -18 14 C-22.95 14 -27.9 14 -33 14 C-32.43107688 27.6076132 -32.43107688 27.6076132 -26.3125 39.125 C-25.549375 39.74375 -24.78625 40.3625 -24 41 C-24 41.66 -24 42.32 -24 43 C-19.99594914 43.15205256 -16.00414632 43.10875019 -12 43 C-11.13181641 42.97776367 -10.26363281 42.95552734 -9.36914062 42.93261719 C-6.45046386 42.83372978 -3.54016493 42.67289678 -0.625 42.5 C0.32584473 42.47180176 1.27668945 42.44360352 2.25634766 42.41455078 C6.18535731 42.13653192 8.94761593 41.9324259 11.96191406 39.26171875 C14.52011741 35.97673577 16.17465622 33.10254566 17 29 C17.66 29 18.32 29 19 29 C19.33 21.74 19.66 14.48 20 7 C20.66 7.33 21.32 7.66 22 8 C22 8.99 22 9.98 22 11 C22.99 10.67 23.98 10.34 25 10 C24.67 13.3 24.34 16.6 24 20 C23.34 20 22.68 20 22 20 C21.67 22.64 21.34 25.28 21 28 C21.66 28.33 22.32 28.66 23 29 C22.525625 29.45375 22.05125 29.9075 21.5625 30.375 C18.43891628 33.62352707 18.71618875 36.74560538 18.4375 41.125 C18.35371094 42.40632813 18.26992187 43.68765625 18.18359375 45.0078125 C18.09271484 46.48894531 18.09271484 46.48894531 18 48 C17.34 48 16.68 48 16 48 C15.34 46.68 14.68 45.36 14 44 C11.03 46.97 8.06 49.94 5 53 C4.34 52.34 3.68 51.68 3 51 C0.68748683 50.95907056 -1.62714266 51.01710514 -3.9375 51.125 C-12.67455189 51.35821216 -19.32778512 48.91547518 -27 45 C-27.33 45.99 -27.66 46.98 -28 48 C-28.33 48 -28.66 48 -29 48 C-29.061875 46.845 -29.12375 45.69 -29.1875 44.5 C-29.91154197 38.66629041 -32.75505325 33.8202271 -37.3125 30.125 C-40.54782511 26.0508869 -39.24586654 20.5070326 -38.76171875 15.5703125 C-38.53987085 13.7094391 -38.27463963 11.85381752 -38 10 C-36.68 9.67 -35.36 9.34 -34 9 C-34.33 7.02 -34.66 5.04 -35 3 C-32.36 2.67 -29.72 2.34 -27 2 C-27.99 2.495 -27.99 2.495 -29 3 C-29 3.66 -29 4.32 -29 5 C-26.69 5 -24.38 5 -22 5 C-21.67 6.32 -21.34 7.64 -21 9 C-22.98 9.66 -24.96 10.32 -27 11 C-21.08048023 11.44920761 -21.08048023 11.44920761 -16 9 C-15.690625 7.2984375 -15.690625 7.2984375 -15.375 5.5625 C-14 2 -14 2 -11.796875 0.83984375 C-7.54092072 -0.49791966 -4.33089633 -1.45034668 0 0 Z " fill="#9D7D69" transform="translate(81,60)"/>
<path d="M0 0 C0.70922607 0.00088623 1.41845215 0.00177246 2.14916992 0.00268555 C7.13171035 0.11508226 10.72914871 0.93550975 15.0546875 3.3203125 C17.55093134 4.55471879 19.89989453 5.00836992 22.625 5.5625 C31.20883055 7.74462546 37.00406967 14.50893107 42.1875 21.375 C46.09133306 29.57304943 44.40319063 38.92767949 42.1875 47.375 C40.2075 47.705 38.2275 48.035 36.1875 48.375 C35.6925 46.395 35.6925 46.395 35.1875 44.375 C36.8375 44.045 38.4875 43.715 40.1875 43.375 C40.1875 41.725 40.1875 40.075 40.1875 38.375 C40.8475 38.045 41.5075 37.715 42.1875 37.375 C42.1875 34.405 42.1875 31.435 42.1875 28.375 C40.8675 28.375 39.5475 28.375 38.1875 28.375 C37.1975 24.91 37.1975 24.91 36.1875 21.375 C35.5275 21.375 34.8675 21.375 34.1875 21.375 C34.1875 22.695 34.1875 24.015 34.1875 25.375 C32.8675 25.705 31.5475 26.035 30.1875 26.375 C29.1975 22.415 29.1975 22.415 28.1875 18.375 C27.1975 18.375 26.2075 18.375 25.1875 18.375 C23.50513529 17.74900383 21.8351038 17.08747732 20.1875 16.375 C19.8575 17.035 19.5275 17.695 19.1875 18.375 C18.5275 18.045 17.8675 17.715 17.1875 17.375 C17.1875 16.385 17.1875 15.395 17.1875 14.375 C16.18847656 14.19324219 15.18945312 14.01148438 14.16015625 13.82421875 C12.86980469 13.57285156 11.57945313 13.32148437 10.25 13.0625 C8.96222656 12.81886719 7.67445312 12.57523438 6.34765625 12.32421875 C5.30480469 12.01097656 4.26195312 11.69773437 3.1875 11.375 C2.6925 9.89 2.6925 9.89 2.1875 8.375 C-0.66229639 7.25819294 -0.66229639 7.25819294 -3.8125 6.375 C-4.740625 5.7871875 -4.740625 5.7871875 -5.6875 5.1875 C-9.1442614 3.86579711 -12.35332097 4.3481565 -15.8125 5.375 C-18.38991724 6.85058351 -20.49372311 8.49099378 -22.8125 10.375 C-20.43620911 14.52170039 -20.43620911 14.52170039 -16.8125 17.375 C-16.40520772 19.69656597 -16.06811323 22.0318787 -15.8125 24.375 C-13.5025 24.375 -11.1925 24.375 -8.8125 24.375 C-10.17937222 28.36171063 -11.96445093 31.25994633 -14.8125 34.375 C-15.4725 34.375 -16.1325 34.375 -16.8125 34.375 C-17.1425 33.385 -17.4725 32.395 -17.8125 31.375 C-17.4825 30.715 -17.1525 30.055 -16.8125 29.375 C-18.1325 29.045 -19.4525 28.715 -20.8125 28.375 C-20.8125 27.385 -20.8125 26.395 -20.8125 25.375 C-21.575625 25.705 -22.33875 26.035 -23.125 26.375 C-25.8125 27.375 -25.8125 27.375 -28.8125 27.375 C-30.96278304 28.32478897 -30.96278304 28.32478897 -32.8125 29.375 C-32.8125 28.715 -32.8125 28.055 -32.8125 27.375 C-33.1425 28.035 -33.4725 28.695 -33.8125 29.375 C-34.4725 29.375 -35.1325 29.375 -35.8125 29.375 C-35.8125 30.365 -35.8125 31.355 -35.8125 32.375 C-35.1525 32.375 -34.4925 32.375 -33.8125 32.375 C-33.1525 36.335 -32.4925 40.295 -31.8125 44.375 C-33.1325 44.375 -34.4525 44.375 -35.8125 44.375 C-38.34363227 37.52605385 -38.46099687 31.49624217 -35.71875 24.640625 C-30.86183782 15.08869771 -24.18539349 6.06670678 -13.8125 2.375 C-12.905 2.02179687 -11.9975 1.66859375 -11.0625 1.3046875 C-7.33464843 0.23830688 -3.84729072 -0.00869082 0 0 Z M-15.8125 14.375 C-15.1525 15.035 -14.4925 15.695 -13.8125 16.375 C-14.8025 16.705 -15.7925 17.035 -16.8125 17.375 C-16.4825 16.385 -16.1525 15.395 -15.8125 14.375 Z " fill="#232323" transform="translate(69.8125,21.625)"/>
<path d="M0 0 C0.12375 0.639375 0.2475 1.27875 0.375 1.9375 C0.58125 2.618125 0.7875 3.29875 1 4 C1.66 4.33 2.32 4.66 3 5 C0.36 5.33 -2.28 5.66 -5 6 C-5 6.66 -5 7.32 -5 8 C-4.34 7.67 -3.68 7.34 -3 7 C-0.87934236 6.76849964 1.24706856 6.58812885 3.375 6.4375 C4.51710937 6.35371094 5.65921875 6.26992188 6.8359375 6.18359375 C9.2207311 6.04521684 11.61119513 6 14 6 C14.495 7.98 14.495 7.98 15 10 C13.35 10 11.7 10 10 10 C10.495 10.99 10.495 10.99 11 12 C11.99 12.33 12.98 12.66 14 13 C15.34090759 13.65129797 16.67592331 14.31513275 18 15 C18.02909763 18.24998112 18.04683161 21.49992857 18.0625 24.75 C18.07087891 25.67039062 18.07925781 26.59078125 18.08789062 27.5390625 C18.09111328 28.42851563 18.09433594 29.31796875 18.09765625 30.234375 C18.10289307 31.05131836 18.10812988 31.86826172 18.11352539 32.70996094 C18.00299021 34.93968135 17.62055567 36.86133755 17 39 C16.34 39 15.68 39 15 39 C14.95875 39.845625 14.9175 40.69125 14.875 41.5625 C13.69047506 46.21599083 11.89030343 49.12287245 8 52 C3.8798009 53.18633064 -0.16783352 53.38655901 -4.4375 53.5625 C-6.09749023 53.68334961 -6.09749023 53.68334961 -7.79101562 53.80664062 C-13.66801176 54.16143836 -18.47400166 54.09113319 -24 52 C-16.77265186 49.59088395 -9.34186959 49.91610825 -1.828125 50.12695312 C0.11482196 50.15633933 2.05871642 50.08558347 4 50 C4.66 49.34 5.32 48.68 6 48 C6.99 48 7.98 48 9 48 C9 47.01 9 46.02 9 45 C9.66 45 10.32 45 11 45 C11 44.34 11 43.68 11 43 C11.66 43 12.32 43 13 43 C13.09087891 41.95199219 13.09087891 41.95199219 13.18359375 40.8828125 C13.26738281 39.97273438 13.35117188 39.06265625 13.4375 38.125 C13.51871094 37.22007813 13.59992188 36.31515625 13.68359375 35.3828125 C14 33 14 33 15 31 C15.04531014 29.58405811 15.03853449 28.16614248 15 26.75 C14.95219148 23.05081565 15.25387705 19.63734939 16 16 C12.72226496 16.75150023 12.72226496 16.75150023 11 20 C6.71203683 21.08752689 2.53073142 21.10745644 -1.875 21.0625 C-3.02742188 21.05347656 -4.17984375 21.04445313 -5.3671875 21.03515625 C-6.23601562 21.02355469 -7.10484375 21.01195313 -8 21 C-9.125 13.25 -9.125 13.25 -8 11 C-8.33 11 -8.66 11 -9 11 C-10.32 11 -11.64 11 -13 11 C-13.33 11.66 -13.66 12.32 -14 13 C-14.66 12.67 -15.32 12.34 -16 12 C-16.061875 13.093125 -16.12375 14.18625 -16.1875 15.3125 C-17 19 -17 19 -19.0625 20.9375 C-22.92836491 22.33579156 -25.90193009 22.20837644 -30 22 C-29.34 21.01 -28.68 20.02 -28 19 C-25.375 18.8125 -25.375 18.8125 -23 19 C-23.33 18.01 -23.66 17.02 -24 16 C-26.31 15.67 -28.62 15.34 -31 15 C-31 14.34 -31 13.68 -31 13 C-28.59454362 11.79727181 -27.05003047 11.89928528 -24.375 11.9375 C-23.14910156 11.95103516 -23.14910156 11.95103516 -21.8984375 11.96484375 C-20.95871094 11.98224609 -20.95871094 11.98224609 -20 12 C-20.12375 10.8553125 -20.12375 10.8553125 -20.25 9.6875 C-20 7 -20 7 -18.32421875 5.46875 C-15.79631755 3.87128638 -13.37323514 2.82997832 -10.5625 1.8125 C-9.17224609 1.29623047 -9.17224609 1.29623047 -7.75390625 0.76953125 C-5.02272364 0.00634973 -2.81820315 -0.14832648 0 0 Z " fill="#9C877E" transform="translate(83,50)"/>
<path d="M0 0 C0.66 0.33 1.32 0.66 2 1 C2 1.99 2 2.98 2 4 C2.99 3.67 3.98 3.34 5 3 C4.67 6.3 4.34 9.6 4 13 C3.34 13 2.68 13 2 13 C1.67 15.64 1.34 18.28 1 21 C1.66 21.33 2.32 21.66 3 22 C2.525625 22.45375 2.05125 22.9075 1.5625 23.375 C-1.56108372 26.62352707 -1.28381125 29.74560538 -1.5625 34.125 C-1.64628906 35.40632813 -1.73007813 36.68765625 -1.81640625 38.0078125 C-1.90728516 39.48894531 -1.90728516 39.48894531 -2 41 C-2.33 41 -2.66 41 -3 41 C-3.495 38.525 -3.495 38.525 -4 36 C-7.51388411 36.56222146 -10.13676272 38.17911708 -13.12109375 40.0625 C-17.65165231 42.32306976 -22.34349099 42.10893934 -27.3125 42.0625 C-28.56675781 42.05347656 -29.82101563 42.04445312 -31.11328125 42.03515625 C-32.06589844 42.02355469 -33.01851563 42.01195312 -34 42 C-34.33 41.34 -34.66 40.68 -35 40 C-34.360625 39.87625 -33.72125 39.7525 -33.0625 39.625 C-32.381875 39.41875 -31.70125 39.2125 -31 39 C-30.67 38.34 -30.34 37.68 -30 37 C-26.61575531 36.38468278 -23.28783487 36.02038085 -19.85546875 35.77734375 C-13.39288897 35.26203707 -13.39288897 35.26203707 -7.86328125 32.23046875 C-5.35604339 28.95831086 -3.83480644 26.04699642 -3 22 C-2.34 22 -1.68 22 -1 22 C-0.67 14.74 -0.34 7.48 0 0 Z " fill="#977763" transform="translate(101,67)"/>
<path d="M0 0 C0.12375 0.639375 0.2475 1.27875 0.375 1.9375 C0.58125 2.618125 0.7875 3.29875 1 4 C1.66 4.33 2.32 4.66 3 5 C2.30132812 5.09796875 1.60265625 5.1959375 0.8828125 5.296875 C-0.48230469 5.52117188 -0.48230469 5.52117188 -1.875 5.75 C-2.77992187 5.88921875 -3.68484375 6.0284375 -4.6171875 6.171875 C-7.16214243 6.77983843 -7.16214243 6.77983843 -8.3203125 9.078125 C-8.65675781 10.02945313 -8.65675781 10.02945313 -9 11 C-10.32 11 -11.64 11 -13 11 C-13.33 11.66 -13.66 12.32 -14 13 C-14.66 12.67 -15.32 12.34 -16 12 C-16.061875 13.093125 -16.12375 14.18625 -16.1875 15.3125 C-17 19 -17 19 -19.0625 20.9375 C-22.92836491 22.33579156 -25.90193009 22.20837644 -30 22 C-29.34 21.01 -28.68 20.02 -28 19 C-25.375 18.8125 -25.375 18.8125 -23 19 C-23.33 18.01 -23.66 17.02 -24 16 C-26.31 15.67 -28.62 15.34 -31 15 C-31 14.34 -31 13.68 -31 13 C-28.59454362 11.79727181 -27.05003047 11.89928528 -24.375 11.9375 C-23.14910156 11.95103516 -23.14910156 11.95103516 -21.8984375 11.96484375 C-20.95871094 11.98224609 -20.95871094 11.98224609 -20 12 C-20.12375 10.8553125 -20.12375 10.8553125 -20.25 9.6875 C-20 7 -20 7 -18.32421875 5.46875 C-15.79631755 3.87128638 -13.37323514 2.82997832 -10.5625 1.8125 C-9.17224609 1.29623047 -9.17224609 1.29623047 -7.75390625 0.76953125 C-5.02272364 0.00634973 -2.81820315 -0.14832648 0 0 Z " fill="#BEA092" transform="translate(83,50)"/>
<path d="M0 0 C0.66 0.66 1.32 1.32 2 2 C1.01 2.33 0.02 2.66 -1 3 C-0.67 2.01 -0.34 1.02 0 0 Z M-1 3 C-0.67 5.31 -0.34 7.62 0 10 C2.31 10 4.62 10 7 10 C5.63312778 13.98671063 3.84804907 16.88494633 1 20 C0.34 20 -0.32 20 -1 20 C-1.33 19.01 -1.66 18.02 -2 17 C-1.67 16.34 -1.34 15.68 -1 15 C-2.32 14.67 -3.64 14.34 -5 14 C-5 13.01 -5 12.02 -5 11 C-5.763125 11.33 -6.52625 11.66 -7.3125 12 C-10 13 -10 13 -13 13 C-15.15028304 13.94978897 -15.15028304 13.94978897 -17 15 C-17 14.34 -17 13.68 -17 13 C-17.33 13.66 -17.66 14.32 -18 15 C-18.66 15 -19.32 15 -20 15 C-20 15.99 -20 16.98 -20 18 C-19.34 18 -18.68 18 -18 18 C-17.34 21.96 -16.68 25.92 -16 30 C-17.32 30 -18.64 30 -20 30 C-22.13157896 24.23219811 -22.50303033 19.02220879 -21 13 C-19.69921875 10.69921875 -19.69921875 10.69921875 -18 9 C-16.68 9 -15.36 9 -14 9 C-11.20562111 7.69880358 -11.20562111 7.69880358 -8.375 6 C-3.19444444 3 -3.19444444 3 -1 3 Z " fill="#292929" transform="translate(54,36)"/>
<path d="M0 0 C-1.98 0.33 -3.96 0.66 -6 1 C-6 3.97 -6 6.94 -6 10 C-6.66 10 -7.32 10 -8 10 C-8.66 8.35 -9.32 6.7 -10 5 C-10.66 5 -11.32 5 -12 5 C-12.66 8.63 -13.32 12.26 -14 16 C-11.36 16 -8.72 16 -6 16 C-5.67 16.99 -5.34 17.98 -5 19 C-8.63 19 -12.26 19 -16 19 C-15.67 18.01 -15.34 17.02 -15 16 C-15.66 16 -16.32 16 -17 16 C-17 15.01 -17 14.02 -17 13 C-22.28 13 -27.56 13 -33 13 C-34.9955516 9.00889681 -35.19546065 7.30013434 -35 3 C-32.36 2.67 -29.72 2.34 -27 2 C-27.99 2.495 -27.99 2.495 -29 3 C-29 3.66 -29 4.32 -29 5 C-26.69 5 -24.38 5 -22 5 C-21.67 6.32 -21.34 7.64 -21 9 C-22.98 9.66 -24.96 10.32 -27 11 C-21.08048023 11.44920761 -21.08048023 11.44920761 -16 9 C-15.690625 7.2984375 -15.690625 7.2984375 -15.375 5.5625 C-14 2 -14 2 -11.796875 0.83984375 C-7.54092072 -0.49791966 -4.33089633 -1.45034668 0 0 Z " fill="#866E61" transform="translate(81,60)"/>
<path d="M0 0 C2.95749791 3.46741134 5.07848152 6.86873527 7 11 C5.68 11 4.36 11 3 11 C2.67 11.66 2.34 12.32 2 13 C1.34 13 0.68 13 0 13 C-0.06445312 13.58523437 -0.12890625 14.17046875 -0.1953125 14.7734375 C-1.32703418 17.90490041 -3.12241654 18.81387987 -5.875 20.625 C-6.75929688 21.21539062 -7.64359375 21.80578125 -8.5546875 22.4140625 C-9.36164063 22.93742187 -10.16859375 23.46078125 -11 24 C-14.31460705 25.70892499 -14.31460705 25.70892499 -14.6875 29.125 C-14.790625 30.07375 -14.89375 31.0225 -15 32 C-15.99 31.67 -16.98 31.34 -18 31 C-17.835 30.071875 -17.67 29.14375 -17.5 28.1875 C-16.92251612 25.04378647 -16.92251612 25.04378647 -17 22 C-16.34 22 -15.68 22 -15 22 C-14.34 21.67 -13.68 21.34 -13 21 C-12.731875 20.0925 -12.46375 19.185 -12.1875 18.25 C-10.78214149 14.40375565 -8.91252972 12.84479647 -6 10 C-3.77576173 6.79684907 -1.74432949 3.48865899 0 0 Z " fill="#CEC5C9" transform="translate(90,123)"/>
<path d="M0 0 C1.88414642 3.19457351 2.23819737 5.51502629 2.1953125 9.203125 C2.18564453 10.67265625 2.18564453 10.67265625 2.17578125 12.171875 C2.15902344 13.18765625 2.14226562 14.2034375 2.125 15.25 C2.11597656 16.28125 2.10695313 17.3125 2.09765625 18.375 C2.07412011 20.91690287 2.04124023 23.4583328 2 26 C-0.97 26 -3.94 26 -7 26 C-7.05383848 23.54137599 -7.09359038 21.0839245 -7.125 18.625 C-7.14175781 17.92632812 -7.15851563 17.22765625 -7.17578125 16.5078125 C-7.19344267 14.67102514 -7.10303261 12.83398037 -7 11 C-6.34 10.34 -5.68 9.68 -5 9 C-4.7834375 8.01 -4.7834375 8.01 -4.5625 7 C-4 5 -4 5 -1 3 C-0.67 2.01 -0.34 1.02 0 0 Z " fill="#E0DEE7" transform="translate(76,151)"/>
<path d="M0 0 C0 0.66 0 1.32 0 2 C0.99 2.33 1.98 2.66 3 3 C3 3.66 3 4.32 3 5 C3.90492187 4.98259766 3.90492187 4.98259766 4.828125 4.96484375 C6.02695313 4.95130859 6.02695313 4.95130859 7.25 4.9375 C8.03890625 4.92589844 8.8278125 4.91429687 9.640625 4.90234375 C12 5 12 5 16 6 C16.66 8.64 17.32 11.28 18 14 C17.01 13.67 16.02 13.34 15 13 C14.3125 10.9375 14.3125 10.9375 14 9 C13.01 9.33 12.02 9.66 11 10 C8.43365139 10.22718496 5.88321893 10.41608184 3.3125 10.5625 C2.61060547 10.60568359 1.90871094 10.64886719 1.18554688 10.69335938 C-0.54275206 10.7991736 -2.2713511 10.90006581 -4 11 C-4 10.34 -4 9.68 -4 9 C-2.02 8.34 -0.04 7.68 2 7 C1.67 6.01 1.34 5.02 1 4 C-5.9445071 4.33602454 -12.3984739 5.59880092 -18 10 C-18.8472241 12.58401821 -18.8472241 12.58401821 -19 15 C-21.64 15 -24.28 15 -27 15 C-27.33 14.34 -27.66 13.68 -28 13 C-27.2575 12.4225 -26.515 11.845 -25.75 11.25 C-23.33912357 9.27746474 -21.15957299 7.23955718 -19 5 C-18.01 5.33 -17.02 5.66 -16 6 C-12.44481268 4.90609621 -9.92496907 3.24247629 -7 1 C-4 0 -4 0 0 0 Z " fill="#715C53" transform="translate(82,47)"/>
<path d="M0 0 C1.67255859 0.061875 1.67255859 0.061875 3.37890625 0.125 C3.40800388 3.37498112 3.42573786 6.62492857 3.44140625 9.875 C3.44978516 10.79539062 3.45816406 11.71578125 3.46679688 12.6640625 C3.47001953 13.55351563 3.47324219 14.44296875 3.4765625 15.359375 C3.48179932 16.17631836 3.48703613 16.99326172 3.49243164 17.83496094 C3.38189646 20.06468135 2.99946192 21.98633755 2.37890625 24.125 C1.71890625 24.125 1.05890625 24.125 0.37890625 24.125 C0.33765625 24.970625 0.29640625 25.81625 0.25390625 26.6875 C-0.93061869 31.34099083 -2.73079032 34.24787245 -6.62109375 37.125 C-10.74129285 38.31133064 -14.78892727 38.51155901 -19.05859375 38.6875 C-20.71858398 38.80834961 -20.71858398 38.80834961 -22.41210938 38.93164062 C-28.28910551 39.28643836 -33.09509541 39.21613319 -38.62109375 37.125 C-31.39374561 34.71588395 -23.96296334 35.04110825 -16.44921875 35.25195312 C-14.50627179 35.28133933 -12.56237733 35.21058347 -10.62109375 35.125 C-9.96109375 34.465 -9.30109375 33.805 -8.62109375 33.125 C-7.63109375 33.125 -6.64109375 33.125 -5.62109375 33.125 C-5.62109375 32.135 -5.62109375 31.145 -5.62109375 30.125 C-4.96109375 30.125 -4.30109375 30.125 -3.62109375 30.125 C-3.62109375 29.465 -3.62109375 28.805 -3.62109375 28.125 C-2.96109375 28.125 -2.30109375 28.125 -1.62109375 28.125 C-1.53021484 27.07699219 -1.53021484 27.07699219 -1.4375 26.0078125 C-1.35371094 25.09773438 -1.26992187 24.18765625 -1.18359375 23.25 C-1.10238281 22.34507813 -1.02117187 21.44015625 -0.9375 20.5078125 C-0.62109375 18.125 -0.62109375 18.125 0.37890625 16.125 C0.42421639 14.70905811 0.41744074 13.29114248 0.37890625 11.875 C0.33109773 8.17581565 0.6327833 4.76234939 1.37890625 1.125 C-1.89882879 1.87650023 -1.89882879 1.87650023 -3.62109375 5.125 C-4.61109375 4.795 -5.60109375 4.465 -6.62109375 4.125 C-4.7330086 0.57095737 -4.15942878 0.1435833 0 0 Z " fill="#A98A77" transform="translate(97.62109375,64.875)"/>
<path d="M0 0 C0 1.98 0 3.96 0 6 C-0.66 6 -1.32 6 -2 6 C-2 6.66 -2 7.32 -2 8 C-0.02 8 1.96 8 4 8 C3.67 8.66 3.34 9.32 3 10 C-0.28519475 11.09506492 -2.73663415 11.09960608 -6.1875 11.0625 C-7.81751953 11.04896484 -7.81751953 11.04896484 -9.48046875 11.03515625 C-10.31191406 11.02355469 -11.14335938 11.01195313 -12 11 C-13.125 4.25 -13.125 4.25 -12 2 C-7.70418473 0.73238238 -4.49055702 0 0 0 Z " fill="#9F9492" transform="translate(87,59)"/>
<path d="M0 0 C2.3776701 2.59382192 3.30645467 4.81856203 4.0625 8.1875 C4.5265625 10.0746875 4.5265625 10.0746875 5 12 C5.66 12.33 6.32 12.66 7 13 C7.12375 13.598125 7.2475 14.19625 7.375 14.8125 C8.20055523 17.70194332 9.80351643 19.01607936 12 21 C9.8125 21.5 9.8125 21.5 7 21 C4.6018833 18.16114834 2 14.81204169 2 11 C1.34 11 0.68 11 0 11 C-0.08507813 11.61359375 -0.17015625 12.2271875 -0.2578125 12.859375 C-1 15 -1 15 -2.7421875 16.265625 C-3.79792969 16.75289062 -3.79792969 16.75289062 -4.875 17.25 C-5.57367188 17.58515625 -6.27234375 17.9203125 -6.9921875 18.265625 C-9 19 -9 19 -12 19 C-12 18.34 -12 17.68 -12 17 C-10.27404665 15.80510922 -8.54790089 14.61049434 -6.8203125 13.41796875 C-3.05310315 10.48342584 -1.27178869 7.22304911 -0.25 2.625 C-0.1675 1.75875 -0.085 0.8925 0 0 Z " fill="#C5BCC5" transform="translate(54,120)"/>
<path d="M0 0 C0.99 0.33 1.98 0.66 3 1 C3.33 2.65 3.66 4.3 4 6 C7.96 6.33 11.92 6.66 16 7 C16 7.33 16 7.66 16 8 C13.69 8.33 11.38 8.66 9 9 C9.33 9.598125 9.66 10.19625 10 10.8125 C11 13 11 13 11 16 C9.35 16.33 7.7 16.66 6 17 C5.67 16.34 5.34 15.68 5 15 C5.66 15 6.32 15 7 15 C6.67 14.34 6.34 13.68 6 13 C4.10466658 12.53476937 4.10466658 12.53476937 1.9375 12.375 C0.638125 12.25125 -0.66125 12.1275 -2 12 C-1.85962479 10.18706911 -1.71255111 8.3746557 -1.5625 6.5625 C-1.48128906 5.55316406 -1.40007812 4.54382813 -1.31640625 3.50390625 C-1 1 -1 1 0 0 Z " fill="#BF9F92" transform="translate(69,64)"/>
<path d="M0 0 C1.06637695 -0.01160156 1.06637695 -0.01160156 2.15429688 -0.0234375 C5.91262031 -0.00929517 7.6114956 0.11599707 10.8125 2.25 C8.1725 2.91 5.5325 3.57 2.8125 4.25 C3.4725 6.23 4.1325 8.21 4.8125 10.25 C3.8225 10.25 2.8325 10.25 1.8125 10.25 C1.8125 9.59 1.8125 8.93 1.8125 8.25 C0.45125 7.816875 0.45125 7.816875 -0.9375 7.375 C-4.1875 6.25 -4.1875 6.25 -6.09375 5.1875 C-8.54557818 4.08966649 -10.26631332 4.04643569 -12.9375 4.125 C-14.13632812 4.15207031 -14.13632812 4.15207031 -15.359375 4.1796875 C-16.26429687 4.21449219 -16.26429687 4.21449219 -17.1875 4.25 C-11.65508973 0.56172649 -6.53714438 -0.07230021 0 0 Z " fill="#2C2C2C" transform="translate(70.1875,21.75)"/>
<path d="M0 0 C0.66 0.33 1.32 0.66 2 1 C2 1.99 2 2.98 2 4 C2.99 3.67 3.98 3.34 5 3 C4.67 6.3 4.34 9.6 4 13 C3.34 13 2.68 13 2 13 C1.67 15.64 1.34 18.28 1 21 C1.66 21.33 2.32 21.66 3 22 C2.2884375 22.680625 2.2884375 22.680625 1.5625 23.375 C-1.56108372 26.62352707 -1.28381125 29.74560538 -1.5625 34.125 C-1.64628906 35.40632813 -1.73007813 36.68765625 -1.81640625 38.0078125 C-1.87699219 38.99523437 -1.93757813 39.98265625 -2 41 C-2.33 41 -2.66 41 -3 41 C-3.19534474 38.58373582 -3.38153404 36.16734771 -3.5625 33.75 C-3.61857422 33.06808594 -3.67464844 32.38617188 -3.73242188 31.68359375 C-3.98186254 28.2579419 -4.13879745 25.27298823 -3 22 C-2.34 22 -1.68 22 -1 22 C-0.67 14.74 -0.34 7.48 0 0 Z " fill="#9A7B69" transform="translate(101,67)"/>
<path d="M0 0 C3.1875 1.5 3.1875 1.5 5 3 C2.35541621 4.32229189 0.32238699 4.09677194 -2.625 4.0625 C-3.62789062 4.05347656 -4.63078125 4.04445313 -5.6640625 4.03515625 C-6.43492188 4.02355469 -7.20578125 4.01195313 -8 4 C-8.33 4.66 -8.66 5.32 -9 6 C-5.7 6 -2.4 6 1 6 C0.67 6.66 0.34 7.32 0 8 C-1.91635217 8.05423638 -3.83314925 8.09289963 -5.75 8.125 C-7.35101563 8.15980469 -7.35101563 8.15980469 -8.984375 8.1953125 C-11.92470106 8.00487687 -13.52361878 7.52670104 -16 6 C-13.50553216 -1.48340353 -6.74250858 -0.77798176 0 0 Z " fill="#B27B72" transform="translate(77,85)"/>
<path d="M0 0 C0.33 0 0.66 0 1 0 C1.02578125 0.75023438 1.0515625 1.50046875 1.078125 2.2734375 C1.65993654 12.77249113 4.35136048 20.81705906 11 29 C11.99 29.66 12.98 30.32 14 31 C14 31.99 14 32.98 14 34 C12.68 34 11.36 34 10 34 C9.67 35.32 9.34 36.64 9 38 C8.938125 36.845 8.87625 35.69 8.8125 34.5 C8.08845803 28.66629041 5.24494675 23.8202271 0.6875 20.125 C-2.54782511 16.0508869 -1.24586654 10.5070326 -0.76171875 5.5703125 C-0.53987085 3.7094391 -0.27463963 1.85381752 0 0 Z " fill="#90786B" transform="translate(43,70)"/>
<path d="M0 0 C0.66 0 1.32 0 2 0 C3.32 2.64 4.64 5.28 6 8 C4.68 8 3.36 8 2 8 C1.67 8.66 1.34 9.32 1 10 C0.34 10 -0.32 10 -1 10 C-1.07347656 10.59296875 -1.14695312 11.1859375 -1.22265625 11.796875 C-2.27747576 14.78641372 -3.78803756 15.5713006 -6.4375 17.25 C-7.24058594 17.77078125 -8.04367188 18.2915625 -8.87109375 18.828125 C-11 20 -11 20 -13 20 C-11.89954899 16.69864698 -11.43345787 16.41342213 -8.75 14.5 C-4.00925549 10.64875601 -2.15532643 5.58199748 0 0 Z " fill="#AB9CA2" transform="translate(91,126)"/>
<path d="M0 0 C0.99 0.66 1.98 1.32 3 2 C3.1875 5.125 3.1875 5.125 3 8 C-2.65394631 8.34615998 -6.03006806 7.43425238 -11 5 C-11 4.01 -11 3.02 -11 2 C-7.17742309 0.20114028 -4.2209225 -0.36703674 0 0 Z " fill="#191919" transform="translate(84,24)"/>
<path d="M0 0 C1.6490302 0.61651583 3.29415841 1.24347742 4.9375 1.875 C6.31228516 2.39707031 6.31228516 2.39707031 7.71484375 2.9296875 C10 4 10 4 11 6 C9.35 5.67 7.7 5.34 6 5 C5.92879501 8.56024973 5.96328095 11.80538905 6.625 15.3125 C6.74875 16.199375 6.8725 17.08625 7 18 C6.34 18.66 5.68 19.32 5 20 C1.35845663 13.04205107 -0.64668107 7.88950907 0 0 Z " fill="#B69882" transform="translate(53,109)"/>
<path d="M0 0 C0.33 0 0.66 0 1 0 C1 2.97 1 5.94 1 9 C0.34 8.01 -0.32 7.02 -1 6 C-2.32 7.65 -3.64 9.3 -5 11 C-5 10.34 -5 9.68 -5 9 C-7.8326134 10.4163067 -8.01707833 12.14497293 -9.125 15.0625 C-9.47820313 15.98160156 -9.83140625 16.90070313 -10.1953125 17.84765625 C-10.46085937 18.55792969 -10.72640625 19.26820313 -11 20 C-12.231394 16.30581799 -11.64432764 13.7943739 -11 10 C-12.65 9.67 -14.3 9.34 -16 9 C-12.34464903 6.56309936 -8.65004932 5.46024194 -4.49609375 4.09765625 C-1.70200433 3.13623607 -1.70200433 3.13623607 0 0 Z " fill="#C5C3CF" transform="translate(52,109)"/>
<path d="M0 0 C2.475 0.99 2.475 0.99 5 2 C4.67 3.32 4.34 4.64 4 6 C3.34 5.67 2.68 5.34 2 5 C1.01 5.33 0.02 5.66 -1 6 C-1 6.99 -1 7.98 -1 9 C-0.34 9 0.32 9 1 9 C1.66 12.96 2.32 16.92 3 21 C1.68 21 0.36 21 -1 21 C-3.3530531 14.63291514 -3.83222686 8.02679709 -0.953125 1.69921875 C-0.63859375 1.13847656 -0.3240625 0.57773437 0 0 Z " fill="#2E2E2E" transform="translate(35,45)"/>
<path d="M0 0 C0.99 0.33 1.98 0.66 3 1 C-0.56386301 3.69108023 -3.66215464 5.99105125 -7.875 7.5 C-9.421875 8.2425 -9.421875 8.2425 -11 9 C-12.05167527 11.57732914 -12.05167527 11.57732914 -12 14 C-14.64 14 -17.28 14 -20 14 C-20.33 13.34 -20.66 12.68 -21 12 C-20.2575 11.4225 -19.515 10.845 -18.75 10.25 C-16.33912357 8.27746474 -14.15957299 6.23955718 -12 4 C-11.01 4.33 -10.02 4.66 -9 5 C-6.17604612 4.13109111 -4.19318932 3.15341505 -1.875 1.3125 C-1.25625 0.879375 -0.6375 0.44625 0 0 Z " fill="#3C322C" transform="translate(75,48)"/>
<path d="M0 0 C1.32 0.33 2.64 0.66 4 1 C3.34 1 2.68 1 2 1 C2.33 1.66 2.66 2.32 3 3 C3.99 3.33 4.98 3.66 6 4 C6.66 4.66 7.32 5.32 8 6 C6.35 6 4.7 6 3 6 C2.7525 6.61875 2.505 7.2375 2.25 7.875 C0.70852342 10.49551018 -0.16639052 10.94211913 -3 12 C-6.234375 12.1953125 -6.234375 12.1953125 -9.75 12.125 C-10.92046875 12.10695313 -12.0909375 12.08890625 -13.296875 12.0703125 C-14.63492188 12.03550781 -14.63492188 12.03550781 -16 12 C-16 11.67 -16 11.34 -16 11 C-15.16855469 10.93941406 -14.33710937 10.87882812 -13.48046875 10.81640625 C-12.39378906 10.73261719 -11.30710937 10.64882812 -10.1875 10.5625 C-9.10855469 10.48128906 -8.02960938 10.40007812 -6.91796875 10.31640625 C-3.94010095 10.09787539 -3.94010095 10.09787539 -1 9 C-2.65 8.67 -4.3 8.34 -6 8 C-6 7.34 -6 6.68 -6 6 C-5.34 6 -4.68 6 -4 6 C-4 5.34 -4 4.68 -4 4 C-2.68 4 -1.36 4 0 4 C0 2.68 0 1.36 0 0 Z " fill="#8F786B" transform="translate(91,59)"/>
<path d="M0 0 C0.515625 0.2475 1.03125 0.495 1.5625 0.75 C1.5625 2.4 1.5625 4.05 1.5625 5.75 C0.5725 4.43 -0.4175 3.11 -1.4375 1.75 C-4.4075 4.72 -7.3775 7.69 -10.4375 10.75 C-11.0975 10.09 -11.7575 9.43 -12.4375 8.75 C-15.59873234 8.63154633 -18.69379311 8.70713767 -21.8515625 8.828125 C-25.58904685 8.91641203 -28.26523652 8.83230629 -31.4375 6.75 C-30.35210937 6.70101562 -29.26671875 6.65203125 -28.1484375 6.6015625 C-26.70310216 6.52648014 -25.25779081 6.45093472 -23.8125 6.375 C-23.09964844 6.3440625 -22.38679688 6.313125 -21.65234375 6.28125 C-15.76948942 5.95742316 -10.80859335 4.8419262 -5.8125 1.5625 C-2.4375 -0.25 -2.4375 -0.25 0 0 Z " fill="#AB8E74" transform="translate(96.4375,102.25)"/>
<path d="M0 0 C2.31 0 4.62 0 7 0 C7 0.99 7 1.98 7 3 C7.66 3 8.32 3 9 3 C9 3.66 9 4.32 9 5 C9.66 5.33 10.32 5.66 11 6 C11 6.99 11 7.98 11 9 C11.763125 8.938125 12.52625 8.87625 13.3125 8.8125 C16.48780806 9.03403312 16.95735659 9.71775032 19 12 C18.31292969 12.04898438 17.62585938 12.09796875 16.91796875 12.1484375 C16.01691406 12.22320312 15.11585937 12.29796875 14.1875 12.375 C13.29417969 12.44460937 12.40085937 12.51421875 11.48046875 12.5859375 C8.75601501 12.86645036 8.75601501 12.86645036 6 15 C4.89629957 11.6888987 5.07326359 9.75251051 5.4375 6.3125 C5.53933594 5.31863281 5.64117187 4.32476562 5.74609375 3.30078125 C5.82988281 2.54152344 5.91367187 1.78226562 6 1 C4.02 1 2.04 1 0 1 C0 0.67 0 0.34 0 0 Z " fill="#B18C7A" transform="translate(57,73)"/>
<path d="M0 0 C0.66 0 1.32 0 2 0 C1.82947106 6.83666028 0.59944454 10.85300254 -4 16 C-4.99 16 -5.98 16 -7 16 C-6.67 13.69 -6.34 11.38 -6 9 C-5.34 9 -4.68 9 -4 9 C-4 7.68 -4 6.36 -4 5 C-3.34 5 -2.68 5 -2 5 C-1.855625 4.360625 -1.71125 3.72125 -1.5625 3.0625 C-1 1 -1 1 0 0 Z " fill="#C09F92" transform="translate(109,71)"/>
<path d="M0 0 C0.66 0 1.32 0 2 0 C2.19491452 1.45736087 2.38069358 2.91594593 2.5625 4.375 C2.66691406 5.18710938 2.77132812 5.99921875 2.87890625 6.8359375 C3 9 3 9 2 11 C2.66 11 3.32 11 4 11 C4 13.31 4 15.62 4 18 C3.34 17.67 2.68 17.34 2 17 C2 15.35 2 13.7 2 12 C0.02 12.99 0.02 12.99 -2 14 C-3.39935013 11.20129973 -3.25265405 9.09501208 -3 6 C-1.5 4.3125 -1.5 4.3125 0 3 C0 2.01 0 1.02 0 0 Z " fill="#302824" transform="translate(39,60)"/>
<path d="M0 0 C3.85429889 7.70859777 2.11887773 15.92177865 0 24 C-1.98 24.33 -3.96 24.66 -6 25 C-6.33 23.68 -6.66 22.36 -7 21 C-5.35 20.67 -3.7 20.34 -2 20 C-2 18.35 -2 16.7 -2 15 C-1.34 14.67 -0.68 14.34 0 14 C0 9.38 0 4.76 0 0 Z " fill="#463C39" transform="translate(112,45)"/>
<path d="M0 0 C3.96 0.33 7.92 0.66 12 1 C12 1.33 12 1.66 12 2 C9.69 2.33 7.38 2.66 5 3 C5.33 3.598125 5.66 4.19625 6 4.8125 C7 7 7 7 7 10 C5.35 10.33 3.7 10.66 2 11 C1.67 10.34 1.34 9.68 1 9 C1.66 9 2.32 9 3 9 C1.74458443 6.48916886 0.49936512 6.12874554 -2 5 C-1.34 5 -0.68 5 0 5 C0 3.35 0 1.7 0 0 Z " fill="#B79483" transform="translate(73,70)"/>
<path d="M0 0 C0.33 0.66 0.66 1.32 1 2 C-0.25 4.5625 -0.25 4.5625 -2 7 C-4.75078884 7.91692961 -6.35948913 8.10886083 -9.1875 8.0625 C-11.0746875 8.0315625 -11.0746875 8.0315625 -13 8 C-12.34 7.01 -11.68 6.02 -11 5 C-8.375 4.8125 -8.375 4.8125 -6 5 C-6.33 3.68 -6.66 2.36 -7 1 C-3.535 0.505 -3.535 0.505 0 0 Z " fill="#AC978E" transform="translate(66,64)"/>
<path d="M0 0 C3.63 0 7.26 0 11 0 C11.33 0.99 11.66 1.98 12 3 C9.375 4.625 9.375 4.625 6 6 C2.625 5.1875 2.625 5.1875 0 4 C0 2.68 0 1.36 0 0 Z " fill="#C8AB9D" transform="translate(66,94)"/>
<path d="M0 0 C-1.98 0.33 -3.96 0.66 -6 1 C-6 3.97 -6 6.94 -6 10 C-6.66 10 -7.32 10 -8 10 C-8.66 8.35 -9.32 6.7 -10 5 C-10.66 5 -11.32 5 -12 5 C-13.63676257 6.9600281 -13.63676257 6.9600281 -15 9 C-14.67 6.69 -14.34 4.38 -14 2 C-12.42085985 1.46658816 -10.83645613 0.94874237 -9.25 0.4375 C-8.36828125 0.14746094 -7.4865625 -0.14257812 -6.578125 -0.44140625 C-3.92165684 -1.01697435 -2.52968894 -0.89248371 0 0 Z " fill="#5B4F48" transform="translate(81,60)"/>
<path d="M0 0 C4.875 3.75 4.875 3.75 6 6 C6.039992 7.99960012 6.04346799 10.00047242 6 12 C4.68 12.33 3.36 12.66 2 13 C1.690625 11.88625 1.38125 10.7725 1.0625 9.625 C0.17673517 6.2054845 0.17673517 6.2054845 -1 4 C-0.5625 1.875 -0.5625 1.875 0 0 Z " fill="#302F2F" transform="translate(106,37)"/>
<path d="M0 0 C0.66 0.33 1.32 0.66 2 1 C0.72921341 6.46438233 -1.39806715 8.84181079 -6 12 C-8.875 12.8125 -8.875 12.8125 -11 13 C-11 12.34 -11 11.68 -11 11 C-9.27857438 9.8082438 -7.55594851 8.61813946 -5.82421875 7.44140625 C-3.13383298 5.31559822 -1.71435743 2.94869477 0 0 Z " fill="#9F939F" transform="translate(53,126)"/>
<path d="M0 0 C0.66 0.33 1.32 0.66 2 1 C2.40729228 3.32156597 2.74438677 5.6568787 3 8 C0 10 0 10 -3 10 C-4.125 3.25 -4.125 3.25 -3 1 C-2.01 0.67 -1.02 0.34 0 0 Z " fill="#B1998A" transform="translate(78,60)"/>
<path d="M0 0 C1.79158489 -0.02696365 3.58328473 -0.04637917 5.375 -0.0625 C6.37273437 -0.07410156 7.37046875 -0.08570312 8.3984375 -0.09765625 C11 0 11 0 13 1 C12.67 2.32 12.34 3.64 12 5 C11.43796875 4.84660156 10.8759375 4.69320312 10.296875 4.53515625 C7.94161122 3.98639581 5.65451896 3.68502401 3.25 3.4375 C2.45078125 3.35371094 1.6515625 3.26992187 0.828125 3.18359375 C0.22484375 3.12300781 -0.3784375 3.06242187 -1 3 C-0.67 2.01 -0.34 1.02 0 0 Z " fill="#B68D80" transform="translate(69,88)"/>
<path d="M0 0 C1.10408203 0.01353516 1.10408203 0.01353516 2.23046875 0.02734375 C4.0287888 0.05069856 5.82693911 0.08656164 7.625 0.125 C7.625 0.455 7.625 0.785 7.625 1.125 C4.985 1.785 2.345 2.445 -0.375 3.125 C-0.375 3.785 -0.375 4.445 -0.375 5.125 C-1.365 4.795 -2.355 4.465 -3.375 4.125 C-6.64717311 3.0869787 -9.22376637 3.15972233 -12.625 3.5625 C-13.51703125 3.66433594 -14.4090625 3.76617188 -15.328125 3.87109375 C-16.34132812 3.99677734 -16.34132812 3.99677734 -17.375 4.125 C-11.67443733 0.32462489 -6.63537373 -0.15598528 0 0 Z " fill="#3E3E3E" transform="translate(70.375,21.875)"/>
<path d="M0 0 C-0.33 1.65 -0.66 3.3 -1 5 C2.63 5 6.26 5 10 5 C9.67 5.66 9.34 6.32 9 7 C7.08364783 7.05423638 5.16685075 7.09289963 3.25 7.125 C1.64898437 7.15980469 1.64898437 7.15980469 0.015625 7.1953125 C-2.92470106 7.00487687 -4.52361878 6.52670104 -7 5 C-5.64703851 0.94111554 -4.27479763 0 0 0 Z " fill="#A67968" transform="translate(68,86)"/>
<path d="M0 0 C1.18851563 0.00902344 2.37703125 0.01804688 3.6015625 0.02734375 C4.51679687 0.03894531 5.43203125 0.05054688 6.375 0.0625 C6.045 1.0525 5.715 2.0425 5.375 3.0625 C0.755 3.0625 -3.865 3.0625 -8.625 3.0625 C-8.625 2.4025 -8.625 1.7425 -8.625 1.0625 C-5.74084117 -0.37957941 -3.20778472 -0.03144887 0 0 Z " fill="#B0A19C" transform="translate(60.625,61.9375)"/>
<path d="M0 0 C3.30040284 13.14214464 3.30040284 13.14214464 3 19 C0 17 0 17 -0.6796875 15.26171875 C-1.08147407 12.42471357 -1.13197983 9.67772007 -1.125 6.8125 C-1.12757812 5.74644531 -1.13015625 4.68039063 -1.1328125 3.58203125 C-1 1 -1 1 0 0 Z " fill="#AB8B79" transform="translate(47,74)"/>
<path d="M0 0 C1.093125 0.0825 2.18625 0.165 3.3125 0.25 C3.3125 4.21 3.3125 8.17 3.3125 12.25 C2.6525 12.25 1.9925 12.25 1.3125 12.25 C0.25845055 8.26803543 0.47151344 5.26804691 1.3125 1.25 C-1.96523504 2.00150023 -1.96523504 2.00150023 -3.6875 5.25 C-4.6775 4.92 -5.6675 4.59 -6.6875 4.25 C-4.79150483 0.68106792 -4.16790733 0.28256999 0 0 Z " fill="#AF917E" transform="translate(97.6875,64.75)"/>
<path d="M0 0 C-2.55274874 2.45605371 -3.85890643 2.98802939 -7.453125 3.29296875 C-8.70609375 3.25816406 -9.9590625 3.22335938 -11.25 3.1875 C-12.51328125 3.16042969 -13.7765625 3.13335937 -15.078125 3.10546875 C-16.52445312 3.05326172 -16.52445312 3.05326172 -18 3 C-18.33 2.34 -18.66 1.68 -19 1 C-18.08476563 0.93941406 -17.16953125 0.87882812 -16.2265625 0.81640625 C-14.44378906 0.69072266 -14.44378906 0.69072266 -12.625 0.5625 C-11.44164063 0.48128906 -10.25828125 0.40007812 -9.0390625 0.31640625 C-1.54580153 -0.46374046 -1.54580153 -0.46374046 0 0 Z " fill="#916C56" transform="translate(85,106)"/>
<path d="M0 0 C0.99 0.495 0.99 0.495 2 1 C5.67329964 1.13357453 8.49852959 1.1671568 12 0 C11.67 1.32 11.34 2.64 11 4 C9.68 4 8.36 4 7 4 C6.67 4.66 6.34 5.32 6 6 C3.03 5.505 3.03 5.505 0 5 C0 3.35 0 1.7 0 0 Z " fill="#AC9385" transform="translate(63,57)"/>
<path d="M0 0 C0.33 0 0.66 0 1 0 C1.53067341 2.10170656 2.04922857 4.20647598 2.5625 6.3125 C2.85253906 7.48425781 3.14257812 8.65601563 3.44140625 9.86328125 C4 13 4 13 3 16 C2.01 16 1.02 16 0 16 C0 10.72 0 5.44 0 0 Z " fill="#C9C6D2" transform="translate(2,154)"/>
<path d="M0 0 C0.66 0.33 1.32 0.66 2 1 C2.042721 2.66611905 2.04063832 4.33382885 2 6 C1.67 6.33 1.34 6.66 1 7 C1.66 7.33 2.32 7.66 3 8 C3 9.32 3 10.64 3 12 C1.68 12.33 0.36 12.66 -1 13 C-1.2236337 11.58566794 -1.42826476 10.16832382 -1.625 8.75 C-1.74101563 7.96109375 -1.85703125 7.1721875 -1.9765625 6.359375 C-2.00319395 3.67847541 -1.36592084 2.27305911 0 0 Z " fill="#2D2D2D" transform="translate(101,35)"/>
<path d="M0 0 C0.66 0.33 1.32 0.66 2 1 C1.875 2.75 1.875 2.75 1 5 C-4.11111111 9 -4.11111111 9 -8 9 C-6.85459775 7.68712379 -5.70866567 6.37470979 -4.5625 5.0625 C-3.92441406 4.33160156 -3.28632812 3.60070312 -2.62890625 2.84765625 C-1.77458541 1.87860647 -0.91348825 0.91348825 0 0 Z M-9 10 C-8.67 10.66 -8.34 11.32 -8 12 C-8.66 11.67 -9.32 11.34 -10 11 C-9.67 10.67 -9.34 10.34 -9 10 Z " fill="#B79D85" transform="translate(95,103)"/>
<path d="M0 0 C0.12375 0.639375 0.2475 1.27875 0.375 1.9375 C0.58125 2.618125 0.7875 3.29875 1 4 C1.66 4.33 2.32 4.66 3 5 C0.69 5.33 -1.62 5.66 -4 6 C-3.67 4.68 -3.34 3.36 -3 2 C-5.64 2.33 -8.28 2.66 -11 3 C-7.72430636 -0.27569364 -4.48909309 -0.12469703 0 0 Z " fill="#9E8071" transform="translate(83,50)"/>
<path d="M0 0 C0.99 0.66 1.98 1.32 3 2 C2.525625 2.45375 2.05125 2.9075 1.5625 3.375 C-1.56108372 6.62352707 -1.28381125 9.74560538 -1.5625 14.125 C-1.64628906 15.40632813 -1.73007813 16.68765625 -1.81640625 18.0078125 C-1.90728516 19.48894531 -1.90728516 19.48894531 -2 21 C-2.33 21 -2.66 21 -3 21 C-3.19534474 18.58373582 -3.38153404 16.16734771 -3.5625 13.75 C-3.61857422 13.06808594 -3.67464844 12.38617188 -3.73242188 11.68359375 C-3.98186254 8.2579419 -4.13879745 5.27298823 -3 2 C-2.01 2 -1.02 2 0 2 C0 1.34 0 0.68 0 0 Z " fill="#695D54" transform="translate(101,87)"/>
<path d="M0 0 C0.99 0.33 1.98 0.66 3 1 C2.67 3.97 2.34 6.94 2 10 C-0.9375 9.1875 -0.9375 9.1875 -4 8 C-4.33 7.01 -4.66 6.02 -5 5 C-2.69 5.33 -0.38 5.66 2 6 C1.34 5.01 0.68 4.02 0 3 C0 2.01 0 1.02 0 0 Z " fill="#342D29" transform="translate(98,55)"/>
<path d="M0 0 C1.32 0 2.64 0 4 0 C4.66 1.65 5.32 3.3 6 5 C4.68 5 3.36 5 2 5 C1.67 5.66 1.34 6.32 1 7 C0.34 7 -0.32 7 -1 7 C-1.66 8.32 -2.32 9.64 -3 11 C-2.32829194 7.1936543 -1.27253436 3.64793184 0 0 Z " fill="#BFB5BF" transform="translate(91,129)"/>
<path d="M0 0 C0.66 0 1.32 0 2 0 C3.15837626 4.05431692 2.83691257 6.21812119 1 10 C0.34 9.67 -0.32 9.34 -1 9 C-1.66 9.99 -2.32 10.98 -3 12 C-3.1875 9.1875 -3.1875 9.1875 -3 6 C-1.5 4.3125 -1.5 4.3125 0 3 C0 2.01 0 1.02 0 0 Z " fill="#242423" transform="translate(39,60)"/>
<path d="M0 0 C-3.21561653 3.21561653 -5.12843777 3.97094793 -9.75 4.125 C-11.35875 4.063125 -11.35875 4.063125 -13 4 C-13.33 3.34 -13.66 2.68 -14 2 C-4.58997722 -0.29612756 -4.58997722 -0.29612756 0 0 Z " fill="#C6ADA3" transform="translate(78,55)"/>
<path d="M0 0 C0.33 0.99 0.66 1.98 1 3 C-1.52956528 6.0916909 -4.22454612 6.90931332 -8 8 C-8 6.68 -8 5.36 -8 4 C-5.36 2.68 -2.72 1.36 0 0 Z " fill="#2F2F2F" transform="translate(48,41)"/>
<path d="M0 0 C0.90105469 0.02707031 1.80210938 0.05414063 2.73046875 0.08203125 C3.76107422 0.13423828 3.76107422 0.13423828 4.8125 0.1875 C4.4825 0.8475 4.1525 1.5075 3.8125 2.1875 C0.93038698 3.14820434 -0.88600044 3.29331883 -3.875 3.25 C-5.08736328 3.23646484 -5.08736328 3.23646484 -6.32421875 3.22265625 C-7.24654297 3.20525391 -7.24654297 3.20525391 -8.1875 3.1875 C-5.67753317 0.01043235 -3.96125134 -0.15433447 0 0 Z " fill="#B9A094" transform="translate(86.1875,66.8125)"/>
<path d="M0 0 C1.41655793 -0.0272415 2.83327045 -0.04650467 4.25 -0.0625 C5.43335937 -0.07990234 5.43335937 -0.07990234 6.640625 -0.09765625 C9 0 9 0 13 1 C13.66 3.64 14.32 6.28 15 9 C14.01 8.67 13.02 8.34 12 8 C11.66666667 6.66666667 11.33333333 5.33333333 11 4 C10.01 3.67 9.02 3.34 8 3 C8 2.34 8 1.68 8 1 C5.36 1 2.72 1 0 1 C0 0.67 0 0.34 0 0 Z " fill="#5D4A3E" transform="translate(85,52)"/>
<path d="M0 0 C0.66 0.99 1.32 1.98 2 3 C1.1015625 5.69921875 1.1015625 5.69921875 -0.375 8.6875 C-1.09816406 10.17830078 -1.09816406 10.17830078 -1.8359375 11.69921875 C-2.22007813 12.45847656 -2.60421875 13.21773437 -3 14 C-4.1484375 12.328125 -4.1484375 12.328125 -5 10 C-4.1015625 7.421875 -4.1015625 7.421875 -2.625 4.75 C-2.14289063 3.85796875 -1.66078125 2.9659375 -1.1640625 2.046875 C-0.77992187 1.37140625 -0.39578125 0.6959375 0 0 Z " fill="#C5BDC2" transform="translate(90,123)"/>
<path d="M0 0 C1.31471568 0.28151087 2.62675767 0.57553339 3.9375 0.875 C4.66839844 1.03742188 5.39929687 1.19984375 6.15234375 1.3671875 C8 2 8 2 9 4 C7.35 3.67 5.7 3.34 4 3 C3.67 4.65 3.34 6.3 3 8 C2.01 7.34 1.02 6.68 0 6 C-0.1875 2.875 -0.1875 2.875 0 0 Z " fill="#B99C84" transform="translate(55,111)"/>
<path d="M0 0 C-0.99 0 -1.98 0 -3 0 C-3 0.99 -3 1.98 -3 3 C-2.01 3 -1.02 3 0 3 C-0.33 3.99 -0.66 4.98 -1 6 C-3.375 5.8125 -3.375 5.8125 -6 5 C-7.3125 2.4375 -7.3125 2.4375 -8 0 C-4.94736336 -0.98120464 -3.05263664 -0.98120464 0 0 Z " fill="#7B665D" transform="translate(54,63)"/>
<path d="M0 0 C0.99 0 1.98 0 3 0 C6 6.625 6 6.625 6 10 C5.34 10 4.68 10 4 10 C1.1605948 6.32547562 0 4.73113419 0 0 Z " fill="#BA9B8E" transform="translate(37,77)"/>
<path d="M0 0 C0.36666667 5.5 0.36666667 5.5 -1.375 7.875 C-3 9 -3 9 -5 9 C-4.4140625 2.84765625 -4.4140625 2.84765625 -4 1 C-2 0 -2 0 0 0 Z " fill="#C6A296" transform="translate(111,71)"/>
<path d="M0 0 C0.66 0 1.32 0 2 0 C2.33 0.99 2.66 1.98 3 3 C2.01 3 1.02 3 0 3 C0.0825 3.7425 0.165 4.485 0.25 5.25 C-0.07105184 8.78157027 -1.35265617 9.76630364 -4 12 C-3.45660208 7.43545749 -2.20536179 4.0271824 0 0 Z " fill="#A49297" transform="translate(91,126)"/>
<path d="M0 0 C0.33 0 0.66 0 1 0 C1.06058594 0.78503906 1.12117188 1.57007812 1.18359375 2.37890625 C1.62820214 7.95361148 2.12124643 13.47640616 3 19 C-0.18313323 15.54007257 -0.69072391 12.63914139 -1 8 C-0.79622891 5.29410951 -0.42393603 2.6849282 0 0 Z " fill="#83685A" transform="translate(43,70)"/>
<path d="M0 0 C1.32 0.33 2.64 0.66 4 1 C3.34 1 2.68 1 2 1 C2.33 1.66 2.66 2.32 3 3 C3.99 3.33 4.98 3.66 6 4 C6.66 4.66 7.32 5.32 8 6 C6.35 6 4.7 6 3 6 C2.67 6.99 2.34 7.98 2 9 C1.67 9 1.34 9 1 9 C0.67 6.03 0.34 3.06 0 0 Z " fill="#6D5B4E" transform="translate(91,59)"/>
<path d="M0 0 C0.33 0 0.66 0 1 0 C1 2.97 1 5.94 1 9 C0.34 8.01 -0.32 7.02 -1 6 C-1.99 6.495 -1.99 6.495 -3 7 C-4.67654729 6.72057545 -6.34608154 6.39171753 -8 6 C-7.4225 5.7525 -6.845 5.505 -6.25 5.25 C-3.70354336 3.83530186 -2.01491254 2.08439228 0 0 Z " fill="#B1ACB2" transform="translate(52,109)"/>
<path d="M0 0 C1.875 0.25 1.875 0.25 4 1 C5.25 3.0625 5.25 3.0625 6 5 C5.01 5.66 4.02 6.32 3 7 C0 3.375 0 3.375 0 0 Z " fill="#DFDEE6" transform="translate(68,144)"/>
<path d="M0 0 C2.31 0 4.62 0 7 0 C7.33 0.66 7.66 1.32 8 2 C5.04335481 3.4783226 2.25770263 3.06032783 -1 3 C-0.67 2.01 -0.34 1.02 0 0 Z " fill="#C99A9A" transform="translate(69,88)"/>
<path d="M0 0 C0.66 0 1.32 0 2 0 C2 1.65 2 3.3 2 5 C-0.64 5 -3.28 5 -6 5 C-6.33 4.34 -6.66 3.68 -7 3 C-4.69 3 -2.38 3 0 3 C0 2.01 0 1.02 0 0 Z " fill="#62544C" transform="translate(61,57)"/>
<path d="M0 0 C0.6875 2.0625 0.6875 2.0625 1 4 C-1.64 3.67 -4.28 3.34 -7 3 C-7 2.34 -7 1.68 -7 1 C-3.375 -1.125 -3.375 -1.125 0 0 Z " fill="#9C8171" transform="translate(97,56)"/>
<path d="M0 0 C1.485 0.99 1.485 0.99 3 2 C3.40843923 4.71203652 3.13336867 7.2437142 3 10 C2.01 9.67 1.02 9.34 0 9 C0.185625 8.071875 0.37125 7.14375 0.5625 6.1875 C1.24123881 2.98656229 1.24123881 2.98656229 0 0 Z " fill="#CCC6CA" transform="translate(72,145)"/>
<path d="M0 0 C2.7972908 2.06756277 3.02692273 3.14440371 3.6875 6.6875 C3.790625 7.780625 3.89375 8.87375 4 10 C3.34 9.67 2.68 9.34 2 9 C1.375 5.9375 1.375 5.9375 1 3 C0.01 2.67 -0.98 2.34 -2 2 C-1.34 1.34 -0.68 0.68 0 0 Z " fill="#A98477" transform="translate(39,74)"/>
<path d="M0 0 C0.33 0.99 0.66 1.98 1 3 C1.99 2.67 2.98 2.34 4 2 C4 3.98 4 5.96 4 8 C3.01 8.33 2.02 8.66 1 9 C0.67 6.03 0.34 3.06 0 0 Z " fill="#755449" transform="translate(102,68)"/>
<path d="M0 0 C0.99 0.33 1.98 0.66 3 1 C3 1.66 3 2.32 3 3 C2.01 3 1.02 3 0 3 C0.04125 4.11375 0.0825 5.2275 0.125 6.375 C0 10 0 10 -2 12 C-1.85962479 10.18706911 -1.71255111 8.3746557 -1.5625 6.5625 C-1.48128906 5.55316406 -1.40007812 4.54382813 -1.31640625 3.50390625 C-1 1 -1 1 0 0 Z " fill="#B39380" transform="translate(69,64)"/>
<path d="M0 0 C0.99 1.32 1.98 2.64 3 4 C1.02 4.99 -0.96 5.98 -3 7 C-1.125 2.25 -1.125 2.25 0 0 Z M3 0 C3.66 0.33 4.32 0.66 5 1 C4.01 1 3.02 1 2 1 C2.33 0.67 2.66 0.34 3 0 Z " fill="#2F2F2F" transform="translate(39,38)"/>
<path d="M0 0 C0.66 0 1.32 0 2 0 C2 1.65 2 3.3 2 5 C0.35 5.33 -1.3 5.66 -3 6 C-2.42655063 3.13275314 -2.1385485 2.1385485 0 0 Z " fill="#8E7361" transform="translate(96,95)"/>
<path d="M0 0 C0.99 0.495 0.99 0.495 2 1 C2.4140625 3.06640625 2.4140625 3.06640625 2.625 5.5625 C2.69976562 6.38878906 2.77453125 7.21507813 2.8515625 8.06640625 C2.92503906 9.02353516 2.92503906 9.02353516 3 10 C2.01 9.67 1.02 9.34 0 9 C0 6.03 0 3.06 0 0 Z " fill="#A4866F" transform="translate(53,109)"/>
<path d="M0 0 C0.66 0.33 1.32 0.66 2 1 C2.625 4.0625 2.625 4.0625 3 7 C1.68 6.67 0.36 6.34 -1 6 C-1 4.68 -1 3.36 -1 2 C-1.66 1.67 -2.32 1.34 -3 1 C-2.01 0.67 -1.02 0.34 0 0 Z " fill="#9A8176" transform="translate(78,60)"/>
<path d="M0 0 C1.32 0 2.64 0 4 0 C4 0.99 4 1.98 4 3 C3.34 3 2.68 3 2 3 C2 3.66 2 4.32 2 5 C1.01 5 0.02 5 -1 5 C-0.67 3.35 -0.34 1.7 0 0 Z " fill="#D8D5D5" transform="translate(83,59)"/>
<path d="M0 0 C1.32 0 2.64 0 4 0 C4 0.66 4 1.32 4 2 C4.99 2.33 5.98 2.66 7 3 C6.67 3.66 6.34 4.32 6 5 C5.67 4.67 5.34 4.34 5 4 C2.66702567 3.95907063 0.33294775 3.95758277 -2 4 C-1.34 2.68 -0.68 1.36 0 0 Z " fill="#675142" transform="translate(78,47)"/>
<path d="M0 0 C-0.33 0.99 -0.66 1.98 -1 3 C-3.31 3 -5.62 3 -8 3 C-5.53387212 -0.1151089 -3.89156016 -0.31553191 0 0 Z " fill="#CFCCCF" transform="translate(67,62)"/>
<path d="M0 0 C0.66 0.33 1.32 0.66 2 1 C2 3.31 2 5.62 2 8 C1.34 8 0.68 8 0 8 C-0.38063221 5.6739143 -0.71269945 3.33944736 -1 1 C-0.67 0.67 -0.34 0.34 0 0 Z " fill="#7E6E67" transform="translate(73,62)"/>
<path d="M0 0 C0.33 1.32 0.66 2.64 1 4 C1.66 4 2.32 4 3 4 C3 6.97 3 9.94 3 13 C0.89172945 9.83759418 0.66182535 8.49342531 0.375 4.8125 C0.30023438 3.91144531 0.22546875 3.01039062 0.1484375 2.08203125 C0.09945312 1.39496094 0.05046875 0.70789062 0 0 Z " fill="#4D4C4D" transform="translate(32,53)"/>
<path d="M0 0 C0 0.99 0 1.98 0 3 C-4.455 3.495 -4.455 3.495 -9 4 C-5.8155864 0.8155864 -4.35822804 0 0 0 Z " fill="#B29487" transform="translate(73,53)"/>
<path d="M0 0 C1.7074998 1.28062485 3.37373596 2.61767557 5 4 C5 4.66 5 5.32 5 6 C2.525 5.01 2.525 5.01 0 4 C0 2.68 0 1.36 0 0 Z " fill="#D1CAD0" transform="translate(67,139)"/>
<path d="M0 0 C0.66 0 1.32 0 2 0 C2 2.31 2 4.62 2 7 C1.01 7 0.02 7 -1 7 C-0.67 4.69 -0.34 2.38 0 0 Z " fill="#B6968A" transform="translate(103,80)"/>
<path d="M0 0 C0.99 0.99 1.98 1.98 3 3 C3 4.32 3 5.64 3 7 C2.34 7 1.68 7 1 7 C0.67 7.99 0.34 8.98 0 10 C0 6.7 0 3.4 0 0 Z " fill="#8C6B5F" transform="translate(102,73)"/>
<path d="M0 0 C2.31 0 4.62 0 7 0 C7 0.99 7 1.98 7 3 C7.66 3 8.32 3 9 3 C8.67 3.99 8.34 4.98 8 6 C7.34 6 6.68 6 6 6 C6 4.35 6 2.7 6 1 C4.02 1 2.04 1 0 1 C0 0.67 0 0.34 0 0 Z " fill="#B4937F" transform="translate(57,73)"/>
<path d="M0 0 C3.63 0.33 7.26 0.66 11 1 C11 1.33 11 1.66 11 2 C8.36 2 5.72 2 3 2 C3 2.66 3 3.32 3 4 C2.01 3.67 1.02 3.34 0 3 C0 2.01 0 1.02 0 0 Z " fill="#AC8A78" transform="translate(74,70)"/>
</svg>
