<svg xmlns="http://www.w3.org/2000/svg" width="800" height="879"><path d="M0 0h800v879H0z" fill="#f8f8f8"/><path d="m293.597 571.741 7.668-.01a8228 8228 0 0 1 18.56-.002q7.55.007 15.103.003h2.182l4.39-.003q20.523-.006 41.045.012 17.557.012 35.113-.002a33084 33084 0 0 1 47.453-.006q7.53.003 15.06-.006a7761 7761 0 0 1 20.322.01q3.712.004 7.423-.002C566.296 571.64 619.18 593.105 661 634c2.484 2.562 4.763 5.221 7 8l2.477 3.004c11.05 13.582 20.23 28.08 27.523 43.996l1.003 2.145C714.937 725.537 717 758.811 717 797H83c0-62.28 13.084-115.75 57-162l1.428-1.51c7.932-8.335 16.305-15.68 25.572-22.49 1.06-.781 2.12-1.562 3.21-2.367 37.017-26.414 78.439-36.972 123.387-36.892" fill="#fafafa"/><path d="m394.25 82.563 2.554-.02c46.867-.22 91.095 18.921 124.733 51.065 1.46 1.389 2.939 2.753 4.42 4.119 30.218 28.418 49.7 72.796 51.177 114.021 1.31 50.527-11.108 98.673-46.447 136.377a596 596 0 0 1-5.218 5.371c-1.2 1.23-2.37 2.488-3.532 3.754C493.746 427.456 448.501 444.704 408 447c-14.377.468-28.832.737-43-2l-2.13-.375c-47.02-8.292-89.23-34.47-117.038-73.317-27.837-39.835-40.35-88.221-32.707-136.62.536-2.92 1.184-5.801 1.875-8.688l.586-2.567C223.004 191.57 238.317 162.613 261 139l1.392-1.486C286.587 111.742 317.929 95.442 352 87l2.426-.642c13.176-3.401 26.295-3.748 39.824-3.796" fill="#f9f9f9"/><path d="M328.108 525.63c6.52.011 13.04.007 19.56.005q16.406 0 32.81.029 16.783.029 33.565.02 20.376-.01 40.75.01 7.725.006 15.449.003 9.116-.003 18.232.022 3.313.006 6.627.002c42.553-.046 84.135 6.044 122.899 24.279l2.316 1.074c27.682 12.945 50.925 31.11 72.559 52.489l1.475 1.445c7.003 6.884 12.966 13.999 18.65 21.992l1.553 2.14c18.419 25.528 31.952 53.474 40.134 83.86l.83 2.992C766.214 757.468 762 797.654 762 841H38c0-86.748 3.17-164.36 63.691-229.508a235 235 0 0 0 5.934-6.68c5.976-6.837 12.395-12.806 19.488-18.476a187 187 0 0 0 5.555-4.672c25.952-22.621 58.942-38.752 92.082-47.414l3.407-.89c32.879-8.339 66.29-7.803 99.95-7.73M145 630l-1.523 1.44c-7.665 7.28-14.355 14.945-20.477 23.56l-1.241 1.745C91.235 700.135 83 744.397 83 797h634c0-38.324-1.924-73.512-19-107.98a368 368 0 0 1-3-6.247c-4.019-8.41-8.534-16.2-14-23.773l-1.409-1.956a852 852 0 0 0-4.654-6.356l-1.461-1.995c-3.012-4.017-6.23-7.596-9.854-11.072-1.686-1.685-3.183-3.458-4.685-5.308-21.534-24.782-54.892-42.295-85.897-51.693a365 365 0 0 1-5.61-1.768c-9.641-2.975-19.452-4.516-29.43-5.852l-3.477-.512c-5.11-.633-10.182-.63-15.324-.622l-3.229-.007a5320 5320 0 0 0-10.675-.004l-7.67-.01q-9.326-.011-18.653-.012-7.59 0-15.18-.006-21.555-.014-43.11-.012h-4.693q-18.81-.002-37.62-.023-19.352-.023-38.702-.02-10.85.001-21.699-.014-10.214-.014-20.427-.003-3.735.003-7.469-.007C234.564 571.622 185.121 591.591 145 630" fill="#020303"/><path d="m544.938 94.188 2.777 2.667c2.289 2.266 2.289 2.266 5.285 4.145v2h2v2h2c1.305 1.258 1.305 1.258 2.875 3.125 2.254 2.665 4.51 5.32 6.832 7.926 36.454 41.209 56.18 94.02 56.418 148.949l.014 2.66c-.03 12.22-1.188 24.136-3.389 36.152l-.674 3.703C617.31 316.911 615.124 325.97 612 335l-.773 2.273C596.922 378.94 570.913 416.83 536 444l-1.615 1.273c-7.683 6.016-15.668 11.25-24.135 16.102l-2.578 1.478c-9.814 5.507-20.01 9.794-30.547 13.71l-2.988 1.13c-55.153 20.62-118.418 19.03-172.102-5.384C285.587 464.682 270.376 456.074 256 445l-2.52-1.934c-6.006-4.763-11.632-9.895-17.23-15.128l-2.149-2.002c-4.668-4.412-8.966-9.024-13.101-13.936l-1.493-1.761c-8.021-9.564-14.98-19.61-21.507-30.239l-2.113-3.379C180.759 351.43 171.78 323.012 168 294l-.528-3.729c-.568-4.588-.669-9.144-.71-13.763l-.03-2.713c-.17-19.613-.044-38.564 4.268-57.795l.551-2.564c3.97-18.036 10.817-35.286 19.467-51.568.973-1.852 1.91-3.718 2.841-5.59C201.525 141.07 211.761 127.724 223 115l2.195-2.566C235.203 100.93 246.657 90.916 259 82l1.834-1.335c79.197-57.24 186.407-56.595 284.104 13.522M348 88l-2.696.68C315.514 96.298 289.228 111.914 267 133l-1.499 1.4c-30.415 28.562-52.191 72.096-53.623 114.196C210.772 297.11 221.025 340.65 252 379l1.477 1.843c29.856 36.972 74.072 60.366 121.265 65.75 16.566 1.512 33.849 1.267 50.258-1.593l2.16-.358c37.004-6.323 68.586-23.18 95.84-48.642.813-.76 1.627-1.519 2.465-2.3 6.926-6.686 12.84-13.965 18.535-21.7l1.297-1.753c21.98-30.124 32.202-67.966 32.015-104.935l-.004-2.23c-.064-17.554-2.03-34.28-7.308-51.082l-.62-1.98c-5.376-16.874-12.685-32.786-23.054-47.175a397 397 0 0 1-3.994-5.697C519.606 124.977 487.004 103.202 450 91l-2.664-.898c-5.408-1.729-10.927-2.976-16.461-4.227l-2.281-.518-2.227-.49-1.965-.434c-6.35-1.145-12.582-1.614-19.02-1.706-1.209-.02-1.209-.02-2.443-.038-18.932-.237-36.53.418-54.939 5.311" fill="#030303"/><path d="M82 55h28v27h27c-.08-8.138-.08-8.138-.18-16.275l-.015-3.06-.032-3.143C137 57 137 57 139 55c2.614-.227 2.614-.227 5.883-.195l3.535.02 3.707.05 3.73.027q4.573.036 9.145.098c.029 4.48.047 8.958.063 13.438l.025 3.876.01 3.682.016 3.412C165 82 165 82 164 83a116 116 0 0 1-5.785.098l-3.192-.008-4.085-.028L138 83v26l27 1v28h-26c-1.314 2.627-1.213 4.726-1.316 7.664l-.116 3.061-.13 3.9L137 165l-26 1c-.29 8.511-.29 8.511-.568 17.023l-.116 3.192-.11 3.285C110 192 110 192 109 193c-1.852.158-3.71.251-5.566.316l-3.069.116-3.927.13L84 194l-1 26h27l1 27h26v-27h28c.03 6.652.03 6.652.063 13.438l.027 4.243.008 3.315.016 3.412C165 247 165 247 164 248a106 106 0 0 1-5.531.063l-3.395-.024-7.148-.078-3.395-.024-3.138-.035c-2.346-.175-2.346-.175-3.393 1.098a120 120 0 0 0-.316 5.785l-.116 3.192-.13 4.086L137 275h-27c.04 8.84.04 8.84.09 17.681l.008 3.315.016 3.412C110 302 110 302 109 303a116 116 0 0 1-5.785.098l-3.545-.01-3.733-.026-3.744-.013Q87.597 303.03 83 303l.016 2.37q.029 5.284.046 10.567l.026 3.733.01 3.545.016 3.285C83 329 83 329 82 330c-2 .088-4.002.107-6.004.098l-3.315-.008-4.243-.027L55 330v-28l-3 1a119 119 0 0 1-5.324.316l-2.808.116-3.556.13L29 304l-1 26H0v-82c18.571-1.16 18.571-1.16 27-1l-.016-2.37q-.029-5.284-.047-10.567l-.025-3.733-.01-3.545-.016-3.285C27 221 27 221 28 220c2-.088 4.002-.107 6.004-.098l3.315.008 4.243.028L55 220v-28h27v-27h28c-.08-8.467-.08-8.467-.18-16.933l-.015-3.184-.032-3.27C110 139 110 139 112 137c2.522-.227 2.522-.227 5.664-.195l3.061.015 3.9.055L137 137v-27h-27V83H83c.408 8.467.408 8.467.838 16.933l.139 3.184.158 3.27C84 109 84 109 82 111c-2.706.135-2.706.135-6.102-.023l-3.307-.139-4.216-.213L55 110V82c12.438-.437 12.438-.437 16.365-.568l3.069-.116 3.158-.11c2.358.059 2.358.059 3.408-1.206.158-1.852.251-3.71.316-5.566l.116-3.069.13-3.927z" fill="#fcfcfc"/><path d="M632 385h28v27l-28 1 1 3c.082 1.846.107 3.695.098 5.543l-.008 2.93-.028 3.714L633 440h27v27l-27 1c.408 8.467.408 8.467.838 16.933l.139 3.184.158 3.27C634 494 634 494 632 496c-2.706.135-2.706.135-6.102-.023l-3.671-.157-3.852-.195-3.875-.172q-4.75-.213-9.5-.453l.016 2.463q.029 5.487.047 10.974l.025 3.877.01 3.682.016 3.412C605 522 605 522 604 523a116 116 0 0 1-5.785.098l-3.545-.01-3.732-.025-3.745-.014q-4.597-.02-9.193-.049v12c-6.04-.472-11.926-1.296-17.875-2.437l-2.115-.404c-2.956-.566-5.91-1.14-8.862-1.73-20.41-3.793-41.35-3.754-62.034-3.834-3.608-.016-7.215-.042-10.822-.068q-10.183-.068-20.366-.116c-7.746-.039-15.493-.088-23.239-.138A34573 34573 0 0 0 385 526l1-4h26v-27h28v27l26-1c.29-8.182.29-8.182.568-16.365l.116-3.069.11-3.158C467 496 467 496 468 495c2-.088 4.002-.107 6.004-.098l3.682.01 3.877.026 3.888.013q4.775.02 9.549.049l1 26 26 1v-27h28c-.08-8.467-.08-8.467-.18-16.933l-.015-3.184-.032-3.27C550 469 550 469 552 467c2.522-.227 2.522-.227 5.664-.195l3.399.02 3.562.05 3.586.027q4.395.036 8.789.098l-.016-2.37q-.029-5.284-.047-10.567l-.025-3.733-.01-3.545-.016-3.285C577 441 577 441 578 440c2-.088 4.002-.107 6.004-.098l3.315.008 4.244.027L605 440v-28h27z" fill="#fefefe"/><path d="m278.592 191.886 3.412.016 3.315.008 4.243.027L303 192v28h27l1 27h25l.184-5.652.253-7.286.12-3.732.127-3.545.11-3.285C357 221 357 221 358 220c2-.088 4.002-.107 6.004-.098l3.315.008 4.243.027L385 220v28h-28v27h-27c.04 8.84.04 8.84.09 17.681l.008 3.315.016 3.412C330 302 330 302 329 303c-1.852.158-3.71.251-5.566.316l-3.409.127-3.588.12-3.6.13q-4.417.16-8.837.307l-.076 2.171q-.176 4.853-.362 9.704l-.119 3.418-.127 3.262-.11 3.015C303 328 303 328 302 330l-2.28.076q-5.077.175-10.158.361l-3.587.12-3.409.127-3.158.11c-2.358-.059-2.358-.059-3.408 1.206a120 120 0 0 0-.316 5.785l-.116 3.192-.13 4.085L275 358h-26c-1.256 2.14-1.256 2.14-1 5.437 0 3.563 0 3.563-1 6.563-4.06-1.353-5.093-3.969-7.125-7.5l-1.183-2.026c-1.244-2.15-2.47-4.31-3.692-6.474l-1.2-2.1c-5.47-9.645-9.766-19.29-13.133-29.853a171 171 0 0 0-2.038-5.828C214.014 303.213 211.809 288.8 212 275h8v27l10.625.062 3.315.028c4.8.014 9.343-.068 14.06-1.09l1 3h-2l1 25 27 1v-84l1 2 1.879-.219c8.084-.847 16-.856 24.121-.781v-27h-27l-.063-13.438-.027-4.243-.008-3.315-.016-3.412c.153-3.49.216-3.553 3.706-3.706" fill="#fcfcfc"/><path d="M440 572h28l-1 5-26 1 .035 11.082q.011 5.466.02 10.933.008 3.725.02 7.45c.06 17.543-.33 35.006-1.075 52.535l-27 1-1 26-6.187.5-3.481.281c-5.77.292-11.554.219-17.332.219v-28l-27 1-1 26c-3.573.893-5.822 1.059-9.422.879l-2.8-.13-3.528-.187L330 687v-27h27v-28c-8.512.368-8.512.368-17.023.748l-3.192.13-3.285.144C331 633 331 633 330 632c-.088-2-.107-4.002-.098-6.004l.008-3.315.027-4.244L330 605h27c-.08-8.467-.08-8.467-.18-16.933l-.015-3.184-.032-3.27C357 579 357 579 359 577c2.506-.243 2.506-.243 5.629-.23l3.385.005 3.548.038 3.561.001c8.737.046 8.737.046 9.877 1.186.088 2 .107 4.002.098 6.004l-.008 3.315-.027 4.244L385 605h27v-28h28z" fill="#f5f5f5"/><path d="M192 605h28v27l-27 1v27h27v27c-13.662 1.138-13.662 1.138-19.625 1.125l-3.54.008C194 688 194 688 192 687l.108 2.463q.234 5.487.454 10.975l.17 3.876.147 3.682.143 3.412C193 714 193 714 192 715c-2 .088-4.002.107-6.004.098l-3.682-.01-3.876-.025-3.89-.014q-4.773-.018-9.548-.049l.016 2.463q.029 5.487.047 10.975l.025 3.876.01 3.682.016 3.412C165 742 165 742 164 743a116 116 0 0 1-5.785.098l-3.192-.008-4.085-.028L138 743v27h27v26h-28v-26h-27v-27c2.662-1.33 4.687-1.113 7.664-1.098l3.061.008 3.9.028L137 742v-27h-27l-.062-13.437-.028-4.244-.008-3.315-.016-3.412C110 688 110 688 111 687a55 55 0 0 1 4.008-.133l2.492-.004 2.625.012 2.555-.012 2.515.004 2.282.004c3.192.163 6.359.677 9.523 1.129v-28h28v-28h27z" fill="#fefefe"/><path d="m219 583 2 1-1 21h-28v27h-27v28h-28v28h-26l-1 27h27v27l-27 1v27h27v26h578v-26h-27v-27l25-1 1-4c3.73 19.959 3 38.224 3 59H83c0-62.28 13.084-115.75 57-162l1.428-1.51c7.932-8.335 16.305-15.68 25.572-22.49 1.06-.781 2.12-1.562 3.21-2.367C185.03 598.059 201.69 588.77 219 583" fill="#efefef"/><path d="M412 842h138v10h27v27H385v-27h27zm196.5-155.022 3.285.143 3.545.147 3.733.17 3.744.158q4.596.195 9.193.404l.076 2.064q.176 4.625.362 9.249l.119 3.248.127 3.115.11 2.872c.12 2.588.12 2.588 1.206 5.452l26 1-.035-5.871-.027-7.566-.026-3.877-.01-3.682-.016-3.412C660 688 660 688 661 687c2-.088 4.002-.107 6.004-.098l3.315.008 4.244.028L688 687v28h20l2.5 8.438.791 2.599c1.573 5.488 1.937 10.257 1.709 15.963-5.688.98-11.175 1.119-16.937 1.063L687 743v27h-27v-27h-27c.04 8.512.04 8.512.09 17.023l.008 3.192.016 3.285C633 769 633 769 632 770c-2 .088-4.002.107-6.004.098l-3.315-.008-4.243-.027L605 770v-28h27v-27h-27l-.062-13.437-.028-4.244-.008-3.315-.016-3.412c.15-3.433.179-3.584 3.614-3.614" fill="#fefefe"/><path d="M38 841h724v1H412v10h-27v27h-82v-27h26l1-10H137v10l-27 1v26H83v-27h26l1-10H38z" fill="#f8f8f8"/><path d="M358 87v22l27 1v28c-12.937-.062-12.937-.062-17.023-.09l-3.192-.008-3.285-.016c-2.44-.17-2.44-.17-3.5 1.114a120 120 0 0 0-.316 5.785l-.116 3.192-.13 4.085L357 165h-27l-1-27h-25c-.09 2.798-.09 2.798-.184 5.652l-.253 7.286-.12 3.732-.127 3.545-.11 3.285C303 164 303 164 302 165c-2 .088-4.002.107-6.004.098l-3.682-.01-3.877-.025-3.888-.014q-4.775-.018-9.549-.049-.042-6.72-.062-13.437l-.026-3.877-.01-3.682-.016-3.412C275 138 275 138 276 137a116 116 0 0 1 5.785-.098l3.192.008 4.086.028L302 137v-27h28V96c4.504-4.504 4.504-4.504 8.117-5.484l2.34-.645 2.418-.621 2.395-.668C349.853 87.354 353.072 87 358 87m384 78h28l.063 13.438.027 4.243.008 3.315.016 3.412C770 192 770 192 769 193a108 108 0 0 1-5.566.098l-3.069-.008-3.928-.028L744 193l-1 27h27v27h27v-26l3-1v27l-3 1v27h-27l-1-27-25-1c-.289 8.092-.289 8.092-.568 16.185l-.116 3.053-.11 3.127C743 272 743 272 742 275h-27v-29l1 2 3-1c1.773-.082 3.55-.107 5.324-.098l2.808.008 3.556.028L742 247v-27h-27l-.062-13.437-.028-4.244-.008-3.315-.016-3.412C715 193 715 193 716 192a116 116 0 0 1 5.785-.098l3.192.008 4.086.028L742 192z" fill="#fefefe"/><path d="M657 631q1.697 1.697 3.39 3.398 1.691 1.68 3.411 3.33c4.881 4.74 9.08 9.708 13.074 15.21l1.825 2.506C689.845 670.969 707 695.32 707 715h-19v-28l-27 1-1 27h-27c-.865-3.46-1.117-5.916-1.098-9.422l.008-2.8.028-3.528L632 688h-27v-28h27v27h28v-27h-27v-27c11.438-.437 11.438-.437 15.049-.568l2.822-.116 2.904-.11c2.196.036 2.196.036 3.225-1.206" fill="#eee"/><path d="m140.592 274.886 3.412.016 3.682.01 3.876.025 3.89.014q4.773.018 9.548.049c.029 4.48.047 8.958.062 13.437l.026 3.877.01 3.682.016 3.412C165 302 165 302 164 303a108 108 0 0 1-5.566.098l-3.409-.01-3.588-.026-3.6-.013A2999 2999 0 0 1 139 303c-.797 3.5-1.119 6.714-1.098 10.3l.008 2.67.027 3.342L138 330h27v28c-12.938-.063-12.938-.063-17.023-.09l-3.192-.008-3.285-.016c-2.44-.17-2.44-.17-3.5 1.114a120 120 0 0 0-.316 5.785l-.116 3.192-.13 4.085L137 385h-27l-.063-13.438-.027-4.243-.008-3.315-.016-3.412C110 358 110 358 111 357a116 116 0 0 1 5.785-.098l3.192.008 4.085.027L137 357v-27h-27v-27c2.572-1.286 4.57-1.21 7.445-1.316l3.262-.127 3.418-.12 3.441-.13q4.217-.16 8.434-.307l.076-2.28q.175-5.078.361-10.158l.12-3.587.127-3.409.11-3.158c.286-3.347.42-3.374 3.798-3.522M688 440h27v82c-3.118 1.04-5.275 1.115-8.543 1.098l-2.93-.008-3.715-.028L688 523v-28h-28l-.062-13.437-.028-4.244-.008-3.315-.016-3.412C660 468 660 468 661 467c1.852-.158 3.71-.251 5.566-.316l3.409-.127 3.587-.12 3.6-.13q4.419-.16 8.838-.307c.09-1.936.09-1.936.184-3.91l.254-5.152.119-2.569.127-2.53.11-2.3c.259-3.195.753-6.366 1.206-9.539m54 110h28v27h27v-26l3-1v28h-2l-1 27h-27l-1-27h-25c-.09 2.798-.09 2.798-.184 5.652l-.254 7.285-.119 3.733-.127 3.545-.11 3.285C743 604 743 604 742 605c-2 .088-4.002.107-6.004.098l-3.682-.01-3.876-.025-3.89-.014q-4.773-.018-9.548-.049-.042-6.72-.062-13.437l-.026-3.877-.01-3.682-.016-3.412C715 578 715 578 716 577a116 116 0 0 1 5.785-.098l3.192.008 4.086.028L742 577zM248 0h27l1 28h27l.063 12.938.027 4.085.008 3.192.016 3.285C303 54 303 54 302 55c-2 .088-4.002.107-6.004.098l-3.315-.008-4.243-.028L275 55V28l-27-1v28h-28l-.062-13.437-.028-4.244-.008-3.315-.016-3.412C220 28 220 28 221 27a116 116 0 0 1 5.785-.098l3.545.01 3.732.026 3.745.013q4.596.018 9.193.049l-.018-2.1c-.028-5.887.101-11.717.518-17.587z" fill="#fefefe"/><path d="M746 687q5.718-.042 11.438-.062l3.298-.026 3.135-.01 2.904-.016C769 687 769 687 770 688c.088 2 .107 4.002.098 6.004l-.008 3.315-.028 4.244L770 715h27v-27h3v27l-2 1-1 26-27 1v27h-7v27h6c1 1 1 1 1.114 3.592l-.016 3.412-.01 3.682-.025 3.876-.014 3.89q-.018 4.773-.049 9.548h-7v16h-1l-.011-3.121a7281 7281 0 0 0-.173-29.51c-.039-5.054-.071-10.108-.087-15.162-.094-28.1-.944-55.07-8.792-82.27l-1.025-3.712A839 839 0 0 0 746 687" fill="#efefef"/><path d="M715 578v27h27v27l-11.312.5-3.556.158-5.68.25A146 146 0 0 1 716 633c-1.762-2.055-1.762-2.055-3.687-4.875l-2.16-3.066L708 622c-6.486-8.84-14.17-16.369-22-24l2-1-.527-2.043c-.567-3.542-.336-6.698-.035-10.27l.308-3.8L688 578q3.75-.255 7.5-.5l2.11-.145c12.94-.838 12.94-.838 17.39.645" fill="#eee"/><path d="M38 841h724v1H137v10l-27 1v26H83v-27h26l1-10H38z" fill="#c7c7c7"/><path d="M440 842h82v10h-27v27h-28v-27h-27z" fill="#f2f2f2"/><path d="M82 0h28v28l-26 1c-.289 7.434-.289 7.434-.568 14.868l-.116 2.808-.11 2.872C83 52 83 52 82 55H55l-.062-13.437-.028-4.244-.008-3.315-.016-3.412C55 28 55 28 56 27a116 116 0 0 1 5.785-.098l3.192.008 4.085.027L82 27z" fill="#fefefe"/><path d="m331 93 2 1-2 2a100 100 0 0 0-.625 7.125L330 110l-27 1-1 26-26 1-1 27h-27l-1-6-3 2c14.243-31.306 52.96-54.546 83.422-66.805z" fill="#ededed"/><path d="m773.5 26.978 3.285.143 3.192.13 4.086.187L797 28l1 27h2v28l-2 1-1 26h-27V83c2.61-1.305 4.527-1.113 7.445-1.098l2.938.008 3.742.028L796 82l1-27h-27l-.062-13.437-.028-4.244-.008-3.315-.016-3.412c.15-3.433.179-3.584 3.614-3.614" fill="#fefefe"/><path d="M800 247v28l-2 1-1 26-12.937.563c-1.349.06-2.697.122-4.086.185l-3.192.13-3.285.144C771 303 771 303 770 302c-.088-2-.107-4.002-.098-6.004l.008-3.315.028-4.243L770 275h27v-27c2-1 2-1 3-1m-30 55v28h-28l1-27 12.938-.5 4.085-.158 3.192-.123 3.285-.127C769 302 769 302 770 302" fill="#efefef"/><path d="M742 495h28l.063 13.438.027 4.243.008 3.315.016 3.412C770 522 770 522 769 523a116 116 0 0 1-5.785.098l-3.545-.01-3.732-.025-3.745-.014q-4.597-.018-9.193-.049l.016 2.37q.029 5.284.047 10.567l.025 3.733.01 3.545.016 3.285C743 549 743 549 742 550c-2 .088-4.002.107-6.004.098l-3.315-.008-4.244-.028L715 550v-28c11.313.063 11.313.063 14.868.09l2.808.008 2.872.016c2.59-.009 2.59-.009 5.452-1.114zm-106.408-55.114 3.412.016 3.315.008 4.243.027L660 440v27l-27 1c.408 8.467.408 8.467.838 16.933l.139 3.184.158 3.27C634 494 634 494 632 496c-2.706.135-2.706.135-6.102-.023l-3.307-.139-4.216-.213L605 495v-27c3.118-1.04 5.275-1.115 8.543-1.098l3.252.01 3.392.025 3.428.014q4.193.018 8.385.049l-.016-2.37q-.029-5.284-.047-10.568l-.025-3.732-.01-3.545-.016-3.285c.156-3.425.273-3.463 3.706-3.614m-605-330 3.412.016 3.315.008 4.243.027L55 110v28l-27-1v28H0v-28h27c-.04-8.512-.04-8.512-.09-17.023l-.008-3.192-.016-3.285c.156-3.425.273-3.463 3.706-3.614m110 330 3.412.016 3.682.01 3.876.025 3.89.014q4.773.018 9.548.049c.029 4.48.047 8.958.062 13.437l.026 3.877.01 3.682.016 3.412C165 467 165 467 164 468c-2 .088-4.002.107-6.004.098l-3.315-.008-4.244-.028L137 468l1 27h-28l-.063-13.438-.027-4.243-.008-3.315-.016-3.412C110 468 110 468 111 467a116 116 0 0 1 5.785-.098l3.545.01 3.732.025 3.745.014q4.596.018 9.193.049l-.016-2.37q-.029-5.284-.047-10.568l-.025-3.732-.01-3.545-.016-3.285c.156-3.425.273-3.463 3.706-3.614" fill="#fefefe"/><path d="M550 330h16c-8.634 24.464-22.392 45.057-40.531 63.496-1.2 1.23-2.37 2.488-3.532 3.754-7.459 7.992-17.151 15.857-26.937 20.75v-33l27-1c.29-8.511.29-8.511.568-17.023l.116-3.192.11-3.285C523 358 523 358 524 357a116 116 0 0 1 5.785-.098l3.192.008 4.086.027L550 357z" fill="#ededed"/><path d="M192 0h28v27h-27c.369 8.84.369 8.84.748 17.681l.13 3.315.144 3.412C194 54 194 54 193 55c-2.073.088-4.148.107-6.223.098l-3.818-.01-4.022-.026q-2.016-.008-4.033-.013-4.952-.02-9.904-.049V28c3.118-1.04 5.275-1.115 8.543-1.098l2.93.008 3.714.027L192 27zM83 330h27v27l-26 1c-.29 8.511-.29 8.511-.568 17.023l-.116 3.192-.11 3.285C83 384 83 384 82 385c-2 .088-4.002.107-6.004.098l-3.682-.01-3.876-.026-3.89-.013Q59.776 385.03 55 385c-.058-4.292-.094-8.583-.125-12.875l-.05-3.707-.02-3.535-.032-3.27C55 359 55 359 57 357c2.522-.227 2.522-.227 5.664-.195l3.398.02 3.563.05 3.586.027q4.395.036 8.789.098l-.016-2.263q-.029-5.055-.046-10.112l-.026-3.562-.01-3.399-.016-3.142C82 332 82 332 83 330m277.592-110.114 3.412.016 3.315.008 4.243.027L385 220v28h-28v27h-27v-27c3.695-.74 6.419-1.12 10.082-1.098l2.822.01 2.908.025 2.967.014q3.61.018 7.221.049l.076-2.37q.175-5.284.361-10.568l.12-3.732.127-3.545.11-3.285c.281-3.413.362-3.463 3.798-3.614M137 220h28l.063 13.438.027 4.243.008 3.315.016 3.412C165 247 165 247 164 248a106 106 0 0 1-5.531.063l-3.395-.024-7.148-.078-3.395-.024-3.138-.035c-2.346-.175-2.346-.175-3.393 1.098a120 120 0 0 0-.316 5.785l-.116 3.192-.13 4.086L137 275h-27l-.062-13.437-.028-4.244-.008-3.315-.016-3.412C110 248 110 248 111 247a116 116 0 0 1 5.785-.098l3.192.008 4.085.028L137 247zM632 0h28v27c-9.562.438-9.562.438-12.533.568-4.884.234-9.641.644-14.467 1.432q-.04 4.563-.062 9.125l-.026 2.594c-.014 3.717.056 7.102.717 10.773L634 54c-2 2-2 2-4.706 2.135l-3.396-.158-3.307-.139-4.216-.213L605 55V28c3.118-1.04 5.275-1.115 8.543-1.098l2.93.008 3.715.027L632 27z" fill="#fefefe"/><path d="M192 110h28c0 10.117 0 10.117-2.492 13.035l-1.623 1.987c-.58.674-1.162 1.347-1.76 2.04a776 776 0 0 0-3.594 4.458l-1.812 2.256c-7.41 9.588-13.122 20.517-18.719 31.224h-25v-27c3.118-1.04 5.275-1.115 8.543-1.098l2.93.008 3.714.028L192 137z" fill="#fcfcfc"/><path d="m663.592 686.886 3.412.016 3.682.01 3.876.025 3.89.014q4.773.018 9.548.049c.189 30.76.189 30.76-.313 44.875l-.068 2.749c-.107 2.493-.107 2.493-.619 6.376-5.796 3.864-13.648 1.981-20.355 1.488-1.249-.09-2.497-.182-3.782-.276L660 742q-.037-11.508-.055-23.016-.008-3.92-.02-7.837-.018-5.618-.023-11.237l-.015-3.564v-3.275l-.007-2.9c.176-3.19.497-3.144 3.712-3.285m-633-137 3.412.016 3.315.008 4.243.027L55 550v28l-3 1v-2H28l.035 5.871.027 7.566.026 3.877.01 3.682.016 3.412C28 604 28 604 27 605c-2 .088-4.002.107-6.004.098l-3.315-.008-4.244-.028L0 605v-28l27-1c-.04-8.183-.04-8.183-.09-16.365l-.008-3.069-.016-3.158c.159-3.36.331-3.374 3.706-3.522" fill="#fefefe"/><path d="M660 330h27l.563 12.938c.06 1.348.122 2.696.185 4.085l.13 3.192.144 3.285C688 356 688 356 687 357a120 120 0 0 1-5.785.316l-3.192.116-4.086.13L661 358l-1 27h-28v-28h28zm-523 82h28v28l-27 1-1 26-27 1v-28h27zm303-302h28l-1 27-26 1-1 27h-28v-28h28zM141.506 356.757l3.123.013 3.385.005 3.548.037 3.561.002c8.737.046 8.737.046 9.877 1.186.088 2 .107 4.002.098 6.004l-.01 3.682-.026 3.876-.013 3.89q-.02 4.773-.049 9.548l-26 1c-1.286 2.572-1.21 4.57-1.316 7.445l-.127 3.262-.12 3.418-.13 3.441q-.16 4.217-.307 8.434c-4.312.196-8.625.38-12.938.562l-3.732.17-3.545.147-3.285.143C111 413 111 413 110 412c-.088-2-.107-4.002-.098-6.004l.008-3.315.027-4.244L110 385h27c-.08-8.467-.08-8.467-.18-16.933l-.015-3.184-.032-3.27c.31-3.566 1.153-4.509 4.733-4.856m220-220 3.123.013 3.385.005 3.548.037 3.561.002c8.737.046 8.737.046 9.877 1.186.088 2 .107 4.002.098 6.004l-.01 3.682-.026 3.876-.013 3.89q-.018 4.773-.049 9.548l-2.37.076q-5.284.175-10.568.361l-3.732.12-3.545.127-3.285.11c-2.44-.07-2.44-.07-3.5 1.206-.158 1.852-.251 3.71-.316 5.566l-.127 3.409-.12 3.587-.13 3.6q-.16 4.419-.307 8.838c-4.312.196-8.625.38-12.938.562l-3.732.17-3.545.147-3.285.143C331 193 331 193 330 192c-.088-2-.107-4.002-.098-6.004l.008-3.315.027-4.244L330 165h27c-.08-8.467-.08-8.467-.18-16.933l-.015-3.184-.032-3.27c.31-3.566 1.153-4.509 4.733-4.856m4.002 219.915 3.238.015 3.379.063 3.402.016c8.32.08 8.32.08 9.473 1.234.1 1.915.13 3.833.133 5.75l.004 3.531-.012 3.719.012 3.719-.004 3.531-.004 3.266C385 384 385 384 384 385c-1.852.158-3.71.251-5.566.316l-3.409.127-3.587.12-3.6.13q-4.419.16-8.838.307c-1.286 2.572-1.21 4.57-1.316 7.445l-.127 3.262-.12 3.418-.13 3.441q-.16 4.217-.307 8.434c-4.312.196-8.625.38-12.937.563l-3.733.17-3.545.146-3.285.143C331 413 331 413 330 412c-.088-2-.107-4.002-.098-6.004l.008-3.315.027-4.243L330 385h27c-.119-8.093-.119-8.093-.27-16.185l-.023-3.053-.048-3.127C357 360 357 360 358.174 358.16c2.529-1.607 4.35-1.516 7.334-1.488M660 0h28c0 18.95 0 18.95-1 26-1.745 1.745-4.19 1.233-6.566 1.316l-3.069.116-3.928.13L661 28l-1 27h-27c-1.127-7.889-1.127-7.889-1.133-11.805l-.004-2.515.012-2.555-.012-2.625.004-2.492.004-2.261C632 29 632 29 633 28c5.821-1.117 11.527-1.117 17.438-1.062L660 27z" fill="#efefef"/><path d="m195.592 439.886 3.412.016 3.315.008 4.243.027L220 440v27c-11.25.437-11.25.437-14.778.568l-2.8.116-2.857.11A32 32 0 0 0 193 469l.016 2.28q.029 5.078.046 10.157l.026 3.588.01 3.409.016 3.158C193 494 193 494 192 495c-2 .088-4.002.107-6.004.098l-3.315-.008-4.244-.028L165 495v-27c3.118-1.04 5.275-1.115 8.543-1.098l3.252.01 3.392.025 3.428.014q4.192.018 8.385.049l-.016-2.37q-.029-5.284-.047-10.568l-.025-3.732-.01-3.545-.016-3.285c.156-3.425.273-3.463 3.706-3.614" fill="#fefefe"/><path d="M165 440h27v27c-2.61 1.305-4.527 1.113-7.445 1.098l-2.938-.008-3.742-.027L166 468l-1 27h-27c-.865-3.46-1.117-5.916-1.098-9.422l.008-2.8.028-3.528L137 468l27-1zm192 192h28v28l-27 1-1 26c-3.573.893-5.822 1.059-9.422.879l-2.8-.13-3.528-.187L330 687v-27h27zm83 28h27l.063 12.938.027 4.085.008 3.192.016 3.285C467 686 467 686 466 687a120 120 0 0 1-5.785.316l-3.192.116-4.086.13L440 688v27h-28l-.062-12.937-.028-4.086-.008-3.192-.016-3.285C412 689 412 689 413 688a120 120 0 0 1 5.785-.316l3.192-.116 4.086-.13L439 687zM165 55h27v27l-26 1-1 27-13.437.063-4.244.027-3.315.008-3.412.016C138 110 138 110 137 109a115 115 0 0 1-.098-5.785l.01-3.545.025-3.733.014-3.744q.018-4.596.049-9.193c3.118-1.04 5.275-1.115 8.543-1.098l2.93.008 3.714.028L164 82zm0 660h27v27l-26 1-1 27h-27c-1.33-2.662-1.113-4.687-1.098-7.664l.01-3.399.025-3.562.014-3.586q.018-4.395.049-8.789c3.118-1.04 5.275-1.115 8.543-1.098l2.93.008 3.714.028L164 742zm-55-385h27v27l-26 1-1 27H82l.438-13.437.13-4.244.116-3.315.11-3.412C83 358 83 358 84 357a116 116 0 0 1 5.785-.098l3.192.008 4.085.027L110 357zM28 577l11.813-.062 3.714-.028 2.93-.008 3-.016C52 577 52 577 55 578v27H28l-1 27H0v-27l27-1zm577-137h27v27l-26 1-1 27h-27c-.865-3.46-1.117-5.916-1.098-9.422l.01-3.105.025-3.223.014-3.27q.018-3.99.049-7.98c3.118-1.04 5.275-1.115 8.543-1.098l2.93.008 3.715.027L604 467zm0-440h27v27l-26 1-1 27h-27c-.865-3.46-1.117-5.916-1.098-9.422l.008-2.8.028-3.528L577 28l27-1zM165 0h27v27l-26 1-1 27h-27c-.865-3.46-1.117-5.916-1.098-9.422l.008-2.8.028-3.528L137 28l27-1zm110 632v28h-27l-1 27c-2.693.898-4.257 1.128-7.02 1.133l-2.35.004-2.442-.012-2.409.012-2.361-.004-2.132-.004c-2.783-.157-5.536-.67-8.286-1.129v-27l27-1 1-26 12.375-.5 10.103-.408c1.507-.055 3.014-.092 4.522-.092M605 55h27v27l-26 1-1 27h-27c-1.33-2.662-1.113-4.687-1.098-7.664l.01-3.398.025-3.563.014-3.586q.018-4.395.049-8.789c3.118-1.04 5.275-1.115 8.543-1.098l2.93.008 3.715.028L604 82zm165 0h27l.063 13.438.027 4.243.008 3.315.016 3.412C797 82 797 82 796 83a116 116 0 0 1-5.785.098l-3.192-.008-4.086-.028L770 83v27h-27l-1-27c2.662-1.33 4.687-1.113 7.664-1.098l3.061.008 3.9.028L769 82zm0 440h27v27l-27 1v27h-28v-27c2.662-1.33 4.687-1.113 7.664-1.098l3.061.008 3.9.028L769 522z" fill="#efefef"/><path d="M713 738h1c3.73 19.959 3 38.224 3 59H83v-1h632v-26h-27v-27l25-1z" fill="#dbdcde"/><path d="M303 743h27v27l-27 1v25h-28l-.062-12.437-.028-3.928-.008-3.069-.016-3.158C275 771 275 771 276 770a116 116 0 0 1 5.785-.098l3.192.008 4.086.028L302 770z" fill="#efefef"/><path d="M84 770h53v26H83c0-20 0-20 1-26" fill="#eeefee"/><path d="m303 472 1.833.703 8.292 3.172 2.883 1.105 2.812 1.075 2.571.984c2.848 1.049 5.73 2.001 8.609 2.961v13l-27 1-1 26h-27l-.062-12.937-.028-4.086-.008-3.192-.016-3.285C275 496 275 496 276 495a116 116 0 0 1 5.785-.098l3.545.01 3.733.026 3.744.013q4.597.018 9.193.049l-.016-1.896q-.029-4.24-.046-8.479l-.026-2.984-.01-2.852-.016-2.634C302 474 302 474 303 472" fill="#eee"/><path d="M763 825h7v27c-2.698 1.349-4.653 1.016-7.664.879l-3.061-.13-3.9-.187L743 852v27h-28v-27h27v-10l20-1z" fill="#fefefe"/><path d="M495 28v27h27v22l-5-2.937q-2.573-1.494-5.148-2.985a789 789 0 0 1-5.543-3.266C493.515 60.326 480.114 54.524 466 50l2-1V28q5.906-.29 11.813-.562l3.392-.17 3.252-.147 3-.143C492 27 492 27 495 28" fill="#ededed"/><path d="M440 413v27l4 1c-3.747.825-7.498 1.633-11.25 2.438l-3.164.697c-12.146 2.586-23.945 3.012-36.336 2.928l-3.883-.014q-4.684-.018-9.367-.049v-1h5v-6h27c-.04-8.512-.04-8.512-.09-17.023l-.008-3.192-.016-3.285C412 414 412 414 413 413a60 60 0 0 1 4.043-.316l2.506-.127 2.639-.12 2.58-.13c12.616-.615 12.616-.615 15.232.693" fill="#efefef"/><path d="M412 0h28v27h-27v11h-28V28c2.662-1.33 4.687-1.113 7.664-1.098l3.061.008 3.9.027L412 27zM305.592 841.886l3.412.016 3.682.01 3.876.025 3.89.014q4.773.018 9.548.049v10c-2.698 1.349-4.653 1.016-7.664.879l-3.061-.13-3.9-.187L303 852v27h-28v-27h27v-9c1-1 1-1 3.592-1.114M797 768l1 2h2v28l-2 1-1 26h-27l-1-27-6-1v-27h7v27h27z" fill="#fefefe"/><path d="m120 659 17 1v28h-26l-1 27H93c4.488-20.348 15.79-38.717 27-56" fill="#ececec"/><path d="M660 842h27l1 9c-1.775 1.775-4.378 1.235-6.785 1.316l-3.192.116-4.086.13L661 853l-1 26h-28v-25c3.966-1.983 5.391-2.24 9.64-2.195l3.243.02 3.367.05 3.414.027q4.168.036 8.336.098zm138-264h2v82h-3v-28h-27v-27h27c-.04-8.137-.04-8.137-.09-16.275l-.008-3.06-.016-3.143C797 580 797 580 798 578" fill="#efefef"/><path d="M468 572h27v6l-27-1v28h-28l-.062-13.437-.028-4.244-.008-3.315-.016-3.412C440 578 440 578 441 577a120 120 0 0 1 5.785-.316l3.545-.127 3.733-.12 3.744-.13q4.596-.16 9.193-.307z" fill="#fefefe"/><path d="M770 0h30v55h-2c-1.04-3.118-1.115-5.275-1.098-8.543l.008-2.93.028-3.715L797 28h-27z" fill="#efefef"/><path d="m613 329 19 1c1.349 2.698 1.016 4.653.879 7.664l-.13 3.061-.187 3.9L632 357l-27 1v27c-7.312.375-7.312.375-9.603.478-3.608.214-5.328.476-8.397 2.522a69.6 69.6 0 0 1 4.61-9.773c5.912-10.543 11.337-20.815 15.39-32.227l.82-2.282A1418 1418 0 0 0 613 329" fill="#ececed"/><path d="M550 55h27v27l-27 1v16l-2.75-2.437C542.053 92.093 536.51 88.07 531 84c3.684-2.456 6.447-2.227 10.688-2.125L549 82z" fill="#eee"/><path d="m306.5 27.886 3.285.016 3.545.01 3.733.025 3.744.014q4.597.02 9.193.049l1 19-7.75 2.437c-14.497 4.749-28.263 11.08-41.403 18.82C277.182 71 277.182 71 275 71V55l27-1c.29-8.182.29-8.182.568-16.365l.116-3.069.11-3.158c.281-3.292.392-3.371 3.706-3.522" fill="#ededed"/><path d="M798 275h2v27h-2l-1 28h-27v-28h27c-.04-8.512-.04-8.512-.09-17.023l-.008-3.192-.016-3.285C797 276 797 276 798 275m-549 55h26v28h-26c-1.256 2.14-1.256 2.14-1 5.438 0 3.562 0 3.562-1 6.562-3.786-1.262-4.218-2.549-6.187-5.937l-1.606-2.715C238 359 238 359 238 357h9c-.01-.64-.02-1.28-.032-1.94-.041-2.916-.067-5.832-.093-8.748-.017-1.007-.034-2.014-.05-3.052l-.02-2.96-.032-2.713C247 335 247 335 249 330m548 330h3v28h-3v27h-27v-27c2.662-1.33 4.687-1.113 7.664-1.098l3.061.008 3.9.028L797 687z" fill="#fefefe"/><path d="M800 522v28l-2 1-1 26h-27v-27h27v-27c2-1 2-1 3-1m-2 276h2v27h-2l-1 27h-27v-27h27c-.04-8.512-.04-8.512-.09-17.023l-.008-3.192-.016-3.285C797 799 797 799 798 798m0-716 2 1v27l-2 1-1 26h-27v-27h27c-.04-8.467-.04-8.467-.09-16.933l-.008-3.184-.016-3.27C797 84 797 84 798 82M415.684 191.886l3.539.016 3.437.008 4.403.027L441 192l-1 28h-28l-.062-13.438-.028-4.243-.008-3.315-.016-3.412c.156-3.545.243-3.555 3.798-3.706" fill="#efefef"/><path d="m663.592 26.886 3.412.016 3.315.008 4.243.027L688 27v28h-28l-.063-13.438-.027-4.243-.008-3.315-.016-3.412c.153-3.49.216-3.553 3.706-3.706M68.438 576.813l3.548-.038 3.385-.005 3.123-.013C81 577 81 577 83 579c.243 2.506.243 2.506.23 5.629l-.005 3.385-.037 3.548-.002 3.561C83.14 603.86 83.14 603.86 82 605c-2 .088-4.002.107-6.004.098l-3.682-.01-3.876-.025-3.89-.014Q59.776 605.03 55 605c-.029-4.48-.047-8.958-.062-13.437l-.026-3.877-.01-3.682-.016-3.412c.27-6.171 8.809-3.777 13.551-3.78m.001-439.999 3.548-.038 3.385-.005 3.123-.013C81 137 81 137 83 139c.243 2.506.243 2.506.23 5.629l-.005 3.385-.037 3.548-.002 3.561C83.14 163.86 83.14 163.86 82 165c-2 .088-4.002.107-6.004.098l-3.682-.01-3.876-.025-3.89-.014Q59.776 165.03 55 165c-.029-4.48-.047-8.958-.062-13.437l-.026-3.877-.01-3.682-.016-3.412c.27-6.171 8.809-3.777 13.551-3.78M358 605h27c.03 6.652.03 6.652.063 13.438l.027 4.243.008 3.315.016 3.412C385 632 385 632 384 633c-1.745.1-3.494.13-5.242.133l-3.23.004-3.403-.012-3.379.012-3.238-.004-2.98-.004C360 633 360 633 357 632q-.042-5.906-.062-11.812l-.026-3.393-.01-3.252-.016-3C357 608 357 608 358 605m364.375-248.266 3.234-.007 3.391.023 3.39-.023 3.235.007 2.977.007C741 357 741 357 743 359c.243 2.506.243 2.506.23 5.629l-.005 3.385-.038 3.548-.001 3.561c-.046 8.737-.046 8.737-1.186 9.877-2 .088-4.002.107-6.004.098l-3.682-.01-3.876-.026-3.89-.013q-4.773-.018-9.548-.049c-.058-4.292-.094-8.583-.125-12.875l-.05-3.707-.02-3.535-.032-3.27c.44-5.072 3.221-4.869 7.602-4.879M27 301c2.365 3.548 2.18 4.807 1.977 8.98l-.139 3.177-.213 4.03L28 330H0l-.062-13.437-.028-4.244-.008-3.315-.016-3.412C0 303 0 303 1 302a88 88 0 0 1 5.023-.062l3.094.023 6.492.078 3.102.024 2.853.035c2.577.01 2.577.01 5.436-1.098m636.592-164.114 3.412.016 3.315.008 4.243.027L688 137v28h-28l-.063-13.438-.027-4.243-.008-3.315-.016-3.412c.153-3.49.216-3.553 3.706-3.706m-165.184 440 3.158.016 3.409.01 3.587.025 3.6.014q4.419.018 8.838.049c2.387 5.613 2.265 10.83 2.187 16.812l-.001 2.928c-.045 7.12-.045 7.12-1.186 8.26-2 .088-4.002.107-6.004.098l-3.682-.01-3.877-.026-3.888-.013q-4.775-.018-9.549-.049c-.029-4.48-.047-8.958-.063-13.438l-.025-3.876-.01-3.682-.016-3.412c.148-3.375.162-3.547 3.522-3.706M192 660h28v27c-13.662 1.138-13.662 1.138-19.625 1.125l-3.54.008C194 688 194 688 192 687zm468-468h27c1.415 2.83 1.132 5.216 1.125 8.375l.008 3.46c-.172 5.4-.684 10.782-1.133 16.165h-27z" fill="#fefefe"/><path d="M422.625 741.75c1.147.015 2.295.03 3.477.047 4.643.242 9.27.74 13.898 1.203v27h-28l-.25-12.312-.11-3.873-.03-3.053-.064-3.127C412 745 412 745 413.83 743.16c3.025-1.618 5.38-1.486 8.794-1.41" fill="#efefef"/><path d="m500.09 246.77 3.848.042 3.777.02c5.114.136 10.197.66 15.285 1.168.029 3.937.047 7.875.063 11.813l.025 3.392.01 3.252.016 3C523 272 523 272 522 275h-27l-.125-12.875-.055-4.058-.015-3.184-.032-3.27c.345-3.97 1.413-4.552 5.317-4.843M27 741l2 3h-2l1 26H0l-.062-13.437-.028-4.244-.008-3.315-.016-3.412C0 743 0 743 1 742c4.299-.44 8.621-.563 12.938-.75l3.693-.207 3.521-.152 3.25-.156z" fill="#fefefe"/><path d="m640.02 191.867 2.35-.004 2.442.012 2.409-.012 2.361.004 2.132.004c2.783.157 5.536.67 8.286 1.129v27h-27c-1.138-13.66-1.138-13.66-1.125-18.562l-.008-2.942C632 196 632 196 633 193c2.693-.898 4.257-1.128 7.02-1.133M144.883 687.121l3.184.13 4.058.187L165 688v27h-27c-1.04-3.118-1.115-5.275-1.098-8.543l.01-3.252.025-3.393.014-3.427q.018-4.192.049-8.385c2.747-1.374 4.817-1.013 7.883-.879" fill="#efefef"/><path d="M0 357h29l-1 2c-.085 1.96-.107 3.922-.098 5.883l.008 3.184.027 4.058L28 385H0zm412-27h28v27l-12.875.563c-1.34.06-2.678.122-4.058.185l-3.184.13-3.27.144C414 358 414 358 412 357zm220-220h28v27l-12.875.563c-1.34.06-2.678.122-4.058.185l-3.184.13-3.27.144C634 138 634 138 632 137zM0 797h29l-1 2c-.085 1.96-.107 3.922-.098 5.883l.008 3.184.027 4.058L28 825H0zm443.684-440.114 3.539.016 3.818.01 4.022.025q2.016.008 4.033.014 4.952.018 9.904.049l-1 2c-.085 1.96-.107 3.922-.098 5.883l.008 3.184.028 4.058L468 385h-28l-.062-13.438-.028-4.243-.008-3.315-.016-3.412c.156-3.545.243-3.555 3.798-3.706" fill="#fefefe"/><path d="m716 303-1 27-13.437.063-4.244.027-3.315.008-3.412.016C688 330 688 330 687 329a115 115 0 0 1-.098-5.785l.01-3.545.025-3.733.014-3.744q.018-4.597.049-9.193c4.458-.196 8.916-.38 13.375-.562l3.852-.17 3.671-.147 3.396-.143C714 302 714 302 716 303m-1-221v28l-13.437.063-4.244.027-3.315.008-3.412.016C688 110 688 110 687 109c-.1-1.842-.13-3.687-.133-5.531l-.004-3.395.012-3.574-.012-3.574.004-3.395.004-3.138C687 84 687 84 688 83a99 99 0 0 1 5.242-.316l3.23-.127 3.403-.12 3.379-.13C711.324 82 711.324 82 715 82" fill="#efefef"/><path d="m663.684 851.886 3.539.016 3.818.01 4.022.025q2.016.008 4.033.014 4.952.02 9.904.049l-1 27h-28l-.062-12.938-.028-4.085-.008-3.192-.016-3.285c.158-3.48.3-3.466 3.798-3.614M770 632h27v28h-27z" fill="#fefefe"/><path d="m138 522 27 1v27h-28l-.062-12.312-.028-3.873-.008-3.053-.016-3.127C137 525 137 525 138 522m606-275c4.146-.029 8.292-.047 12.438-.062l3.587-.026 3.409-.01 3.158-.016C769 247 769 247 770 248c.088 2 .107 4.002.098 6.004l-.008 3.315-.028 4.243L770 275h-28l.438-12.875.13-4.058.116-3.184.11-3.27C743 249 743 249 744 247" fill="#efefef"/><path d="M632 220h28v27h-28zM0 192h27v28H0z" fill="#fefefe"/><path d="M744 27q6.219-.042 12.438-.062l3.587-.026 3.409-.01 3.158-.016C769 27 769 27 770 28c.088 2 .107 4.002.098 6.004l-.008 3.315-.028 4.243L770 55h-28l.438-12.875.13-4.058.116-3.184.11-3.27C743 29 743 29 744 27M330 0h27l.563 13.438c.06 1.4.122 2.8.185 4.243l.13 3.315.144 3.412C358 27 358 27 357 28c-1.83.1-3.664.13-5.496.133l-3.381.004-3.56-.012-3.55.012-3.384-.004-3.123-.004C332 28 332 28 330 27zm-55 742v28l-13.437.063-4.244.027-3.315.008-3.412.016C248 770 248 770 247 769a108 108 0 0 1-.098-5.566l.01-3.409.025-3.587.014-3.6q.018-4.419.049-8.838c2.555-1.277 4.518-1.21 7.375-1.316l3.234-.127 3.391-.12 3.39-.13C272.45 742 272.45 742 275 742m-83-55 28 1v27h-28z" fill="#efefef"/><path d="m635.592 659.886 3.412.016 3.315.008 4.243.027L660 660v27h-28l-.063-12.938-.027-4.085-.008-3.192-.016-3.285c.156-3.425.273-3.463 3.706-3.614" fill="#fefefe"/><path d="M495 660h27c.03 6.652.03 6.652.063 13.438l.027 4.243.008 3.315.016 3.412C522 687 522 687 521 688a116 116 0 0 1-5.785.098l-3.192-.008-4.086-.028L495 688z" fill="#efefef"/><path d="M330 632h27v28h-27zm-106.5-.114 3.285.016 3.192.008 4.086.027L247 632v28h-27l-.062-13.438-.028-4.243-.008-3.315-.016-3.412c.15-3.433.189-3.55 3.614-3.706" fill="#fefefe"/><path d="m749.531 576.867 3.395-.004 3.574.012 3.574-.012 3.395.004 3.138.004C769 577 769 577 770 578c.088 2 .107 4.002.098 6.004l-.008 3.315-.028 4.244L770 605h-28l.438-13.437.13-4.244.116-3.315.11-3.412c.37-4.672 2.55-3.72 6.737-3.725M660 495h28l.063 12.938.027 4.085.008 3.192.016 3.285C688 521 688 521 687 522c-2 .088-4.002.107-6.004.098l-3.315-.008-4.244-.028L660 522zm110-55h27l.563 13.438c.06 1.4.122 2.8.185 4.243l.13 3.315.144 3.412C798 467 798 467 797 468c-1.83.1-3.664.13-5.496.133l-3.381.004-3.56-.012-3.55.012-3.384-.004-3.123-.004C772 468 772 468 770 467z" fill="#efefef"/><path d="m3.5 411.886 3.285.016 3.192.008 4.086.027L27 412v28H0l-.062-13.438-.028-4.243-.008-3.315-.016-3.412c.15-3.433.189-3.55 3.614-3.706" fill="#fefefe"/><path d="m749.531 356.867 3.395-.004 3.574.012 3.574-.012 6.533.008C769 357 769 357 770 358c.088 2 .107 4.002.098 6.004l-.008 3.315-.028 4.243L770 385h-28l.438-13.437.13-4.244.116-3.315.11-3.412c.37-4.672 2.55-3.72 6.737-3.725M304 247c4.146-.029 8.292-.047 12.438-.062l3.587-.026 3.409-.01 3.158-.016C329 247 329 247 330 248c.088 2 .107 4.002.098 6.004l-.008 3.315-.027 4.243L330 275l-28 1 .438-13.375.13-4.216.116-3.307.11-3.396C303 249 303 249 304 247" fill="#efefef"/><path d="M330 192h27v28h-27z" fill="#fefefe"/><path d="m584.883 687.121 3.184.13 4.058.187L605 688v27h-27c-1.04-3.118-1.115-5.275-1.098-8.543l.01-3.252.025-3.393.014-3.427q.018-4.192.049-8.385c2.747-1.374 4.817-1.013 7.883-.879M526.5 631.886l3.285.016 3.192.008 4.086.027L550 632v28h-27l-.062-13.438-.028-4.243-.008-3.315-.016-3.412c.15-3.433.189-3.55 3.614-3.706m-216.969-55.019 3.395-.004 3.574.012 3.574-.012 3.395.004 3.138.004C329 577 329 577 330 578c.088 2 .107 4.002.098 6.004l-.008 3.315-.027 4.244L330 605h-27l-.062-13.437-.028-4.244-.008-3.315-.016-3.412c.206-4.697 2.492-3.72 6.645-3.725M468 577q5.906-.042 11.813-.062l3.392-.026 3.252-.01 3-.016C492 577 492 577 495 578v27h-27l-.562-12.875-.186-4.058-.13-3.184-.144-3.27C467 579 467 579 468 577M0 550h28l.063 12.938.027 4.085.008 3.192.016 3.285C28 576 28 576 27 577c-2 .088-4.002.107-6.004.098l-3.315-.008-4.244-.028L0 577z" fill="#efefef"/><path d="m117.664 411.902 3.061.008 3.9.027L137 412v28h-27v-27c2.662-1.33 4.687-1.113 7.664-1.098m495-55 3.061.008 3.9.027L632 357v28h-27v-27c2.662-1.33 4.687-1.113 7.664-1.098m165-165 3.061.008 3.9.028L797 192v28h-27v-27c2.662-1.33 4.687-1.113 7.664-1.098" fill="#fefefe"/><path d="m750.41 136.867 3.248-.004 3.404.012 3.417-.012 3.244.004 2.992.004C769 137 769 137 770 138c.088 2 .107 4.002.098 6.004l-.008 3.315-.028 4.244L770 165h-28l1-27c2.596-1.298 4.507-1.13 7.41-1.133M550 0h27c.03 6.652.03 6.652.063 13.438l.027 4.243.008 3.315.016 3.412C577 27 577 27 576 28a116 116 0 0 1-5.785.098l-3.192-.008-4.086-.027L550 28zM357 688h28v27h-27c-1.04-3.118-1.115-5.275-1.098-8.543l.008-2.93.027-3.715zM195.592 467.886l3.412.016 3.315.008 4.243.027L220 468v27h-28l-.063-12.938-.027-4.085-.008-3.192-.016-3.285c.156-3.425.273-3.463 3.706-3.614M688 357l11.813-.062 3.714-.028 2.93-.008 3-.016C712 357 712 357 715 358v27h-27z" fill="#efefef"/><path d="M361.614 164.773c1.079.01 2.157.02 3.269.032l3.184.015 4.058.055L385 165v27h-28l-.125-12.375-.055-3.9-.015-3.06-.032-3.143c.323-3.593 1.263-4.438 4.84-4.75" fill="#fefefe"/><path d="m248 27 11.813-.062 3.714-.028 2.93-.008 3-.016C272 27 272 27 275 28v27h-27zm499.522 384.773c1.037.01 2.074.02 3.142.032l3.061.015 3.9.055L770 412v28h-27l-.125-12.875-.055-4.058-.015-3.184-.032-3.27c.31-3.577 1.156-4.517 4.749-4.84" fill="#efefef"/><path d="M139 385c2.614-.34 2.614-.34 5.883-.293l3.184.023 4.058.082L165 385v27h-28l-.125-11.812-.055-3.715-.015-2.93-.032-3C137 388 137 388 139 385" fill="#fefefe"/><path d="M359 302h26v28h-27c-1.864-3.727-1.185-8.211-1.187-12.312l-.038-2.881-.005-2.795-.013-2.548C357 307 357 307 359 302m115.023-110.133 3.094-.004 3.258.012 3.234-.012 3.102.004 2.853.004C492 192 492 192 495 193v27h-27l-.062-13.437-.028-4.244-.008-3.315-.016-3.412c.198-4.516 2.112-3.72 6.137-3.725" fill="#efefef"/><path d="M522 55h28c.03 6.652.03 6.652.063 13.438l.027 4.243.008 3.315.016 3.412C550 82 550 82 549 83c-5.075.363-10.017.022-15-1l-1 2a132 132 0 0 1-6-3l-2.687-1.406c-3.691-4.14-2.844-8.515-2.625-13.844z" fill="#fefefe"/><path d="m413 632 27 1v27h-27c-.64-3.837-1.127-6.872-1.133-10.637l-.004-2.498.012-2.553-.012-2.587.004-2.487.004-2.248C412 635 412 635 413 632m226.238-220.133 2.487-.004 2.587.012 2.553-.012 2.498.004 2.26.004c2.813.153 5.598.666 8.377 1.129v27h-27l-1-27c2.752-.917 4.401-1.129 7.238-1.133M660 275h28c0 14.196 0 14.196-.312 19.625l-.176 3.54c-.17.935-.338 1.87-.512 2.835-7.052 4.701-18.998 1.628-27 1zM413 852q6.188-.042 12.375-.062l3.563-.026 3.398-.01 3.142-.016C438 852 438 852 440 853v26h-28l-.062-11.25-.028-3.528-.008-2.8-.016-2.857c.104-2.346.447-4.321 1.114-6.565m302-357h27v26c-3.698 1.85-4.802 2.25-8.66 2.23l-2.654-.005-2.749-.038-2.76-.001c-6.755-.045-6.755-.045-10.177-1.186zm0-495h27v26c-6.75 2.25-6.75 2.25-10.96 2.195l-2.677-.02-2.738-.05-2.809-.027A861 861 0 0 1 716 28c-1.06-3.178-1.115-5.426-1.098-8.762l.008-3.053.028-3.872zM385 715h27v28c-14 0-14 0-27-1zm275 0h28l-.312 12.875-.076 4.058-.1 3.184-.08 3.27L687 741c-7.052 4.701-18.998 1.628-27 1zM0 660h27l.063 12.938.027 4.085.008 3.192.016 3.285C27 686 27 686 26 687c-8.635 1.225-17.29 1-26 1zm385 0h27v27l-6.187.5-3.481.281c-5.77.292-11.554.219-17.332.219z" fill="#efefef"/><path d="M660 550h28l-1 27c-5.713.635-11.107 1.2-16.812 1.313l-3.833.113C663 578 663 578 660.801 576.326c-2.27-2.93-2.206-4.309-1.973-7.967l.153-2.922c.09-1.217.178-2.434.269-3.687z" fill="#eeeeef"/><path d="M385 0h27v27l-6.187.5-3.481.281c-5.77.292-11.554.219-17.332.219zm385 660h27v27l-12.375.5-3.9.158-3.06.123-3.143.127c-1.507.055-3.014.092-4.522.092z" fill="#efefef"/><path d="M632 303h28v27h-28z" fill="#eeeeef"/><path d="M660 110h28v27c-3.248 1.083-5.359 1.034-8.762.879l-3.053-.13-3.872-.186L660 137z" fill="#efefef"/><path d="M303 632h27v28h-27z" fill="#eee"/><path d="M385 220h27v27c-14.625 1.125-14.625 1.125-19.812 1.063l-3.02-.028L387 248v-2h-2zm-110 0h27v27c-8.698.638-17.274 1.163-26 1-1.357-2.714-1.112-4.848-1.098-7.883l.008-3.184.027-4.058zm-165 0h27l.563 13.438c.06 1.4.122 2.8.185 4.243l.13 3.315.144 3.412C138 247 138 247 137 248c-2 .088-4.002.107-6.004.098l-3.315-.008-4.243-.028L110 248zm440 440h27l.563 12.938c.06 1.348.122 2.696.185 4.085l.13 3.192.144 3.285C578 686 578 686 577 687c-1.998.158-4 .251-6.004.316l-3.315.116-4.244.13L550 688z" fill="#efefef"/><path d="M330 192v28h-27v-27l7.875-.5 2.414-.158C318.894 192 324.354 192 330 192" fill="#eee"/><path d="m82 246 2 1c1.875.073 3.753.084 5.629.063l3.385-.024 3.549-.039q3.47-.038 6.94-.062l3.12-.036C109 247 109 247 110 248c.088 2 .107 4.002.098 6.004l-.008 3.315-.028 4.243L110 275H82l1-27-2-1z" fill="#efefef"/><path d="m742 466 2 1c1.958.154 3.92.25 5.883.316l3.184.116 4.058.13L770 468v27h-28l1-27-2-1z" fill="#eee"/><path d="m416.5 302.886 3.285.016 3.192.008 4.086.027L440 303v27h-28l.438-12.938.13-4.085.116-3.192.11-3.285c.276-3.357.336-3.46 3.706-3.614M521 247q5.955-.037 11.908-.055 2.026-.008 4.054-.02c1.938-.013 3.877-.018 5.815-.023l3.54-.016C549 247 549 247 550 248c.088 2 .107 4.002.098 6.004l-.008 3.315-.028 4.243L550 275h-28l1-27zm-81-27h27l.063 12.938.027 4.085.008 3.192.016 3.285C467 246 467 246 466 247c-1.998.158-4 .251-6.004.316l-3.315.116-4.243.13L439 248zM330 358v27h-27v-27l9.125-.5 2.84-.158c12.389-.665 12.389-.665 15.035.658" fill="#efefef"/><path d="m172.45 356.902 2.568.01 2.67.026 2.705.013q3.303.018 6.607.049c5.748 9.186 7.109 16.377 6 27-1 1-1 1-3.592 1.114l-3.412-.016-3.315-.008-4.244-.027L165 385v-27c2.824-.941 4.53-1.117 7.45-1.098" fill="#fdfdfd"/><path d="M715 220h27v27c-3.695.74-6.419 1.12-10.082 1.098l-2.822-.01-2.909-.025-2.966-.014q-3.61-.018-7.221-.049c-1.357-2.714-1.112-4.848-1.098-7.883l.008-3.184.028-4.058z" fill="#efefef"/><path d="M550 192v28h-27v-27l10.125-.5 3.157-.158 2.538-.123 2.571-.127c2.868-.101 5.74-.092 8.609-.092m-83 549 1 2h27v27h-27l-.5-12.812-.158-4.031-.123-3.177-.127-3.253A170 170 0 0 1 467 741M54 301c2 2 2 2 2.135 4.706l-.158 3.396-.139 3.307-.213 4.216L55 330H28l-.062-12.937-.028-4.086-.008-3.192-.016-3.285C28 304 28 304 29 303a94 94 0 0 1 5.059-.281l3.107-.114 3.272-.105q3.185-.103 6.37-.219l2.87-.092c2.346-.046 2.346-.046 4.322-1.189m471.592 440.978 3.412.143 3.315.13 4.243.187L550 743v27h-28l-.063-13.437-.027-4.244-.008-3.315-.016-3.412c.153-3.49.206-3.584 3.706-3.614" fill="#eee"/><path d="M385 330h27v27l-27 1zm108-84c2 2 2 2 2.227 4.706-.01 1.12-.02 2.24-.032 3.396l-.015 3.307-.055 4.216L495 275h-27v-27c11.938-.437 11.938-.437 15.707-.568l2.945-.116 3.031-.11c2.278.047 2.278.047 3.317-1.206M385 110h27c1.349 2.698 1.016 4.653.879 7.664l-.13 3.061-.187 3.9L412 137l-27 1z" fill="#efefef"/><path d="M110 28v27H82l.438-12.937.13-4.086.116-3.192.11-3.285C83 29 83 29 84 28c3.967-.384 7.956-.47 11.938-.625l3.404-.156 3.248-.133 2.996-.124C108 27 108 27 110 28m82 715h28v27h-28z" fill="#eee"/><path d="M303 688h27v27l-28 1zm-138-28h27v27l-27 1zm440-275h27v27l-12.937.563c-1.349.06-2.697.122-4.086.185l-3.192.13-3.285.144C606 413 606 413 605 412c-.088-2-.107-4.002-.098-6.004l.008-3.315.028-4.243zM168.5 109.886l3.285.016 3.192.008 4.086.027L192 110v27l-27 1-.062-13.438-.028-4.243-.008-3.315-.016-3.412c.15-3.433.189-3.55 3.614-3.706M660 55h28l.063 12.938.027 4.085.008 3.192.016 3.285C688 81 688 81 687 82c-2 .088-4.002.107-6.004.098l-3.315-.008-4.244-.028L660 82z" fill="#efefef"/><path d="M633 743h27v27h-28z" fill="#eee"/><path d="M330 715h27v27l-12.937.563c-1.349.06-2.697.122-4.086.185l-3.192.13-3.285.144C331 743 331 743 330 742c-.088-2-.107-4.002-.098-6.004l.008-3.315.027-4.244z" fill="#efefef"/><path d="M495 688v27h-27v-27l12.375-.562 3.9-.186 3.06-.13 3.143-.144C493 687 493 687 495 688m275-56v28h-27v-27l12.938-.5 4.085-.158 3.192-.123 3.285-.127C769 632 769 632 770 632" fill="#eee"/><path d="M715 550h27v27l-27 1zM550 440h27v27l-27 1zm-23.5-137.114 3.285.016 3.192.008 4.086.027L550 303v27h-28l.438-12.938.13-4.085.116-3.192.11-3.285c.276-3.357.336-3.46 3.706-3.614" fill="#efefef"/><path d="M467 303h28v27h-27z" fill="#eee"/><path d="M715 110h27v27l-27 1zM0 110h28l-1 27H0z" fill="#efefef"/><path d="M633 83h27v27h-28zm-440 0h27v27h-28z" fill="#eee"/><path d="M110 0h27v27l-27 1z" fill="#efefef"/><path d="M550 852h27v27h-27zM0 852h27v27H0z" fill="#fefefe"/><path d="M770 770h27v27h-27zm-165-55h27v27h-27zm-55 0h27l.063 12.938.027 4.085.008 3.192.016 3.285C577 741 577 741 576 742c-4.155.384-8.331.47-12.5.625l-3.574.156-3.395.133-3.138.124C551 743 551 743 550 742c-.088-2-.107-4.002-.098-6.004l.008-3.315.028-4.244zm-302-27h27v27h-27z" fill="#efefef"/><path d="M193 633h27v27h-27zm357-28h27v27h-27z" fill="#eee"/><path d="M385 605h27v27h-27zm-110 0h27v27h-27zm330-110h27v27h-27zm-55 0h27v27h-27zm-385 0h27v27h-27zM0 495h28l-.437 12.938-.131 4.085-.116 3.192-.11 3.285C27 521 27 521 26 522a116 116 0 0 1-5.785.098l-3.192-.008-4.085-.028L0 522z" fill="#efefef"/><path d="M688 468h27v27h-27z" fill="#eee"/><path d="M110 468v27H83l-.062-12.937-.028-4.086-.008-3.192-.016-3.285C83 469 83 469 84 468c3.967-.384 7.956-.47 11.938-.625l3.404-.156 3.248-.133 2.996-.124C108 467 108 467 110 468m275-83h27v27h-27zm-220 0h27v27h-27zm330-55h27v27h-27zm-165 0h27v27h-27zm358-82h27v27h-27zm-660 0h27v27H28z" fill="#efefef"/><path d="M110 192v28H83l-.062-12.937-.028-4.086-.008-3.192-.016-3.285C83 194 83 194 84 193a110 110 0 0 1 5.531-.316l3.395-.127 3.574-.12 3.574-.13c8.46-.307 8.46-.307 9.926-.307" fill="#eee"/><path d="M715 165h27v27h-27zm-220 0h27v27h-27zm-110 0h27v27h-27zm220-55h27v27h-27zm-275 0h27v27h-27z" fill="#efefef"/><path d="M110 110h27v27h-27z" fill="#eee"/><path d="M110 55h27v27h-27zm578-27h27v27h-27zM55 0h27v27H55zm688 852h27v27h-27zm-220 0h27v27h-27zm-220 0h27v27h-27z" fill="#efefef"/><path d="M632 770h28v26h-28z" fill="#fefefe"/><path d="M220 440h27l.063 12.938.027 4.085.008 3.192.016 3.285C247 466 247 466 246 467a116 116 0 0 1-5.785.098l-3.192-.008-4.085-.027L220 467z" fill="#efefef"/><path d="M248 248h27v27h-27z" fill="#eee"/><path d="m113.5 164.886 3.285.016 3.192.008 4.086.027L137 165v27h-27l-.062-12.938-.028-4.085-.008-3.192-.016-3.285c.153-3.37.245-3.46 3.614-3.614" fill="#efefef"/><path d="M83 83h27v27H83z" fill="#eee"/><path d="m251.5 851.886 3.285.016 3.192.008 4.086.027L275 852v27h-27l-.062-12.938-.028-4.085-.008-3.192-.016-3.285c.153-3.37.245-3.46 3.614-3.614" fill="#efefef"/><path d="m117.664 851.902 3.061.008 3.9.028L137 852v27h-27v-26c2.662-1.33 4.687-1.113 7.664-1.098M192 770h28v26h-28z" fill="#fefefe"/><path d="m86.5 522.886 3.285.016 3.192.008 4.086.027L110 523v27H83l-.062-12.938-.028-4.085-.008-3.192-.016-3.285c.153-3.37.245-3.46 3.614-3.614" fill="#eee"/><path d="m498.5 274.886 3.285.016 3.545.01 3.733.025 3.744.014q4.596.018 9.193.049c.029 4.312.047 8.625.063 12.937l.025 3.733.01 3.545.016 3.285C522 301 522 301 521 302a116 116 0 0 1-5.785.098l-3.545-.01-3.732-.026-3.745-.013q-4.597-.018-9.193-.049-.042-6.468-.062-12.938l-.026-3.732-.01-3.545-.016-3.285c.153-3.37.245-3.46 3.614-3.614M495 0h27l.063 12.938.027 4.085.008 3.192.016 3.285C522 26 522 26 521 27c-1.842.1-3.687.13-5.531.133l-3.395.004-3.574-.012-3.574.012-3.395-.004-3.138-.004C496 27 496 27 495 26a115 115 0 0 1-.098-5.785l.008-3.192.027-4.085zM201.438 851.875l2.87-.008c5.241.189 10.466.698 15.692 1.133v26h-28c0-13.5 0-13.5.5-19.75l.281-3.61L193 853c3.083-1.028 5.208-1.134 8.438-1.125" fill="#efefef"/><path d="m501.531 494.867 3.395-.004 3.574.012 3.574-.012 6.533.008C521 495 521 495 522 496c.087 1.927.107 3.857.098 5.785l-.01 3.545-.025 3.733-.014 3.744q-.018 4.597-.049 9.193c-4.312.029-8.625.047-12.937.063l-3.733.025-3.545.01-3.285.016C496 522 496 522 495 521c-.1-1.842-.13-3.687-.133-5.531l-.004-3.395.012-3.574-.012-3.574.004-3.395.004-3.138c.244-4.512 2.71-3.522 6.66-3.526" fill="#efeeef"/><path d="m58.5 54.886 3.285.016 3.545.01 3.733.025 3.744.014Q77.404 54.97 82 55c.058 4.125.094 8.25.125 12.375l.05 3.562.02 3.399.032 3.142C82 80 82 80 80 82c-2.522.227-2.522.227-5.664.195l-3.398-.02-3.563-.05-3.586-.027Q59.394 82.062 55 82c-.029-4.312-.047-8.625-.062-12.938l-.026-3.732-.01-3.545-.016-3.285c.153-3.37.245-3.46 3.614-3.614" fill="#efefef"/><path d="m305.592 769.886 3.412.016 3.682.01 3.876.025 3.89.014q4.773.02 9.548.049v26h-27c-.993-2.978-1.129-4.962-1.133-8.07l-.004-2.965.012-3.09-.012-3.113.004-2.957.004-2.72c.194-3.126.566-3.06 3.721-3.199" fill="#fefefe"/><path d="M440 770h27c1.24 2.482 1.13 4.164 1.133 6.938l.004 2.96-.012 3.102.012 3.102-.004 2.96-.004 2.723C468 794 468 794 467 796h-27z" fill="#eeefef"/><path d="M549 576c9 0 9 0 13.156 1.313l2.4.738 2.944.949 9.5 3v23h-27z" fill="#fdfdfd"/><path d="M385 83v27l-13.437.063-4.244.027-3.315.008-3.412.016C358 110 358 110 357 109a91 91 0 0 1-.098-5.129l.01-3.135.026-3.299.013-3.31q.018-4.064.049-8.127c2.602-.513 5.206-1.01 7.813-1.5l2.177-.434C373.266 82.906 378.355 83 385 83" fill="#ededed"/><path d="m691.5 769.886 3.285.016 3.192.008 4.086.027L715 770v26h-28c0-25.91 0-25.91 4.5-26.114" fill="#fefefe"/><path d="M220 770h27c3.444 6.888.571 18.716 0 26h-27z" fill="#efefef"/><path d="m251.29 356.757 2.831.013 3.084.005 3.233.037 3.22.002c7.92.046 7.92.046 11.342 1.186v27c-14.679 2.466-14.679 2.466-18.869-.18-4.41-4.064-8.23-9.116-10.131-14.82l1-3a72 72 0 0 0-.062-4.063c.09-5.728.09-5.728 4.353-6.18" fill="#eee"/><path d="M165 770h27c1.324 2.648 1.019 4.49.879 7.445l-.13 2.938-.186 3.742L192 796h-27z" fill="#eeeeef"/><path d="m86 739 1 4 24-1-1 28H84v6h-1c.781-25.97.781-25.97 3-37" fill="#ededed"/><path d="M605 770h27v26h-27z" fill="#eeeeef"/><path d="M550 770h27v26h-27zm-55 0h27v26h-27z" fill="#eeefef"/><path d="m388.5 769.886 3.285.016 3.545.01 3.733.025 3.744.014q4.597.018 9.193.049c1.324 2.648 1.019 4.49.879 7.445l-.13 2.938-.186 3.742L412 796h-27l-.062-12.438-.028-3.927-.008-3.069-.016-3.158c.156-3.305.302-3.371 3.614-3.522" fill="#eeeeef"/><path d="M330 770h27v26h-27z" fill="#eeefef"/><path d="M577 274c-.499 10.111-1.39 19.995-3 30l-2-1a81 81 0 0 0-4.754-.062l-2.838.023-2.97.039q-2.91.037-5.817.063l-2.611.035C551 303 551 303 550 302c-.088-2-.107-4.002-.098-6.004l.01-3.682.025-3.877.014-3.888q.018-4.775.049-9.549l16.67-.645 3.545-.136 3.285-.127C576 274 576 274 577 274" fill="#eee"/><path d="M84 770h26v26H83l-.062-9.625-.028-2.999-.008-2.415-.016-2.444c.13-2.86.643-5.693 1.114-8.517" fill="#fefefe"/><path d="M571 218c4.882 9.254 4.518 19.8 5 30h-26v-28h21z" fill="#ededed"/><path d="m608.5 164.886 3.285.016 3.192.008 4.086.027L632 165v27h-22c-7.062-18.303-7.062-18.303-5-26 1-1 1-1 3.5-1.114" fill="#eee"/><path d="M597.75 384.813 605 385v27c-13.66 1.138-13.66 1.138-19.062 1.125l-3.223.008C580 413 580 413 577 412c-1.324-8.154.775-13.15 5.447-19.67 4.676-6.188 7.595-7.8 15.303-7.517" fill="#fdfdfd"/><path d="M409 83c10.749.38 20.549 2.527 31 5v22h-28l-.062-11.312-.028-3.556-.008-2.808-.016-2.872C412 87 412 87 413 84z" fill="#ededed"/><path d="M440 89c16.874 2.41 36.124 9.925 50 20v1h-50z" fill="#fdfdfd"/><path d="m55 688-.48 1.555C51.847 698.324 49.44 707.164 47 716l-19-1v-27l12.375-.562 3.9-.186 3.06-.13 3.143-.144C53 687 53 687 55 688" fill="#ededed"/><path d="M96.816 714.902q2.374.01 4.746.035l2.444.014q2.997.02 5.994.049c.029 4.48.047 8.958.063 13.438l.025 3.876.01 3.682.016 3.412C110 742 110 742 109 743a83 83 0 0 1-4.91.098l-2.998-.01-3.154-.025-3.167-.014Q90.886 743.03 87 743c-.313-6.834.333-12.564 2.438-19.062l.697-2.295c2.049-6.622 2.049-6.622 6.681-6.74" fill="#fcfcfc"/><path d="m168.225 164.886 2.904.016 3.135.01 3.298.025 3.311.014q4.064.018 8.127.049a226 226 0 0 1-6.625 18l-.945 2.309c-2.3 5.561-2.3 5.561-3.43 6.691a153 153 0 0 1-6.563.062l-3.628-.027L165 192c-.029-4.312-.047-8.625-.063-12.938l-.025-3.732-.01-3.545-.016-3.285c.145-3.191.163-3.451 3.339-3.614" fill="#eee"/><path d="M760 743h10v27h-7v27h6c1 1 1 1 1.114 3.592l-.016 3.412-.01 3.682-.025 3.876-.014 3.89q-.018 4.773-.049 9.548h-7v16h-1l-.031-3.229q-.147-15.116-.308-30.231-.083-7.77-.158-15.54-.072-7.508-.156-15.017-.03-2.853-.056-5.708c-.086-9.478-.224-18.845-1.291-28.275" fill="#e1e1e2"/><path d="m580.592 521.978 3.412.143 3.682.147 3.876.17 3.89.158q4.773.196 9.548.404v22l-6.063-2.25c-7.527-2.739-15.17-4.803-22.937-6.75l2-1-.5-1.5c-.713-3.563-.62-6.865-.5-10.5 1-1 1-1 3.592-1.022" fill="#ececec"/><path d="M193 523h27v12l2 1-3.262.918c-9.13 2.606-17.922 5.535-26.738 9.082zm31-193h23c.782 3.911 1.081 6.454.879 10.3l-.147 2.96-.17 3.053-.158 3.11q-.195 3.79-.404 7.577l-10 1q-2.699-5.026-5.375-10.062l-1.54-2.858-1.483-2.803-1.365-2.555C226 337 226 337 224 330" fill="#ededed"/><path d="M330 412v23c-6.145-2.048-11.622-4.086-17.312-7l-2.088-1.04c-3.443-1.739-6.605-3.496-9.6-5.96h2v-8q3.938-.255 7.875-.5l2.203-.145c5.675-.348 11.208-.355 16.922-.355" fill="#ececec"/><path d="M697 687q1.943 4.31 3.875 8.625c.365.808.73 1.616 1.105 2.45C707 709.3 707 709.3 707 715h-19v-27c7-1 7-1 9-1" fill="#ebebeb"/><path d="m591.133 136.34 2.2.254 2.792.344L605 138v27l-6 1-1.25-2.64c-3.597-7.458-7.47-14.215-12.344-20.934L584 140l1-3c2.415-1.208 3.478-.978 6.133-.66" fill="#ececed"/><path d="M755 715h15q.04 6.719.063 13.438l.025 3.876.01 3.682.016 3.412C770 742 770 742 769 743c-1.52.072-3.042.084-4.562.063l-2.504-.028L760 743q-.976-4.467-1.937-8.937l-.553-2.518c-1.18-5.509-1.972-10.937-2.51-16.545" fill="#fcfcfc"/><path d="m413 27 27 1v14l-4.273-.434a1801 1801 0 0 0-17.352-1.629l-3.043-.275L408 39v-1h5z" fill="#ecebed"/><path d="m41 743-3 27H28c-1-1-1-1-1.114-3.408l.016-3.158.01-3.409.026-3.587.013-3.6q.018-4.419.049-8.838c4.185-2.092 9.321-1 14-1" fill="#eee"/><path d="m361.614 26.865 3.269.158 3.535.157 3.707.195 3.73.172q4.574.213 9.145.453v10c-3.582.78-7.085 1.242-10.738 1.535l-3.233.264-3.341.264-3.4.275q-4.144.335-8.288.662.172-2.938.375-5.875c.07-1.09.14-2.181.21-3.305.545-3.702 1.22-4.758 5.029-4.955" fill="#ececed"/><path d="M632 275v27c-3.129.782-5.14 1.114-8.25 1.063L620 303l-1 3 .402-3.008q.27-2.058.535-4.117l.282-2.17c.754-6.032 1.163-12.034 1.437-18.107L622 276c2-1 2-1 10-1" fill="#ebebeb"/><path d="M660 635c4.751 4.072 8.39 7.36 12.25 12.063l2.516 3.035C680 656.897 680 656.897 680 660h-20z" fill="#fbfbfb"/><path d="M220 842h28c0 8 0 8-1 10h-27z" fill="#efefef"/><path d="M330 842h27v10c-4.312.196-8.625.38-12.937.563l-3.733.17-3.545.146-3.285.143C331 853 331 853 330 852z" fill="#eee"/><path d="M275 842h28l-1 10h-27zm330 0h27v10h-27z" fill="#efefef"/><path d="M550 842h27v10h-27zm-165 0h27v10h-27z" fill="#eee"/><path d="M165 842h27v10h-27z" fill="#efefef"/><path d="M695 605h20v24c-4.16-3.328-6.436-5.67-9.437-9.875-2.542-3.484-5.008-6.766-8.125-9.75-.805-.784-1.61-1.567-2.438-2.375z" fill="#fbfafb"/><path d="M798 578h2v82h-3q-.034-15.594-.052-31.188-.007-7.24-.023-14.481-.016-6.983-.02-13.967-.003-2.668-.01-5.337-.01-3.727-.009-7.456l-.01-2.245c.01-5.098.01-5.098 1.124-7.326" fill="#f2f2f2"/><path d="m212 245 1 3h7v27h-8z" fill="#ededed"/><path d="M763 797h6c1 1 1 1 1.114 3.592l-.016 3.412-.01 3.682-.025 3.876-.014 3.89q-.018 4.773-.049 9.548h-7z" fill="#eeeff0"/><path d="M385 440h27v6c-3.542 1.098-6.821 1.114-10.516 1.098l-3.789-.01-3.945-.026-3.992-.013q-4.879-.018-9.758-.049v-1h5z" fill="#e6e6e8"/><path d="M137 641v19h-16c1.801-4.503 3.347-6.973 6.375-10.625l2.336-2.852C134.72 641 134.72 641 137 641" fill="#fbfbfb"/><path d="M55 660h12c-1.78 5.809-4.212 11.31-6.625 16.875l-1.273 2.953A4319 4319 0 0 1 56 687h-1z" fill="#ebebeb"/><path d="M440 487v8h-28v-4q5.874-1.007 11.75-2l3.367-.578 3.242-.547 2.984-.508C436 487 436 487 440 487" fill="#e7e7e8"/><path d="M797 0h3v55h-2c-1.001-3.004-1.121-4.977-1.114-8.114v-3.154l.016-3.4.005-3.485c.005-3.678.018-7.356.03-11.035l.014-7.474Q796.968 9.169 797 0m0 440h3v55h-2c-.915-3.116-1.122-5.894-1.114-9.136v-3.093l.016-3.318.005-3.413c.005-3.597.018-7.193.03-10.79l.014-7.316q.017-8.967.049-17.934" fill="#fcfcfc"/><path d="M561 110h16l1 20c-5.634-5.634-5.634-5.634-7.86-8.262l-1.44-1.7-1.45-1.725-1.496-1.76c-3.626-4.296-3.626-4.296-4.754-6.553" fill="#e9e8e9"/><path d="M355 488c1.535.2 1.535.2 3.102.402 15.261 1.848 30.544 2.222 45.898 2.598v1h-19l-1 3h-26v-6z" fill="#dfdfdf"/><path d="M550 170c2.474 2.474 3.693 3.973 5.262 6.941l1.2 2.268 1.226 2.353c.415.781.83 1.562 1.26 2.366C562 189.738 562 189.738 562 192h-12z" fill="#e7e7e7"/><path d="M468 98c7.83 2.879 15.008 6.423 22 11v1h-22z" fill="#e9e9e9"/><path d="M268 572h34v5l-27 1v-5h-7z" fill="#ececee"/><path d="M524 523h26v7q-5.344-.463-10.687-.937l-3.053-.264-2.96-.264-2.713-.238c-2.57-.295-5.059-.753-7.587-1.297z" fill="#e8e7e9"/><path d="m251.5 522.886 3.285.016 3.545.01 3.733.025 3.744.014q4.597.018 9.193.049v4q-6.188.752-12.375 1.5l-3.562.434-3.399.41-3.142.38C250 530 250 530 248 530c-.043-2-.04-4 0-6 1-1 1-1 3.5-1.114" fill="#e8e8e9"/><path d="M440 572h28l-1 5h-27z" fill="#eeeeed"/><path d="M330 572h27v5h-27z" fill="#eeedef"/><path d="M605 594a907 907 0 0 1 6.75 3.25l1.922.91c3.972 1.945 6.1 3.612 9.328 6.84h-18z" fill="#fafafa"/><path d="M687 671h2a786 786 0 0 1 3.563 6.813l1.037 1.947c.877 1.71 1.645 3.473 2.4 5.24l-1 3q-3.5.062-7 0c-1-1-1-1-1.098-4.598q.01-2.232.035-4.465l.014-2.298q.02-2.82.049-5.639" fill="#f5f5f5"/><path d="m247 356 2 2-1 2v3.438c0 3.562 0 3.562-1 6.562-3.786-1.262-4.218-2.549-6.187-5.937l-1.606-2.715C238 359 238 359 238 357c1.456-.222 2.915-.427 4.375-.625l2.46-.352z" fill="#f6f6f7"/><path d="M797 632h3v28h-3z" fill="#f1f1f1"/><path d="M165 550h17a76.6 76.6 0 0 1-9.625 6.188l-2.914 1.605C167 559 167 559 165 559z" fill="#e8e8e8"/><path d="M412 523h28v3h-28z" fill="#efeef0"/><path d="M193 596v9h-14c1.256-3.768 2.51-4.212 5.875-6.187l2.68-1.606C190 596 190 596 193 596" fill="#f6f6f6"/><path d="M302 523h28l-1 3h-27z" fill="#eeeef0"/><path d="M467 523h28v3h-27z" fill="#eeeeef"/><path d="M798 742h2v28h-2c-1.324-2.648-1.13-4.667-1.133-7.629l-.004-3.385.012-3.548-.012-3.561.004-3.38.004-3.12C797 743 797 743 798 742" fill="#f2f2f2"/><path d="M275 573v5l-23-1 1-2c7.359-2.208 14.36-2.213 22-2m523-408h2v27h-3q-.042-6.187-.062-12.375l-.026-3.562-.01-3.399-.016-3.142C797 167 797 167 798 165m1 440h1v27h-3c-.058-4.125-.094-8.25-.125-12.375l-.05-3.562-.02-3.399-.032-3.142C797 607 797 607 799 605" fill="#fcfcfc"/><path d="M799 27h1v28h-2c-1.585-4.754-1.184-9.584-1.187-14.562l-.038-3.233-.005-3.084-.013-2.83C797 29 797 29 799 27m0 440h1v28h-2c-1.452-4.981-1.184-9.976-1.187-15.125l-.038-3.074-.005-2.934-.013-2.684C797 469 797 469 799 467" fill="#f1f1f1"/><path d="m275 458 16 8-2 2c-3.258-.023-3.258-.023-7.125-.375l-3.883-.336L275 467z" fill="#e9e9e9"/><path d="M798 302h2v28h-2c-1.172-2.343-1.13-3.75-1.133-6.36l-.004-2.632.012-2.758-.012-2.71c.007-4.627.188-8.99 1.137-13.54" fill="#f1f1f1"/><path d="M734 660h8v14h-2a1505 1505 0 0 1-3-5.875l-1.687-3.305C734 662 734 662 734 660" fill="#e8e7ea"/><path d="M522 385h10c-1.618 3.236-2.558 4.832-5 7.25l-1.562 1.578C524 395 524 395 522 395z" fill="#fafafa"/><path d="M193 371c2.187 2.796 3.992 5.633 5.688 8.75.436.8.873 1.598 1.324 2.422L201 384c-3.073.91-5.801 1.089-9 1q-.04-2.937-.062-5.875l-.036-3.305C192 373 192 373 193 371" fill="#e7e7e9"/><path d="M618 550h14v7c-4.972-1.492-9.418-3.605-14-6z" fill="#e1e1e3"/><path d="M258 83c-3.023 3.255-6.257 5.618-10 8-1.097-3.29-.8-4.713 0-8 3.695-.95 6.305-.95 10 0" fill="#e8e8e8"/><path d="M622 254h1v22h-1v-8h-2q-.079-2.655-.125-5.312l-.07-2.989C620 257 620 257 622 254" fill="#323433"/><path d="M576 402h1v10h-5v-2l-2-1q1.464-1.755 2.938-3.5l1.652-1.969z" fill="#e5e5e6"/><path d="m152 620 3 2c-4.26 3.764-8.518 7.499-13 11 .495-3.665 1.02-5.708 4-8l3-1v-2h3z" fill="#1c1c1e"/><path d="m109 680 1 4h2l-1 4-6-1c.313-2.375.313-2.375 1-5z" fill="#f4f4f4"/><path d="M220 110h5l1 2a318 318 0 0 1-5 6h-1z" fill="#e5e5e5"/><path d="M537 88q1.944 1.398 3.875 2.813l2.18 1.582C545 94 545 94 547 97c-3.32 0-4.025-.437-6.625-2.312l-1.852-1.301C537 92 537 92 536 89z" fill="#181819"/><path d="m215 300 1 3h4v4h-2l-1 3c-1.316-3.62-2-6.096-2-10" fill="#c5c5c5"/><path d="m578 131 4 4-1 3-4-2z" fill="#1e1e1e"/></svg>