<?xml version="1.0" encoding="UTF-8"?>
<svg xmlns="http://www.w3.org/2000/svg" xmlns:xlink="http://www.w3.org/1999/xlink" width="128px" height="128px" viewBox="0 0 128 128" version="1.1">
<g id="surface1">
<path style=" stroke:none;fill-rule:nonzero;fill:rgb(16.078432%,15.294118%,15.294118%);fill-opacity:1;" d="M 60.78125 23.105469 C 61.039062 23.105469 61.296875 23.105469 61.558594 23.101562 C 62.097656 23.101562 62.636719 23.101562 63.175781 23.105469 C 63.863281 23.105469 64.546875 23.105469 65.234375 23.105469 C 65.765625 23.101562 66.300781 23.101562 66.835938 23.105469 C 67.085938 23.105469 67.339844 23.105469 67.59375 23.101562 C 71.621094 23.09375 75.304688 23.902344 78.265625 26.792969 C 80.066406 28.617188 80.867188 30.695312 81.351562 33.167969 C 81.410156 33.457031 81.472656 33.742188 81.53125 34.03125 C 81.566406 34.21875 81.605469 34.410156 81.644531 34.597656 C 81.78125 35.28125 81.9375 35.960938 82.113281 36.640625 C 82.214844 37.058594 82.246094 37.433594 82.238281 37.867188 C 82.445312 37.867188 82.445312 37.867188 82.65625 37.867188 C 85.90625 37.859375 89.15625 37.855469 92.402344 37.851562 C 92.804688 37.851562 93.203125 37.847656 93.605469 37.847656 C 93.683594 37.847656 93.761719 37.847656 93.84375 37.847656 C 95.132812 37.847656 96.425781 37.84375 97.714844 37.84375 C 99.035156 37.839844 100.359375 37.835938 101.683594 37.835938 C 102.5 37.835938 103.316406 37.835938 104.132812 37.832031 C 104.757812 37.832031 105.382812 37.828125 106.007812 37.832031 C 106.265625 37.832031 106.523438 37.828125 106.78125 37.828125 C 107.128906 37.828125 107.480469 37.828125 107.832031 37.828125 C 107.933594 37.828125 108.035156 37.828125 108.140625 37.824219 C 108.65625 37.828125 109.035156 37.832031 109.441406 38.1875 C 109.839844 38.65625 109.804688 39.128906 109.800781 39.714844 C 109.800781 39.867188 109.800781 39.867188 109.804688 40.019531 C 109.804688 40.359375 109.804688 40.695312 109.804688 41.03125 C 109.804688 41.273438 109.804688 41.515625 109.804688 41.757812 C 109.808594 42.414062 109.808594 43.070312 109.804688 43.730469 C 109.804688 44.277344 109.808594 44.824219 109.808594 45.375 C 109.808594 46.738281 109.808594 48.105469 109.808594 49.472656 C 109.804688 50.660156 109.808594 51.847656 109.808594 53.035156 C 109.8125 54.253906 109.8125 55.472656 109.8125 56.691406 C 109.8125 57.375 109.8125 58.0625 109.816406 58.746094 C 109.816406 59.390625 109.816406 60.03125 109.8125 60.675781 C 109.8125 60.910156 109.8125 61.148438 109.816406 61.382812 C 109.816406 61.707031 109.816406 62.027344 109.8125 62.351562 C 109.816406 62.445312 109.816406 62.539062 109.816406 62.636719 C 109.808594 63.210938 109.714844 63.542969 109.332031 64 C 108.542969 64.574219 107.296875 64.761719 106.347656 64.746094 C 106.347656 64.828125 106.347656 64.910156 106.347656 64.996094 C 106.355469 69.886719 106.363281 74.777344 106.367188 79.667969 C 106.367188 80.257812 106.371094 80.84375 106.371094 81.429688 C 106.371094 81.605469 106.371094 81.605469 106.371094 81.785156 C 106.371094 83.679688 106.375 85.570312 106.378906 87.464844 C 106.382812 89.40625 106.386719 91.347656 106.386719 93.292969 C 106.386719 94.488281 106.390625 95.6875 106.394531 96.886719 C 106.394531 97.710938 106.394531 98.53125 106.394531 99.351562 C 106.394531 99.828125 106.394531 100.300781 106.398438 100.773438 C 106.398438 101.210938 106.398438 101.644531 106.398438 102.078125 C 106.398438 102.234375 106.398438 102.390625 106.398438 102.550781 C 106.410156 104.042969 106.410156 104.042969 105.921875 104.640625 C 105.578125 104.859375 105.308594 104.878906 104.910156 104.878906 C 104.730469 104.882812 104.730469 104.882812 104.546875 104.882812 C 104.414062 104.882812 104.28125 104.882812 104.144531 104.878906 C 104.003906 104.878906 103.867188 104.882812 103.71875 104.882812 C 103.328125 104.882812 102.9375 104.882812 102.546875 104.882812 C 102.121094 104.882812 101.695312 104.882812 101.269531 104.882812 C 100.523438 104.882812 99.773438 104.882812 99.027344 104.882812 C 97.917969 104.882812 96.808594 104.882812 95.699219 104.882812 C 93.601562 104.886719 91.503906 104.886719 89.40625 104.886719 C 87.785156 104.886719 86.164062 104.886719 84.546875 104.886719 C 84.3125 104.886719 84.082031 104.886719 83.847656 104.886719 C 83.5 104.886719 83.148438 104.886719 82.796875 104.886719 C 79.539062 104.886719 76.28125 104.886719 73.027344 104.886719 C 72.902344 104.886719 72.78125 104.886719 72.652344 104.886719 C 72.03125 104.886719 71.40625 104.886719 70.785156 104.886719 C 70.597656 104.886719 70.597656 104.886719 70.410156 104.886719 C 70.160156 104.886719 69.910156 104.886719 69.660156 104.886719 C 65.765625 104.886719 61.871094 104.886719 57.980469 104.890625 C 53.609375 104.890625 49.238281 104.890625 44.867188 104.890625 C 44.398438 104.890625 43.933594 104.890625 43.46875 104.890625 C 43.296875 104.890625 43.296875 104.890625 43.121094 104.890625 C 41.386719 104.890625 39.652344 104.890625 37.917969 104.894531 C 35.949219 104.894531 33.976562 104.894531 32.003906 104.894531 C 30.902344 104.894531 29.796875 104.894531 28.691406 104.894531 C 27.957031 104.894531 27.21875 104.894531 26.484375 104.894531 C 26.0625 104.894531 25.644531 104.894531 25.222656 104.894531 C 24.769531 104.894531 24.320312 104.894531 23.867188 104.894531 C 23.734375 104.894531 23.605469 104.894531 23.46875 104.894531 C 23.347656 104.894531 23.226562 104.894531 23.105469 104.894531 C 23 104.894531 22.898438 104.894531 22.792969 104.894531 C 22.449219 104.84375 22.25 104.734375 21.972656 104.535156 C 21.683594 104.082031 21.613281 103.734375 21.613281 103.203125 C 21.613281 103.066406 21.613281 102.929688 21.613281 102.785156 C 21.613281 102.632812 21.613281 102.480469 21.613281 102.332031 C 21.613281 102.167969 21.613281 102.007812 21.613281 101.84375 C 21.613281 101.398438 21.613281 100.953125 21.617188 100.507812 C 21.617188 100.03125 21.617188 99.550781 21.617188 99.070312 C 21.617188 98.238281 21.617188 97.40625 21.621094 96.574219 C 21.621094 95.375 21.621094 94.171875 21.625 92.96875 C 21.625 91.019531 21.625 89.070312 21.628906 87.121094 C 21.632812 85.226562 21.632812 83.332031 21.636719 81.4375 C 21.636719 81.320312 21.636719 81.203125 21.636719 81.082031 C 21.636719 80.496094 21.636719 79.910156 21.636719 79.324219 C 21.640625 74.464844 21.644531 69.605469 21.652344 64.746094 C 21.535156 64.738281 21.535156 64.738281 21.414062 64.726562 C 21.308594 64.71875 21.203125 64.707031 21.09375 64.699219 C 20.9375 64.683594 20.9375 64.683594 20.78125 64.671875 C 20.390625 64.628906 20.027344 64.558594 19.648438 64.464844 C 19.449219 64.421875 19.449219 64.421875 19.25 64.375 C 18.773438 64.167969 18.507812 63.914062 18.238281 63.464844 C 18.152344 63.121094 18.15625 62.792969 18.160156 62.441406 C 18.160156 62.339844 18.160156 62.238281 18.160156 62.132812 C 18.15625 61.796875 18.160156 61.457031 18.164062 61.117188 C 18.160156 60.875 18.160156 60.632812 18.160156 60.390625 C 18.160156 59.730469 18.160156 59.070312 18.164062 58.410156 C 18.167969 57.722656 18.167969 57.03125 18.167969 56.339844 C 18.167969 55.183594 18.167969 54.023438 18.175781 52.867188 C 18.179688 51.675781 18.179688 50.484375 18.179688 49.292969 C 18.179688 49.21875 18.179688 49.144531 18.179688 49.070312 C 18.179688 48.960938 18.179688 48.960938 18.179688 48.847656 C 18.179688 47.558594 18.183594 46.269531 18.183594 44.980469 C 18.1875 44.433594 18.1875 43.886719 18.1875 43.335938 C 18.1875 42.691406 18.1875 42.046875 18.191406 41.398438 C 18.191406 41.164062 18.195312 40.925781 18.191406 40.6875 C 18.191406 40.363281 18.195312 40.042969 18.195312 39.71875 C 18.195312 39.625 18.195312 39.53125 18.195312 39.433594 C 18.203125 38.929688 18.230469 38.589844 18.558594 38.1875 C 18.863281 37.917969 19.050781 37.828125 19.457031 37.828125 C 19.550781 37.828125 19.644531 37.824219 19.742188 37.824219 C 19.898438 37.828125 19.898438 37.828125 20.054688 37.828125 C 20.164062 37.828125 20.273438 37.828125 20.386719 37.828125 C 20.753906 37.828125 21.125 37.828125 21.492188 37.832031 C 21.757812 37.832031 22.019531 37.832031 22.285156 37.832031 C 22.851562 37.832031 23.421875 37.832031 23.988281 37.832031 C 24.8125 37.835938 25.632812 37.835938 26.457031 37.835938 C 27.789062 37.835938 29.125 37.839844 30.457031 37.84375 C 31.753906 37.84375 33.050781 37.847656 34.34375 37.847656 C 34.464844 37.847656 34.464844 37.847656 34.585938 37.847656 C 34.988281 37.851562 35.386719 37.851562 35.789062 37.851562 C 39.113281 37.855469 42.4375 37.859375 45.761719 37.867188 C 45.765625 37.789062 45.773438 37.707031 45.78125 37.625 C 45.789062 37.519531 45.796875 37.417969 45.808594 37.308594 C 45.816406 37.203125 45.824219 37.101562 45.835938 36.992188 C 45.878906 36.59375 45.953125 36.207031 46.046875 35.816406 C 46.0625 35.738281 46.078125 35.664062 46.097656 35.582031 C 46.152344 35.335938 46.210938 35.085938 46.265625 34.839844 C 46.304688 34.667969 46.34375 34.496094 46.382812 34.324219 C 46.441406 34.066406 46.5 33.8125 46.558594 33.554688 C 46.667969 33.09375 46.769531 32.628906 46.863281 32.164062 C 47.117188 30.976562 47.480469 29.949219 48.105469 28.90625 C 48.175781 28.789062 48.246094 28.671875 48.320312 28.550781 C 50.011719 25.925781 52.773438 24.183594 55.785156 23.464844 C 57.445312 23.128906 59.09375 23.097656 60.78125 23.105469 Z M 60.78125 23.105469 "/>
<path style=" stroke:none;fill-rule:nonzero;fill:rgb(61.56863%,37.254903%,18.82353%);fill-opacity:1;" d="M 48.105469 70.71875 C 48.976562 70.777344 49.804688 70.953125 50.652344 71.152344 C 50.871094 71.203125 51.085938 71.253906 51.300781 71.300781 C 51.453125 71.335938 51.605469 71.371094 51.757812 71.40625 C 52.695312 71.625 53.636719 71.832031 54.578125 72.039062 C 54.90625 72.113281 55.230469 72.183594 55.554688 72.253906 C 55.660156 72.28125 55.660156 72.28125 55.769531 72.304688 C 56.097656 72.375 56.421875 72.453125 56.746094 72.535156 C 56.746094 72.601562 56.746094 72.667969 56.75 72.738281 C 56.753906 73.449219 56.765625 74.160156 56.773438 74.867188 C 56.777344 75.132812 56.78125 75.398438 56.785156 75.660156 C 56.789062 76.042969 56.792969 76.421875 56.796875 76.804688 C 56.800781 76.921875 56.800781 77.039062 56.800781 77.160156 C 56.8125 77.753906 56.820312 78.21875 57.171875 78.71875 C 57.496094 79.011719 57.699219 79.078125 58.128906 79.082031 C 58.234375 79.082031 58.34375 79.082031 58.453125 79.082031 C 58.628906 79.082031 58.628906 79.082031 58.804688 79.082031 C 58.929688 79.082031 59.050781 79.082031 59.179688 79.082031 C 59.585938 79.085938 59.992188 79.082031 60.398438 79.082031 C 60.683594 79.082031 60.964844 79.082031 61.246094 79.082031 C 61.839844 79.085938 62.433594 79.082031 63.027344 79.082031 C 63.710938 79.078125 64.394531 79.082031 65.082031 79.082031 C 65.667969 79.082031 66.257812 79.082031 66.84375 79.082031 C 67.195312 79.082031 67.546875 79.082031 67.898438 79.082031 C 68.289062 79.085938 68.683594 79.082031 69.074219 79.082031 C 69.191406 79.082031 69.304688 79.082031 69.425781 79.082031 C 70.183594 79.085938 70.183594 79.085938 70.828125 78.71875 C 71.25 78.140625 71.195312 77.492188 71.203125 76.804688 C 71.203125 76.683594 71.207031 76.558594 71.207031 76.433594 C 71.210938 76.042969 71.214844 75.65625 71.21875 75.265625 C 71.222656 75.003906 71.226562 74.738281 71.230469 74.472656 C 71.238281 73.828125 71.246094 73.179688 71.253906 72.535156 C 73.285156 72.058594 75.316406 71.589844 77.355469 71.144531 C 77.527344 71.105469 77.699219 71.066406 77.871094 71.03125 C 78.109375 70.976562 78.351562 70.925781 78.589844 70.871094 C 78.726562 70.84375 78.863281 70.8125 79.003906 70.78125 C 79.3125 70.730469 79.582031 70.707031 79.894531 70.71875 C 79.960938 70.902344 80.023438 71.089844 80.089844 71.273438 C 80.234375 71.535156 80.234375 71.535156 80.746094 71.785156 C 81.308594 71.820312 81.875 71.855469 82.453125 71.894531 C 82.453125 81.925781 82.453125 91.957031 82.453125 102.292969 C 70.273438 102.292969 58.09375 102.292969 45.546875 102.292969 C 45.546875 92.261719 45.546875 82.230469 45.546875 71.894531 C 46.074219 71.859375 46.601562 71.824219 47.148438 71.785156 C 47.753906 71.539062 47.753906 71.539062 47.988281 71.074219 C 48.027344 70.957031 48.066406 70.839844 48.105469 70.71875 Z M 48.105469 70.71875 "/>
<path style=" stroke:none;fill-rule:nonzero;fill:rgb(73.333335%,45.882353%,23.137255%);fill-opacity:1;" d="M 45.546875 40.425781 C 57.726562 40.425781 69.90625 40.425781 82.453125 40.425781 C 82.453125 47.042969 82.453125 53.660156 82.453125 60.480469 C 81.890625 60.515625 81.328125 60.550781 80.746094 60.585938 C 80.167969 60.957031 80.167969 60.957031 79.894531 61.546875 C 79.882812 61.757812 79.875 61.96875 79.871094 62.179688 C 79.871094 62.308594 79.867188 62.441406 79.863281 62.574219 C 79.863281 62.714844 79.863281 62.855469 79.859375 63 C 79.855469 63.148438 79.855469 63.292969 79.851562 63.4375 C 79.847656 63.820312 79.839844 64.203125 79.835938 64.585938 C 79.832031 64.976562 79.824219 65.367188 79.820312 65.757812 C 79.808594 66.523438 79.796875 67.289062 79.785156 68.054688 C 79.0625 68.257812 78.335938 68.441406 77.597656 68.597656 C 77.503906 68.617188 77.414062 68.632812 77.320312 68.65625 C 77.027344 68.714844 76.734375 68.777344 76.441406 68.839844 C 74.472656 69.253906 74.472656 69.253906 72.519531 69.726562 C 72.085938 69.835938 71.699219 69.875 71.253906 69.867188 C 71.253906 69.769531 71.25 69.671875 71.25 69.574219 C 71.246094 69.210938 71.238281 68.851562 71.230469 68.488281 C 71.226562 68.332031 71.226562 68.175781 71.222656 68.019531 C 71.222656 67.796875 71.21875 67.570312 71.210938 67.347656 C 71.210938 67.210938 71.207031 67.074219 71.203125 66.9375 C 71.136719 66.496094 70.996094 66.265625 70.71875 65.921875 C 70.375 65.6875 70.277344 65.679688 69.878906 65.679688 C 69.773438 65.675781 69.664062 65.675781 69.554688 65.675781 C 69.378906 65.675781 69.378906 65.675781 69.195312 65.675781 C 69.011719 65.675781 69.011719 65.675781 68.820312 65.671875 C 68.410156 65.671875 68 65.671875 67.585938 65.671875 C 67.375 65.671875 67.160156 65.667969 66.949219 65.667969 C 66.277344 65.667969 65.605469 65.667969 64.9375 65.667969 C 64.246094 65.667969 63.554688 65.664062 62.863281 65.660156 C 62.269531 65.660156 61.675781 65.65625 61.082031 65.65625 C 60.726562 65.65625 60.371094 65.65625 60.015625 65.65625 C 59.621094 65.652344 59.226562 65.652344 58.832031 65.65625 C 58.714844 65.652344 58.597656 65.652344 58.476562 65.652344 C 57.835938 65.652344 57.835938 65.652344 57.265625 65.910156 C 56.851562 66.371094 56.824219 66.707031 56.808594 67.324219 C 56.808594 67.398438 56.804688 67.46875 56.804688 67.546875 C 56.796875 67.777344 56.792969 68.007812 56.785156 68.238281 C 56.78125 68.398438 56.777344 68.554688 56.773438 68.710938 C 56.765625 69.097656 56.753906 69.480469 56.746094 69.867188 C 56.089844 69.800781 55.457031 69.703125 54.8125 69.5625 C 54.722656 69.542969 54.632812 69.523438 54.539062 69.503906 C 54.25 69.441406 53.957031 69.375 53.667969 69.3125 C 53.464844 69.269531 53.265625 69.226562 53.0625 69.183594 C 52.570312 69.074219 52.074219 68.96875 51.578125 68.859375 C 51.328125 68.804688 51.074219 68.75 50.820312 68.695312 C 50.414062 68.605469 50.007812 68.515625 49.601562 68.425781 C 49.480469 68.402344 49.363281 68.375 49.242188 68.347656 C 49.136719 68.324219 49.03125 68.300781 48.921875 68.277344 C 48.785156 68.246094 48.785156 68.246094 48.644531 68.214844 C 48.425781 68.160156 48.425781 68.160156 48.214844 68.054688 C 48.210938 67.972656 48.210938 67.894531 48.210938 67.808594 C 48.207031 67.050781 48.199219 66.292969 48.1875 65.535156 C 48.183594 65.144531 48.179688 64.757812 48.175781 64.367188 C 48.171875 63.992188 48.167969 63.613281 48.164062 63.238281 C 48.160156 63.023438 48.160156 62.8125 48.160156 62.597656 C 48.15625 62.46875 48.15625 62.339844 48.152344 62.203125 C 48.152344 62.089844 48.152344 61.976562 48.148438 61.859375 C 48.0625 61.210938 47.761719 60.996094 47.253906 60.585938 C 46.691406 60.550781 46.125 60.515625 45.546875 60.480469 C 45.546875 53.863281 45.546875 47.246094 45.546875 40.425781 Z M 45.546875 40.425781 "/>
<path style=" stroke:none;fill-rule:nonzero;fill:rgb(61.56863%,37.254903%,18.82353%);fill-opacity:1;" d="M 103.785156 65.386719 C 103.785156 77.566406 103.785156 89.746094 103.785156 102.292969 C 100.863281 102.292969 97.945312 102.292969 94.933594 102.292969 C 94.933594 92.261719 94.933594 82.230469 94.933594 71.894531 C 95.460938 71.859375 95.988281 71.824219 96.535156 71.785156 C 97.15625 71.429688 97.15625 71.429688 97.386719 71.039062 C 97.421875 70.835938 97.421875 70.835938 97.421875 70.613281 C 97.421875 70.527344 97.425781 70.441406 97.425781 70.351562 C 97.429688 70.214844 97.429688 70.214844 97.429688 70.074219 C 97.433594 69.980469 97.433594 69.886719 97.4375 69.789062 C 97.445312 69.488281 97.449219 69.1875 97.453125 68.886719 C 97.457031 68.683594 97.460938 68.476562 97.464844 68.273438 C 97.476562 67.773438 97.484375 67.273438 97.492188 66.773438 C 98.027344 66.613281 98.5625 66.480469 99.109375 66.363281 C 99.1875 66.347656 99.269531 66.328125 99.355469 66.308594 C 99.613281 66.253906 99.867188 66.195312 100.125 66.140625 C 100.464844 66.066406 100.804688 65.992188 101.140625 65.917969 C 101.261719 65.890625 101.261719 65.890625 101.386719 65.863281 C 101.964844 65.734375 102.535156 65.59375 103.105469 65.441406 C 103.359375 65.386719 103.359375 65.386719 103.785156 65.386719 Z M 103.785156 65.386719 "/>
<path style=" stroke:none;fill-rule:nonzero;fill:rgb(61.56863%,37.254903%,18.82353%);fill-opacity:1;" d="M 24.214844 65.386719 C 25.539062 65.652344 26.863281 65.917969 28.183594 66.203125 C 28.445312 66.261719 28.710938 66.316406 28.976562 66.375 C 29.144531 66.410156 29.316406 66.449219 29.484375 66.484375 C 29.5625 66.5 29.640625 66.519531 29.722656 66.535156 C 30.269531 66.65625 30.269531 66.65625 30.507812 66.773438 C 30.507812 66.898438 30.507812 67.023438 30.507812 67.15625 C 30.511719 67.625 30.515625 68.09375 30.523438 68.5625 C 30.527344 68.761719 30.527344 68.964844 30.527344 69.167969 C 30.527344 69.460938 30.53125 69.753906 30.539062 70.042969 C 30.539062 70.132812 30.535156 70.222656 30.535156 70.316406 C 30.550781 70.953125 30.6875 71.238281 31.148438 71.679688 C 31.722656 71.96875 32.425781 71.851562 33.066406 71.894531 C 33.066406 81.925781 33.066406 91.957031 33.066406 102.292969 C 30.144531 102.292969 27.222656 102.292969 24.214844 102.292969 C 24.214844 90.113281 24.214844 77.933594 24.214844 65.386719 Z M 24.214844 65.386719 "/>
<path style=" stroke:none;fill-rule:nonzero;fill:rgb(72.941178%,45.882353%,22.745098%);fill-opacity:1;" d="M 107.199219 40.320312 C 107.199219 47.464844 107.199219 54.609375 107.199219 61.972656 C 106.675781 62.121094 106.15625 62.261719 105.628906 62.382812 C 105.546875 62.402344 105.46875 62.421875 105.386719 62.441406 C 105.128906 62.5 104.867188 62.558594 104.605469 62.621094 C 104.472656 62.652344 104.472656 62.652344 104.335938 62.683594 C 102.832031 63.027344 101.324219 63.363281 99.8125 63.6875 C 99.714844 63.707031 99.617188 63.730469 99.515625 63.75 C 99.234375 63.8125 98.957031 63.871094 98.679688 63.929688 C 98.554688 63.957031 98.554688 63.957031 98.425781 63.984375 C 98.109375 64.050781 97.820312 64.105469 97.492188 64.105469 C 97.492188 64.027344 97.492188 63.945312 97.492188 63.859375 C 97.484375 63.492188 97.476562 63.121094 97.464844 62.753906 C 97.464844 62.625 97.464844 62.496094 97.460938 62.367188 C 97.457031 62.242188 97.457031 62.121094 97.453125 61.992188 C 97.449219 61.878906 97.445312 61.765625 97.445312 61.648438 C 97.371094 61.257812 97.238281 61.082031 96.960938 60.800781 C 96.359375 60.464844 96.359375 60.464844 94.828125 60.480469 C 94.828125 53.863281 94.828125 47.246094 94.828125 40.425781 C 98.949219 40.363281 103.074219 40.320312 107.199219 40.320312 Z M 107.199219 40.320312 "/>
<path style=" stroke:none;fill-rule:nonzero;fill:rgb(72.941178%,45.882353%,22.745098%);fill-opacity:1;" d="M 20.800781 40.425781 C 24.882812 40.425781 28.964844 40.425781 33.171875 40.425781 C 33.171875 47.042969 33.171875 53.660156 33.171875 60.480469 C 32.609375 60.515625 32.046875 60.550781 31.464844 60.585938 C 30.84375 60.941406 30.84375 60.941406 30.613281 61.332031 C 30.574219 61.632812 30.574219 61.632812 30.570312 61.972656 C 30.566406 62.09375 30.5625 62.21875 30.558594 62.347656 C 30.554688 62.476562 30.550781 62.605469 30.546875 62.738281 C 30.542969 62.871094 30.539062 63 30.535156 63.136719 C 30.523438 63.460938 30.515625 63.785156 30.507812 64.105469 C 29.613281 63.964844 28.726562 63.796875 27.839844 63.613281 C 27.710938 63.585938 27.578125 63.558594 27.445312 63.53125 C 26.171875 63.265625 24.902344 62.984375 23.632812 62.699219 C 23.554688 62.683594 23.476562 62.664062 23.398438 62.644531 C 23.1875 62.597656 22.976562 62.550781 22.765625 62.503906 C 22.113281 62.359375 21.457031 62.21875 20.800781 62.078125 C 20.800781 54.933594 20.800781 47.789062 20.800781 40.425781 Z M 20.800781 40.425781 "/>
<path style=" stroke:none;fill-rule:nonzero;fill:rgb(61.56863%,37.254903%,18.82353%);fill-opacity:1;" d="M 85.011719 71.894531 C 87.40625 71.894531 89.800781 71.894531 92.265625 71.894531 C 92.265625 81.925781 92.265625 91.957031 92.265625 102.292969 C 89.875 102.292969 87.480469 102.292969 85.011719 102.292969 C 85.011719 92.261719 85.011719 82.230469 85.011719 71.894531 Z M 85.011719 71.894531 "/>
<path style=" stroke:none;fill-rule:nonzero;fill:rgb(61.176473%,37.254903%,18.82353%);fill-opacity:1;" d="M 35.734375 71.894531 C 38.125 71.894531 40.519531 71.894531 42.988281 71.894531 C 42.988281 81.925781 42.988281 91.957031 42.988281 102.292969 C 40.59375 102.292969 38.199219 102.292969 35.734375 102.292969 C 35.734375 92.261719 35.734375 82.230469 35.734375 71.894531 Z M 35.734375 71.894531 "/>
<path style=" stroke:none;fill-rule:nonzero;fill:rgb(99.215686%,99.215686%,99.215686%);fill-opacity:1;" d="M 58.941406 28.453125 C 59.0625 28.453125 59.179688 28.453125 59.304688 28.453125 C 59.691406 28.449219 60.082031 28.449219 60.472656 28.453125 C 60.746094 28.453125 61.019531 28.453125 61.289062 28.449219 C 61.863281 28.449219 62.433594 28.449219 63.003906 28.453125 C 63.660156 28.453125 64.316406 28.453125 64.972656 28.453125 C 65.609375 28.449219 66.246094 28.449219 66.878906 28.453125 C 67.148438 28.453125 67.417969 28.453125 67.6875 28.449219 C 68.0625 28.449219 68.4375 28.453125 68.816406 28.453125 C 68.980469 28.453125 68.980469 28.453125 69.148438 28.449219 C 70.21875 28.457031 71.25 28.578125 72.226562 29.035156 C 72.300781 29.066406 72.371094 29.097656 72.445312 29.132812 C 73.804688 29.769531 74.984375 30.726562 75.625 32.105469 C 75.828125 32.722656 75.953125 33.359375 76.085938 33.996094 C 76.171875 34.394531 76.265625 34.792969 76.359375 35.191406 C 76.375 35.265625 76.394531 35.335938 76.410156 35.410156 C 76.480469 35.703125 76.550781 35.992188 76.617188 36.28125 C 76.667969 36.488281 76.714844 36.691406 76.761719 36.894531 C 76.804688 37.070312 76.804688 37.070312 76.847656 37.253906 C 76.90625 37.546875 76.90625 37.546875 76.90625 37.867188 C 68.386719 37.867188 59.871094 37.867188 51.09375 37.867188 C 51.277344 36.941406 51.46875 36.019531 51.664062 35.097656 C 51.703125 34.921875 51.738281 34.746094 51.773438 34.570312 C 52.347656 31.824219 52.347656 31.824219 53.332031 30.71875 C 53.386719 30.65625 53.441406 30.589844 53.5 30.523438 C 54.898438 28.988281 56.9375 28.445312 58.941406 28.453125 Z M 58.941406 28.453125 "/>
<path style=" stroke:none;fill-rule:nonzero;fill:rgb(61.56863%,37.254903%,18.82353%);fill-opacity:1;" d="M 85.011719 40.425781 C 87.40625 40.425781 89.800781 40.425781 92.265625 40.425781 C 92.265625 47.042969 92.265625 53.660156 92.265625 60.480469 C 89.875 60.480469 87.480469 60.480469 85.011719 60.480469 C 85.011719 53.863281 85.011719 47.246094 85.011719 40.425781 Z M 85.011719 40.425781 "/>
<path style=" stroke:none;fill-rule:nonzero;fill:rgb(61.56863%,37.254903%,18.82353%);fill-opacity:1;" d="M 35.734375 40.425781 C 38.125 40.425781 40.519531 40.425781 42.988281 40.425781 C 42.988281 47.042969 42.988281 53.660156 42.988281 60.480469 C 40.59375 60.480469 38.199219 60.480469 35.734375 60.480469 C 35.734375 53.863281 35.734375 47.246094 35.734375 40.425781 Z M 35.734375 40.425781 "/>
<path style=" stroke:none;fill-rule:nonzero;fill:rgb(41.960785%,26.274511%,15.294118%);fill-opacity:1;" d="M 82.347656 63.039062 C 86.5 63.039062 90.652344 63.039062 94.933594 63.039062 C 94.933594 65.117188 94.933594 67.195312 94.933594 69.332031 C 90.78125 69.332031 86.625 69.332031 82.347656 69.332031 C 82.347656 67.257812 82.347656 65.179688 82.347656 63.039062 Z M 82.347656 63.039062 "/>
<path style=" stroke:none;fill-rule:nonzero;fill:rgb(41.960785%,26.274511%,15.294118%);fill-opacity:1;" d="M 33.066406 63.039062 C 37.21875 63.039062 41.375 63.039062 45.652344 63.039062 C 45.652344 65.117188 45.652344 67.195312 45.652344 69.332031 C 41.5 69.332031 37.347656 69.332031 33.066406 69.332031 C 33.066406 67.257812 33.066406 65.179688 33.066406 63.039062 Z M 33.066406 63.039062 "/>
<path style=" stroke:none;fill-rule:nonzero;fill:rgb(90.588236%,65.098041%,45.09804%);fill-opacity:1;" d="M 59.414062 68.160156 C 62.441406 68.160156 65.46875 68.160156 68.585938 68.160156 C 68.585938 70.941406 68.585938 73.722656 68.585938 76.585938 C 65.558594 76.585938 62.53125 76.585938 59.414062 76.585938 C 59.414062 73.804688 59.414062 71.023438 59.414062 68.160156 Z M 59.414062 68.160156 "/>
<path style=" stroke:none;fill-rule:nonzero;fill:rgb(49.019608%,28.235295%,14.117648%);fill-opacity:1;" d="M 60.761719 25.128906 C 61.019531 25.128906 61.28125 25.128906 61.542969 25.128906 C 62.085938 25.128906 62.628906 25.128906 63.171875 25.132812 C 63.859375 25.132812 64.550781 25.132812 65.242188 25.128906 C 65.777344 25.128906 66.316406 25.128906 66.851562 25.128906 C 67.109375 25.128906 67.363281 25.128906 67.617188 25.128906 C 69.378906 25.125 71.171875 25.144531 72.839844 25.792969 C 72.914062 25.820312 72.988281 25.847656 73.066406 25.878906 C 75.554688 26.828125 77.558594 28.515625 78.667969 30.960938 C 79.023438 31.835938 79.1875 32.75 79.367188 33.671875 C 79.4375 34.019531 79.507812 34.367188 79.578125 34.714844 C 79.59375 34.800781 79.609375 34.882812 79.628906 34.972656 C 79.765625 35.644531 79.917969 36.3125 80.082031 36.980469 C 80.15625 37.285156 80.214844 37.550781 80.214844 37.867188 C 79.789062 37.867188 79.367188 37.867188 78.933594 37.867188 C 78.910156 37.757812 78.886719 37.652344 78.863281 37.539062 C 78.640625 36.496094 78.414062 35.453125 78.1875 34.40625 C 78.121094 34.117188 78.058594 33.824219 77.996094 33.535156 C 77.519531 31.289062 76.621094 29.398438 74.640625 28.085938 C 72.804688 26.984375 70.8125 26.417969 68.671875 26.425781 C 68.5625 26.421875 68.449219 26.421875 68.335938 26.421875 C 67.96875 26.421875 67.605469 26.421875 67.238281 26.421875 C 66.980469 26.421875 66.726562 26.421875 66.46875 26.417969 C 65.929688 26.417969 65.394531 26.417969 64.855469 26.417969 C 64.171875 26.421875 63.488281 26.417969 62.804688 26.414062 C 62.273438 26.414062 61.746094 26.414062 61.214844 26.414062 C 60.960938 26.414062 60.710938 26.414062 60.457031 26.414062 C 58.734375 26.40625 57.042969 26.433594 55.421875 27.078125 C 55.351562 27.109375 55.28125 27.136719 55.207031 27.164062 C 55.007812 27.246094 54.8125 27.328125 54.613281 27.414062 C 54.511719 27.457031 54.410156 27.5 54.308594 27.542969 C 53.617188 27.863281 53.050781 28.296875 52.480469 28.800781 C 52.355469 28.910156 52.355469 28.910156 52.230469 29.019531 C 50.78125 30.375 50.296875 32.015625 49.925781 33.90625 C 49.871094 34.179688 49.816406 34.449219 49.761719 34.71875 C 49.734375 34.855469 49.707031 34.988281 49.679688 35.125 C 49.492188 36.042969 49.277344 36.953125 49.066406 37.867188 C 48.644531 37.867188 48.222656 37.867188 47.785156 37.867188 C 47.957031 36.894531 48.152344 35.925781 48.355469 34.960938 C 48.414062 34.695312 48.46875 34.429688 48.523438 34.164062 C 48.960938 32.070312 49.410156 30.230469 50.878906 28.585938 C 50.957031 28.496094 51.039062 28.410156 51.117188 28.316406 C 53.671875 25.601562 57.21875 25.121094 60.761719 25.128906 Z M 60.761719 25.128906 "/>
<path style=" stroke:none;fill-rule:nonzero;fill:rgb(15.686275%,14.901961%,14.901961%);fill-opacity:1;" d="M 85.613281 65.148438 C 85.730469 65.148438 85.851562 65.148438 85.972656 65.148438 C 86.105469 65.148438 86.242188 65.148438 86.378906 65.144531 C 86.527344 65.148438 86.671875 65.148438 86.820312 65.148438 C 86.96875 65.148438 87.121094 65.148438 87.269531 65.148438 C 87.585938 65.148438 87.898438 65.148438 88.214844 65.152344 C 88.617188 65.152344 89.023438 65.152344 89.425781 65.152344 C 89.738281 65.152344 90.046875 65.152344 90.355469 65.15625 C 90.507812 65.15625 90.65625 65.15625 90.804688 65.15625 C 91.011719 65.15625 91.21875 65.15625 91.425781 65.15625 C 91.546875 65.160156 91.664062 65.160156 91.785156 65.160156 C 92.054688 65.171875 92.054688 65.171875 92.160156 65.28125 C 92.171875 65.582031 92.175781 65.882812 92.171875 66.1875 C 92.171875 66.273438 92.175781 66.355469 92.175781 66.445312 C 92.171875 67.078125 92.171875 67.078125 92.054688 67.199219 C 91.84375 67.210938 91.636719 67.214844 91.425781 67.214844 C 91.292969 67.214844 91.160156 67.21875 91.023438 67.21875 C 90.875 67.21875 90.726562 67.21875 90.582031 67.21875 C 90.429688 67.21875 90.28125 67.21875 90.128906 67.21875 C 89.816406 67.21875 89.5 67.21875 89.1875 67.21875 C 88.78125 67.21875 88.378906 67.222656 87.972656 67.222656 C 87.664062 67.222656 87.355469 67.222656 87.042969 67.222656 C 86.894531 67.222656 86.746094 67.226562 86.597656 67.226562 C 86.390625 67.226562 86.179688 67.226562 85.972656 67.226562 C 85.792969 67.226562 85.792969 67.226562 85.613281 67.226562 C 85.332031 67.199219 85.332031 67.199219 85.121094 66.988281 C 85.097656 66.714844 85.089844 66.457031 85.09375 66.1875 C 85.09375 66.113281 85.089844 66.039062 85.089844 65.964844 C 85.09375 65.195312 85.09375 65.195312 85.613281 65.148438 Z M 85.613281 65.148438 "/>
<path style=" stroke:none;fill-rule:nonzero;fill:rgb(15.686275%,14.901961%,14.901961%);fill-opacity:1;" d="M 36.570312 65.15625 C 36.707031 65.15625 36.839844 65.15625 36.976562 65.15625 C 37.125 65.15625 37.273438 65.15625 37.417969 65.15625 C 37.570312 65.15625 37.71875 65.15625 37.871094 65.15625 C 38.183594 65.152344 38.5 65.152344 38.8125 65.152344 C 39.21875 65.152344 39.621094 65.152344 40.027344 65.148438 C 40.335938 65.148438 40.644531 65.148438 40.957031 65.148438 C 41.105469 65.148438 41.253906 65.148438 41.402344 65.148438 C 41.609375 65.144531 41.820312 65.148438 42.027344 65.148438 C 42.144531 65.148438 42.265625 65.148438 42.386719 65.148438 C 42.667969 65.171875 42.667969 65.171875 42.878906 65.386719 C 42.902344 65.65625 42.910156 65.914062 42.90625 66.1875 C 42.90625 66.296875 42.90625 66.296875 42.910156 66.410156 C 42.90625 66.960938 42.90625 66.960938 42.667969 67.199219 C 42.386719 67.226562 42.386719 67.226562 42.027344 67.226562 C 41.894531 67.226562 41.757812 67.226562 41.621094 67.226562 C 41.472656 67.226562 41.328125 67.226562 41.179688 67.222656 C 41.03125 67.222656 40.878906 67.222656 40.730469 67.222656 C 40.414062 67.222656 40.101562 67.222656 39.785156 67.222656 C 39.382812 67.21875 38.976562 67.21875 38.574219 67.21875 C 38.261719 67.21875 37.953125 67.21875 37.644531 67.21875 C 37.492188 67.21875 37.34375 67.21875 37.195312 67.21875 C 36.988281 67.21875 36.78125 67.214844 36.570312 67.214844 C 36.453125 67.214844 36.335938 67.214844 36.214844 67.214844 C 35.945312 67.199219 35.945312 67.199219 35.839844 67.09375 C 35.828125 66.789062 35.824219 66.488281 35.828125 66.1875 C 35.828125 66.101562 35.824219 66.015625 35.824219 65.929688 C 35.828125 65.1875 35.84375 65.160156 36.570312 65.15625 Z M 36.570312 65.15625 "/>
<path style=" stroke:none;fill-rule:nonzero;fill:rgb(18.039216%,16.078432%,14.901961%);fill-opacity:1;" d="M 39.425781 54.179688 C 39.835938 54.308594 39.910156 54.351562 40.105469 54.71875 C 40.140625 55.03125 40.15625 55.320312 40.15625 55.628906 C 40.15625 55.71875 40.160156 55.804688 40.160156 55.898438 C 40.160156 56.082031 40.160156 56.269531 40.160156 56.453125 C 40.160156 56.738281 40.164062 57.023438 40.167969 57.304688 C 40.167969 57.488281 40.171875 57.667969 40.171875 57.847656 C 40.171875 57.976562 40.171875 57.976562 40.175781 58.105469 C 40.167969 58.558594 40.144531 58.726562 39.851562 59.09375 C 39.574219 59.308594 39.574219 59.308594 39.308594 59.375 C 38.910156 59.273438 38.761719 59.09375 38.507812 58.773438 C 38.429688 58.464844 38.433594 58.167969 38.4375 57.851562 C 38.433594 57.765625 38.433594 57.675781 38.433594 57.585938 C 38.433594 57.402344 38.433594 57.214844 38.4375 57.03125 C 38.441406 56.746094 38.4375 56.464844 38.433594 56.183594 C 38.433594 56 38.433594 55.820312 38.4375 55.640625 C 38.433594 55.554688 38.433594 55.472656 38.433594 55.382812 C 38.441406 54.9375 38.472656 54.765625 38.753906 54.394531 C 39.039062 54.1875 39.039062 54.1875 39.425781 54.179688 Z M 39.425781 54.179688 "/>
<path style=" stroke:none;fill-rule:nonzero;fill:rgb(17.647059%,16.078432%,14.901961%);fill-opacity:1;" d="M 88.691406 54.121094 C 89.089844 54.21875 89.238281 54.402344 89.492188 54.71875 C 89.570312 55.027344 89.566406 55.324219 89.5625 55.640625 C 89.566406 55.726562 89.566406 55.816406 89.566406 55.90625 C 89.566406 56.09375 89.566406 56.277344 89.5625 56.460938 C 89.558594 56.746094 89.5625 57.027344 89.566406 57.3125 C 89.566406 57.492188 89.566406 57.671875 89.5625 57.851562 C 89.566406 57.9375 89.566406 58.023438 89.566406 58.109375 C 89.558594 58.554688 89.527344 58.730469 89.246094 59.097656 C 88.960938 59.308594 88.960938 59.308594 88.574219 59.3125 C 88.164062 59.183594 88.089844 59.140625 87.894531 58.773438 C 87.859375 58.460938 87.84375 58.175781 87.84375 57.863281 C 87.84375 57.777344 87.839844 57.6875 87.839844 57.597656 C 87.839844 57.410156 87.839844 57.226562 87.839844 57.039062 C 87.839844 56.753906 87.835938 56.472656 87.832031 56.1875 C 87.832031 56.003906 87.828125 55.824219 87.828125 55.644531 C 87.828125 55.558594 87.828125 55.472656 87.824219 55.386719 C 87.832031 54.933594 87.855469 54.769531 88.148438 54.398438 C 88.425781 54.1875 88.425781 54.1875 88.691406 54.121094 Z M 88.691406 54.121094 "/>
<path style=" stroke:none;fill-rule:nonzero;fill:rgb(17.254902%,15.686275%,14.901961%);fill-opacity:1;" d="M 88.859375 73.535156 C 89.171875 73.601562 89.171875 73.601562 89.402344 73.8125 C 89.667969 74.242188 89.660156 74.566406 89.65625 75.058594 C 89.65625 75.144531 89.65625 75.234375 89.65625 75.324219 C 89.65625 75.511719 89.65625 75.695312 89.65625 75.882812 C 89.652344 76.167969 89.65625 76.449219 89.660156 76.734375 C 89.65625 76.914062 89.65625 77.097656 89.65625 77.277344 C 89.65625 77.363281 89.660156 77.445312 89.660156 77.535156 C 89.652344 77.914062 89.632812 78.140625 89.40625 78.453125 C 89.0625 78.6875 88.832031 78.671875 88.425781 78.613281 C 88.195312 78.453125 88.195312 78.453125 88 78.1875 C 87.957031 77.871094 87.9375 77.59375 87.941406 77.277344 C 87.9375 77.1875 87.9375 77.101562 87.9375 77.011719 C 87.9375 76.824219 87.9375 76.636719 87.9375 76.453125 C 87.941406 76.167969 87.9375 75.882812 87.933594 75.601562 C 87.933594 75.417969 87.933594 75.238281 87.933594 75.058594 C 87.929688 74.972656 87.929688 74.886719 87.929688 74.800781 C 87.9375 74.351562 87.964844 74.179688 88.25 73.8125 C 88.535156 73.601562 88.535156 73.601562 88.859375 73.535156 Z M 88.859375 73.535156 "/>
<path style=" stroke:none;fill-rule:nonzero;fill:rgb(17.647059%,15.686275%,14.901961%);fill-opacity:1;" d="M 39.308594 47.621094 C 39.679688 47.679688 39.679688 47.679688 39.914062 47.839844 C 40.195312 48.230469 40.167969 48.570312 40.164062 49.042969 C 40.164062 49.132812 40.164062 49.226562 40.164062 49.316406 C 40.164062 49.507812 40.164062 49.703125 40.164062 49.894531 C 40.160156 50.1875 40.164062 50.476562 40.164062 50.769531 C 40.164062 50.957031 40.164062 51.144531 40.164062 51.328125 C 40.164062 51.417969 40.164062 51.503906 40.164062 51.59375 C 40.160156 51.996094 40.152344 52.203125 39.914062 52.535156 C 39.566406 52.769531 39.339844 52.757812 38.933594 52.691406 C 38.597656 52.382812 38.511719 52.203125 38.453125 51.746094 C 38.449219 51.585938 38.449219 51.425781 38.449219 51.261719 C 38.449219 51.179688 38.449219 51.09375 38.449219 51.003906 C 38.449219 50.824219 38.449219 50.644531 38.449219 50.460938 C 38.453125 50.1875 38.449219 49.914062 38.449219 49.636719 C 38.449219 49.460938 38.449219 49.285156 38.449219 49.109375 C 38.449219 49.027344 38.449219 48.945312 38.449219 48.863281 C 38.453125 48.46875 38.496094 48.230469 38.699219 47.894531 C 38.933594 47.679688 38.933594 47.679688 39.308594 47.621094 Z M 39.308594 47.621094 "/>
<path style=" stroke:none;fill-rule:nonzero;fill:rgb(17.254902%,15.294118%,15.294118%);fill-opacity:1;" d="M 39.394531 93.511719 C 39.785156 93.546875 39.785156 93.546875 40.019531 93.703125 C 40.300781 94.097656 40.273438 94.4375 40.269531 94.910156 C 40.269531 95 40.269531 95.089844 40.269531 95.183594 C 40.273438 95.375 40.269531 95.566406 40.269531 95.757812 C 40.265625 96.050781 40.269531 96.34375 40.273438 96.636719 C 40.269531 96.824219 40.269531 97.011719 40.269531 97.195312 C 40.269531 97.285156 40.273438 97.371094 40.273438 97.460938 C 40.265625 97.867188 40.261719 98.070312 40.015625 98.402344 C 39.785156 98.558594 39.785156 98.558594 39.472656 98.621094 C 39.027344 98.539062 38.890625 98.378906 38.613281 98.027344 C 38.5625 97.714844 38.542969 97.464844 38.550781 97.152344 C 38.550781 97.070312 38.550781 96.988281 38.550781 96.902344 C 38.550781 96.726562 38.550781 96.550781 38.554688 96.375 C 38.558594 96.109375 38.558594 95.839844 38.558594 95.574219 C 38.558594 95.402344 38.5625 95.230469 38.5625 95.058594 C 38.5625 94.941406 38.5625 94.941406 38.5625 94.820312 C 38.578125 94.183594 38.699219 93.578125 39.394531 93.511719 Z M 39.394531 93.511719 "/>
<path style=" stroke:none;fill-rule:nonzero;fill:rgb(16.862746%,15.686275%,14.901961%);fill-opacity:1;" d="M 88.800781 86.660156 C 89.242188 86.730469 89.339844 86.789062 89.601562 87.148438 C 89.640625 87.464844 89.660156 87.738281 89.65625 88.054688 C 89.65625 88.144531 89.65625 88.234375 89.65625 88.324219 C 89.65625 88.507812 89.65625 88.695312 89.65625 88.882812 C 89.652344 89.164062 89.65625 89.449219 89.660156 89.734375 C 89.65625 89.914062 89.65625 90.09375 89.65625 90.277344 C 89.65625 90.359375 89.660156 90.445312 89.660156 90.53125 C 89.652344 90.945312 89.625 91.15625 89.40625 91.519531 C 89.171875 91.734375 89.171875 91.734375 88.800781 91.792969 C 88.359375 91.722656 88.257812 91.664062 88 91.308594 C 87.957031 90.988281 87.941406 90.714844 87.941406 90.398438 C 87.941406 90.308594 87.941406 90.222656 87.941406 90.128906 C 87.941406 89.945312 87.941406 89.757812 87.945312 89.570312 C 87.945312 89.289062 87.945312 89.003906 87.941406 88.71875 C 87.941406 88.539062 87.941406 88.359375 87.941406 88.175781 C 87.941406 88.09375 87.941406 88.007812 87.941406 87.921875 C 87.949219 87.507812 87.976562 87.296875 88.195312 86.933594 C 88.425781 86.71875 88.425781 86.71875 88.800781 86.660156 Z M 88.800781 86.660156 "/>
<path style=" stroke:none;fill-rule:nonzero;fill:rgb(17.254902%,15.686275%,14.901961%);fill-opacity:1;" d="M 89.171875 80.214844 C 89.40625 80.375 89.40625 80.375 89.601562 80.640625 C 89.644531 80.957031 89.664062 81.234375 89.660156 81.550781 C 89.660156 81.683594 89.660156 81.683594 89.664062 81.816406 C 89.664062 82.003906 89.664062 82.1875 89.660156 82.375 C 89.660156 82.660156 89.664062 82.941406 89.667969 83.226562 C 89.667969 83.40625 89.667969 83.589844 89.667969 83.769531 C 89.667969 83.855469 89.667969 83.9375 89.671875 84.027344 C 89.664062 84.472656 89.632812 84.648438 89.351562 85.015625 C 89.066406 85.226562 89.066406 85.226562 88.679688 85.234375 C 88.273438 85.105469 88.195312 85.0625 88 84.691406 C 87.96875 84.382812 87.953125 84.09375 87.953125 83.78125 C 87.953125 83.691406 87.953125 83.601562 87.953125 83.511719 C 87.953125 83.324219 87.953125 83.140625 87.953125 82.953125 C 87.953125 82.667969 87.949219 82.382812 87.945312 82.097656 C 87.945312 81.917969 87.945312 81.734375 87.945312 81.554688 C 87.945312 81.46875 87.945312 81.382812 87.945312 81.296875 C 87.949219 80.914062 87.96875 80.683594 88.191406 80.371094 C 88.535156 80.136719 88.769531 80.15625 89.171875 80.214844 Z M 89.171875 80.214844 "/>
<path style=" stroke:none;fill-rule:nonzero;fill:rgb(17.647059%,15.686275%,14.901961%);fill-opacity:1;" d="M 88.632812 47.621094 C 89.078125 47.703125 89.214844 47.859375 89.492188 48.214844 C 89.546875 48.535156 89.566406 48.792969 89.558594 49.109375 C 89.5625 49.195312 89.5625 49.28125 89.5625 49.371094 C 89.5625 49.550781 89.558594 49.730469 89.558594 49.910156 C 89.554688 50.1875 89.554688 50.460938 89.558594 50.734375 C 89.554688 50.910156 89.554688 51.085938 89.554688 51.261719 C 89.554688 51.34375 89.554688 51.425781 89.554688 51.511719 C 89.546875 51.902344 89.503906 52.140625 89.300781 52.480469 C 89.066406 52.691406 89.066406 52.691406 88.691406 52.753906 C 88.320312 52.691406 88.320312 52.691406 88.085938 52.535156 C 87.804688 52.140625 87.832031 51.804688 87.835938 51.328125 C 87.835938 51.238281 87.835938 51.148438 87.835938 51.054688 C 87.835938 50.863281 87.835938 50.671875 87.835938 50.480469 C 87.839844 50.1875 87.835938 49.894531 87.835938 49.601562 C 87.835938 49.414062 87.835938 49.230469 87.835938 49.042969 C 87.835938 48.957031 87.835938 48.867188 87.835938 48.777344 C 87.839844 48.375 87.847656 48.171875 88.089844 47.839844 C 88.320312 47.679688 88.320312 47.679688 88.632812 47.621094 Z M 88.632812 47.621094 "/>
<path style=" stroke:none;fill-rule:nonzero;fill:rgb(17.647059%,15.686275%,14.901961%);fill-opacity:1;" d="M 89.066406 41.171875 C 89.300781 41.332031 89.300781 41.332031 89.492188 41.601562 C 89.535156 41.917969 89.554688 42.191406 89.554688 42.507812 C 89.554688 42.640625 89.554688 42.640625 89.554688 42.777344 C 89.554688 42.960938 89.554688 43.148438 89.554688 43.335938 C 89.554688 43.617188 89.558594 43.902344 89.5625 44.1875 C 89.5625 44.367188 89.5625 44.546875 89.558594 44.730469 C 89.5625 44.8125 89.5625 44.898438 89.566406 44.984375 C 89.558594 45.433594 89.527344 45.609375 89.246094 45.976562 C 88.960938 46.1875 88.960938 46.1875 88.574219 46.191406 C 88.164062 46.066406 88.089844 46.023438 87.894531 45.652344 C 87.859375 45.339844 87.847656 45.050781 87.847656 44.738281 C 87.847656 44.652344 87.847656 44.5625 87.84375 44.472656 C 87.84375 44.285156 87.84375 44.097656 87.847656 43.914062 C 87.847656 43.628906 87.84375 43.34375 87.839844 43.058594 C 87.839844 42.875 87.839844 42.695312 87.839844 42.511719 C 87.839844 42.429688 87.839844 42.34375 87.835938 42.253906 C 87.839844 41.875 87.859375 41.644531 88.085938 41.332031 C 88.429688 41.097656 88.660156 41.117188 89.066406 41.171875 Z M 89.066406 41.171875 "/>
<path style=" stroke:none;fill-rule:nonzero;fill:rgb(16.862746%,15.686275%,14.901961%);fill-opacity:1;" d="M 89.171875 93.546875 C 89.40625 93.707031 89.40625 93.707031 89.601562 93.972656 C 89.644531 94.289062 89.664062 94.566406 89.660156 94.882812 C 89.660156 95.015625 89.660156 95.015625 89.664062 95.148438 C 89.664062 95.335938 89.664062 95.523438 89.660156 95.707031 C 89.660156 95.992188 89.664062 96.277344 89.667969 96.558594 C 89.667969 96.742188 89.667969 96.921875 89.667969 97.101562 C 89.667969 97.1875 89.667969 97.273438 89.671875 97.359375 C 89.664062 97.808594 89.632812 97.980469 89.351562 98.351562 C 89.066406 98.558594 89.066406 98.558594 88.679688 98.566406 C 88.273438 98.4375 88.195312 98.394531 88 98.027344 C 87.96875 97.714844 87.953125 97.425781 87.953125 97.113281 C 87.953125 97.023438 87.953125 96.9375 87.953125 96.84375 C 87.953125 96.660156 87.953125 96.472656 87.953125 96.285156 C 87.953125 96 87.949219 95.714844 87.945312 95.429688 C 87.945312 95.25 87.945312 95.066406 87.945312 94.886719 C 87.945312 94.800781 87.945312 94.714844 87.945312 94.628906 C 87.949219 94.25 87.96875 94.019531 88.191406 93.707031 C 88.535156 93.472656 88.769531 93.488281 89.171875 93.546875 Z M 89.171875 93.546875 "/>
<path style=" stroke:none;fill-rule:nonzero;fill:rgb(17.647059%,15.686275%,14.901961%);fill-opacity:1;" d="M 39.679688 41.171875 C 39.914062 41.332031 39.914062 41.332031 40.105469 41.601562 C 40.152344 41.917969 40.167969 42.191406 40.167969 42.507812 C 40.167969 42.640625 40.167969 42.640625 40.167969 42.777344 C 40.167969 42.960938 40.167969 43.148438 40.167969 43.335938 C 40.167969 43.617188 40.171875 43.902344 40.175781 44.1875 C 40.175781 44.367188 40.175781 44.546875 40.171875 44.730469 C 40.175781 44.8125 40.175781 44.898438 40.179688 44.984375 C 40.171875 45.433594 40.140625 45.609375 39.859375 45.976562 C 39.574219 46.1875 39.574219 46.1875 39.1875 46.191406 C 38.777344 46.066406 38.703125 46.023438 38.507812 45.652344 C 38.472656 45.339844 38.460938 45.050781 38.460938 44.738281 C 38.460938 44.652344 38.460938 44.5625 38.457031 44.472656 C 38.457031 44.285156 38.457031 44.097656 38.460938 43.914062 C 38.460938 43.628906 38.457031 43.34375 38.453125 43.058594 C 38.453125 42.875 38.453125 42.695312 38.453125 42.511719 C 38.453125 42.429688 38.453125 42.34375 38.449219 42.253906 C 38.453125 41.875 38.472656 41.644531 38.699219 41.332031 C 39.042969 41.097656 39.273438 41.117188 39.679688 41.171875 Z M 39.679688 41.171875 "/>
<path style=" stroke:none;fill-rule:nonzero;fill:rgb(15.686275%,14.901961%,14.901961%);fill-opacity:1;" d="M 39.527344 73.605469 C 39.890625 73.707031 39.992188 73.742188 40.214844 74.027344 C 40.246094 74.351562 40.257812 74.65625 40.253906 74.980469 C 40.257812 75.121094 40.257812 75.121094 40.257812 75.261719 C 40.257812 75.460938 40.257812 75.660156 40.253906 75.855469 C 40.253906 76.160156 40.253906 76.460938 40.257812 76.765625 C 40.257812 76.957031 40.257812 77.148438 40.253906 77.339844 C 40.257812 77.476562 40.257812 77.476562 40.257812 77.613281 C 40.25 78.246094 40.25 78.246094 40.0625 78.476562 C 39.851562 78.648438 39.734375 78.65625 39.464844 78.652344 C 39.359375 78.65625 39.359375 78.65625 39.246094 78.65625 C 38.976562 78.601562 38.890625 78.503906 38.71875 78.292969 C 38.6875 77.96875 38.671875 77.667969 38.671875 77.34375 C 38.671875 77.25 38.671875 77.15625 38.671875 77.0625 C 38.671875 76.863281 38.671875 76.667969 38.671875 76.46875 C 38.671875 76.167969 38.671875 75.867188 38.667969 75.566406 C 38.667969 75.375 38.667969 75.183594 38.667969 74.992188 C 38.664062 74.898438 38.664062 74.808594 38.664062 74.71875 C 38.667969 74.308594 38.671875 74.09375 38.914062 73.753906 C 39.148438 73.601562 39.148438 73.601562 39.527344 73.605469 Z M 39.527344 73.605469 "/>
<path style=" stroke:none;fill-rule:nonzero;fill:rgb(15.686275%,14.901961%,14.901961%);fill-opacity:1;" d="M 39.785156 86.71875 C 40.015625 86.878906 40.015625 86.878906 40.214844 87.148438 C 40.253906 87.464844 40.269531 87.742188 40.261719 88.058594 C 40.261719 88.148438 40.261719 88.238281 40.261719 88.328125 C 40.261719 88.515625 40.261719 88.699219 40.257812 88.886719 C 40.253906 89.171875 40.253906 89.457031 40.253906 89.742188 C 40.25 89.925781 40.25 90.105469 40.25 90.285156 C 40.25 90.371094 40.25 90.457031 40.25 90.542969 C 40.234375 91.300781 40.234375 91.300781 40 91.625 C 39.675781 91.789062 39.398438 91.757812 39.039062 91.734375 C 38.824219 91.574219 38.734375 91.476562 38.679688 91.210938 C 38.679688 91.136719 38.675781 91.058594 38.675781 90.980469 C 38.675781 90.894531 38.675781 90.808594 38.671875 90.71875 C 38.671875 90.625 38.671875 90.53125 38.671875 90.4375 C 38.671875 90.292969 38.671875 90.292969 38.671875 90.144531 C 38.671875 89.945312 38.671875 89.742188 38.671875 89.539062 C 38.671875 89.226562 38.671875 88.917969 38.667969 88.605469 C 38.667969 88.410156 38.667969 88.214844 38.667969 88.015625 C 38.664062 87.921875 38.664062 87.832031 38.664062 87.734375 C 38.671875 87.09375 38.671875 87.09375 38.917969 86.820312 C 39.234375 86.679688 39.445312 86.671875 39.785156 86.71875 Z M 39.785156 86.71875 "/>
<path style=" stroke:none;fill-rule:nonzero;fill:rgb(15.686275%,14.901961%,14.901961%);fill-opacity:1;" d="M 39.464844 80.171875 C 39.574219 80.171875 39.574219 80.171875 39.6875 80.171875 C 39.957031 80.226562 40.039062 80.324219 40.214844 80.535156 C 40.246094 80.847656 40.261719 81.140625 40.261719 81.457031 C 40.265625 81.546875 40.265625 81.636719 40.265625 81.730469 C 40.265625 81.921875 40.265625 82.113281 40.265625 82.304688 C 40.265625 82.597656 40.269531 82.890625 40.277344 83.183594 C 40.277344 83.371094 40.277344 83.554688 40.277344 83.742188 C 40.277344 83.875 40.277344 83.875 40.28125 84.007812 C 40.277344 84.460938 40.25 84.644531 39.96875 85.019531 C 39.679688 85.226562 39.679688 85.226562 39.285156 85.226562 C 38.933594 85.121094 38.933594 85.121094 38.71875 84.800781 C 38.699219 84.480469 38.6875 84.167969 38.6875 83.847656 C 38.6875 83.753906 38.6875 83.660156 38.6875 83.5625 C 38.6875 83.367188 38.6875 83.167969 38.6875 82.96875 C 38.6875 82.667969 38.683594 82.363281 38.679688 82.0625 C 38.679688 81.871094 38.679688 81.679688 38.679688 81.488281 C 38.679688 81.394531 38.679688 81.304688 38.679688 81.210938 C 38.683594 80.578125 38.683594 80.578125 38.871094 80.347656 C 39.082031 80.179688 39.199219 80.171875 39.464844 80.171875 Z M 39.464844 80.171875 "/>
<path style=" stroke:none;fill-rule:nonzero;fill:rgb(72.941178%,45.490196%,26.666668%);fill-opacity:1;" d="M 85.867188 65.921875 C 87.695312 65.921875 89.527344 65.921875 91.414062 65.921875 C 91.414062 66.097656 91.414062 66.273438 91.414062 66.453125 C 89.582031 66.453125 87.753906 66.453125 85.867188 66.453125 C 85.867188 66.277344 85.867188 66.101562 85.867188 65.921875 Z M 85.867188 65.921875 "/>
<path style=" stroke:none;fill-rule:nonzero;fill:rgb(72.941178%,45.490196%,26.666668%);fill-opacity:1;" d="M 36.585938 65.921875 C 38.417969 65.921875 40.246094 65.921875 42.132812 65.921875 C 42.132812 66.097656 42.132812 66.273438 42.132812 66.453125 C 40.304688 66.453125 38.472656 66.453125 36.585938 66.453125 C 36.585938 66.277344 36.585938 66.101562 36.585938 65.921875 Z M 36.585938 65.921875 "/>
</g>
</svg>
